<svg width="66" height="31" viewBox="0 0 66 31" fill="none" xmlns="http://www.w3.org/2000/svg">
<path d="M59.3459 21.4856C58.4164 21.2332 57.8444 20.2143 58.3643 19.4036C58.8879 18.5869 59.4844 18.2874 60.1871 18.4781C60.8978 18.6711 61.243 19.2444 61.247 20.2265C61.2507 21.1718 60.2582 21.7332 59.3459 21.4856ZM64.9825 24.3287C64.9769 24.3272 64.9735 24.3213 64.9751 24.3157C65.5945 22.0279 65.5709 20.0914 64.9548 18.5419C64.3378 16.9899 62.9899 15.9044 61.0865 15.3876C57.1825 14.3278 53.979 16.5566 52.7247 21.1769C52.0219 23.7659 52.1387 25.8852 53.0766 27.4693C53.9277 28.8943 55.4179 29.894 57.5474 30.4684C58.9006 30.8847 60.3245 30.996 61.7177 30.8002C62.3722 30.7082 62.8405 30.1498 62.909 29.4924C63.0213 28.4151 62.0306 27.5415 60.9484 27.4977C60.2787 27.4706 59.612 27.3636 58.9627 27.1774C58.2519 27.046 57.6158 26.6539 57.1791 26.0779C56.5383 24.9687 57.8848 24.105 59.121 24.4406L63.7715 25.703C64.1836 25.8149 64.5937 25.6159 64.7256 25.2099C64.8333 24.8784 64.9412 24.5198 64.9901 24.3413C64.9916 24.3357 64.9882 24.3303 64.9825 24.3287ZM45.8066 22.4577C45.582 22.7325 45.284 22.9378 44.9472 23.0497C44.6105 23.1615 44.2488 23.1754 43.9045 23.0895C43.1142 22.8897 42.8716 21.9768 43.0852 21.1901L44.3197 16.6425C44.4966 15.9909 44.882 15.359 45.5417 15.215C45.8829 15.1405 46.2357 15.1359 46.5788 15.2014C47.7454 15.5181 47.9767 16.9324 47.31 19.3883C47.0745 20.5215 46.5575 21.577 45.8066 22.4577ZM52.013 14.611C51.7579 13.9883 51.3558 13.4367 50.8411 13.0033C50.3264 12.5698 49.7144 12.2675 49.0574 12.1221C48.3685 11.9482 47.6503 11.925 46.9517 12.0538C46.6125 12.1164 46.2818 12.2142 45.9647 12.3449C45.569 12.5081 45.0753 12.2082 45.118 11.7823C45.1424 11.539 44.9873 11.3138 44.7514 11.2498L43.3135 10.8594C42.1095 10.5326 40.8685 11.2437 40.5417 12.4476L36.5186 27.2669C36.1327 28.6887 37.1148 30.1171 38.5805 30.2656L38.7764 30.2855C39.8247 30.3917 40.796 29.7239 41.072 28.7071L41.2787 27.9457C41.5583 26.9158 42.7742 26.4588 43.8 26.7529C44.5582 26.9775 45.355 27.0413 46.1392 26.9401C46.9235 26.8389 47.678 26.5751 48.3544 26.1654C49.9594 25.1508 51.1568 23.2289 51.9041 20.4762C52.5862 18.0244 52.6285 16.0471 52.013 14.611ZM34.0871 10.8269C34.4323 9.55527 35.743 8.80426 37.0146 9.14947C38.2862 9.49468 39.0372 10.8054 38.692 12.077L36.0362 21.86C35.691 23.1316 34.3803 23.8826 33.1087 23.5374C31.8371 23.1922 31.0861 21.8815 31.4313 20.6099L34.0871 10.8269ZM37.4007 7.72705C37.8804 7.85834 38.3881 7.84439 38.8598 7.68697C39.3315 7.52954 39.7459 7.23573 40.0505 6.8427C40.3551 6.44968 40.5363 5.97511 40.5711 5.47907C40.6059 4.98303 40.4928 4.48781 40.246 4.0561C39.9993 3.62438 39.63 3.27558 39.1849 3.05383C38.7398 2.83208 38.239 2.74736 37.7457 2.81038C37.2525 2.87341 36.789 3.08135 36.414 3.40789C36.039 3.73442 35.7692 4.16488 35.639 4.64477C35.5512 4.96284 35.5271 5.29514 35.5683 5.62253C35.6094 5.94993 35.7149 6.26595 35.8786 6.55243C36.0424 6.8389 36.2611 7.09016 36.5224 7.29175C36.7836 7.49334 37.0821 7.64128 37.4007 7.72705ZM32.781 7.78592C32.1866 7.59307 31.5451 7.6023 30.9565 7.81218C30.8395 7.8539 30.7259 7.90308 30.6163 7.95924C30.2826 8.13019 29.6395 7.83983 29.6775 7.46688C29.6951 7.29329 29.5845 7.13242 29.4162 7.08671L27.8763 6.66868C26.6838 6.34495 25.4547 7.04921 25.131 8.24169L22.4363 18.168C22.091 19.4396 22.8421 20.7503 24.1137 21.0955C25.3853 21.4407 26.696 20.6897 27.0412 19.4181L28.284 14.8403C28.7154 13.2511 29.7828 11.6716 31.391 12.0256C31.4945 12.0484 31.6001 12.0745 31.7078 12.1038C32.1383 12.209 32.6116 11.992 32.7277 11.5642L33.4133 9.03869C33.556 8.51325 33.3256 7.9391 32.8015 7.79148L32.781 7.78592ZM21.9266 8.69493C22.5543 8.85952 23.2094 8.54781 23.4776 7.95684L23.817 7.20901C24.1696 6.43222 23.7425 5.52449 22.9192 5.301C22.1814 5.10071 21.7457 4.34025 21.946 3.60246L22.0953 3.0523C22.4114 1.88813 21.6076 0.718448 20.4075 0.596075L20.1381 0.5686C19.2079 0.473751 18.3206 0.981485 17.931 1.83145L17.3622 3.07244C17.1815 3.46681 16.7693 3.70196 16.3379 3.65687C15.9045 3.61158 15.4909 3.84893 15.3114 4.24591L14.6755 5.65175C14.446 6.15936 14.7253 6.75186 15.2629 6.89781C15.7452 7.02873 16.03 7.52581 15.8991 8.00806L14.3165 13.8376C13.8456 15.5722 13.9643 16.8954 14.6686 17.8832C15.2605 18.6976 16.2698 19.2902 17.8048 19.7069C18.1796 19.8103 18.5603 19.8889 18.9444 19.9425C19.7415 20.0537 20.4452 19.4919 20.6561 18.7152L20.9061 17.7943C21.0908 17.114 20.5739 16.4445 19.8863 16.2891C18.9807 16.0432 18.7168 15.4772 19.0085 14.4027L20.3029 9.63462C20.4945 8.92887 21.2192 8.50947 21.9266 8.69493ZM9.35061 7.45176C9.34486 7.45368 9.33844 7.45264 9.33353 7.44907C8.13188 6.57533 7.49453 6.00159 7.66085 5.38894C7.79975 4.87728 8.30638 4.69068 9.06364 4.89626C9.63152 5.07873 10.1791 5.31421 10.6994 5.59864C11.7011 6.14622 13.0643 5.87726 13.5367 4.83796C13.8483 4.15222 13.6705 3.33125 13.0408 2.91791C12.0362 2.25842 10.9285 1.76503 9.76037 1.45957C8.42288 1.02892 6.9769 1.07946 5.67273 1.60245C5.08157 1.87848 4.56116 2.28573 4.15112 2.79321C3.74109 3.3007 3.45222 3.89503 3.30652 4.53099C2.62313 7.04837 3.8692 8.52933 6.11886 10.1179C7.56991 11.1271 7.99603 11.6823 7.82518 12.3117C7.65434 12.941 7.05239 13.1347 6.10582 12.8777C5.36679 12.6217 4.66096 12.2851 4.0005 11.8755C3.00952 11.2609 1.60156 11.5174 1.1221 12.5804C0.824802 13.2395 0.979013 14.0251 1.56153 14.4535C2.72193 15.3068 4.03279 15.9407 5.42955 16.32C6.80971 16.7749 8.30249 16.7547 9.66981 16.2625C10.3143 15.9767 10.8816 15.5416 11.3247 14.9932C11.7678 14.4448 12.074 13.7988 12.218 13.1086C12.9117 10.5533 11.634 9.04126 9.36739 7.45423C9.36252 7.45082 9.35625 7.44987 9.35061 7.45176Z" fill="white"/>
</svg>
