<svg width="87" height="59" viewBox="0 0 87 59" fill="none" xmlns="http://www.w3.org/2000/svg">
<path d="M18.2058 11.2498L18.2655 11.1661L17.9232 11.6507L18.2058 11.2498Z" fill="white"/>
<path d="M23.2043 11.2381C23.416 12.0281 23.6277 12.8181 23.8038 13.4754L23.2043 11.2381Z" fill="white"/>
<path d="M23.9127 16.027C23.795 15.9705 23.6691 15.9094 23.5305 15.8517L23.9127 16.027Z" fill="white"/>
<path d="M3.57567 11.3969L0.664656 12.1769L4.39457 26.0972C4.4276 26.2204 4.47981 26.3377 4.5493 26.4448C4.71391 26.6879 4.92314 26.8979 5.16594 27.0638C5.21025 27.0941 5.25883 27.1175 5.30928 27.1358C5.34453 27.1486 5.37859 27.1643 5.41218 27.181C5.52571 27.2373 5.64649 27.2782 5.7713 27.3028C6.24552 27.4128 6.16084 27.4287 8.83565 26.712C10.0978 26.3738 10.8469 25.0764 10.5087 23.8142L9.4564 19.887C8.54025 16.4679 7.59361 12.935 7.36669 12.0881C7.13194 11.212 6.23141 10.6921 5.35531 10.9269L3.58369 11.4016C3.5802 11.4025 3.57661 11.4004 3.57567 11.3969Z" fill="white"/>
<path d="M17.9168 11.6524L18.2591 11.1678L20.4908 8.05673L21.4281 6.72855C21.6986 6.34713 21.7851 5.86501 21.6641 5.41333L21.2997 4.05344C20.8221 2.27119 20.7273 1.91727 20.6564 1.78046C20.5876 1.62642 20.4941 1.48449 20.3796 1.36015C20.3752 1.35499 20.372 1.34891 20.3702 1.34235C20.3669 1.32981 20.3653 1.3162 20.3575 1.30579C20.3078 1.23897 20.2471 1.18084 20.178 1.13379C20.1704 1.12861 20.1635 1.12202 20.1602 1.11345C20.1529 1.09459 20.1445 1.07488 20.1277 1.06362C20.0039 0.980751 19.8743 0.906784 19.7398 0.842276C19.7214 0.833407 19.6999 0.836055 19.6796 0.839208C19.6704 0.840633 19.6612 0.8381 19.6529 0.834183C19.5829 0.801535 19.5088 0.778385 19.4325 0.765338C19.4143 0.762225 19.3957 0.763526 19.3779 0.768304C19.3498 0.77583 19.3201 0.774137 19.2926 0.764546C19.1708 0.721978 19.0443 0.694125 18.9159 0.68148C18.8029 0.670346 18.6909 0.688195 18.5812 0.717591C18.0243 0.866804 16.0431 1.39767 11.94 2.4971L8.39112 3.44801C6.67382 3.90816 5.6547 5.67334 6.11485 7.39064C6.575 9.10794 8.34017 10.1271 10.0575 9.66691L13.464 8.75415C14.7554 8.4081 16.0829 9.17451 16.4289 10.466C16.6328 11.2267 16.8018 11.8576 16.9128 12.2716C16.9702 12.4859 17.2501 12.5375 17.3807 12.3582L17.9168 11.6524Z" fill="white"/>
<path d="M33.1741 27.9668L33.1149 28.0775L33.1822 27.9714C33.1858 27.9662 33.1893 27.9612 33.1926 27.9564C33.2416 27.8845 33.2083 27.8868 33.1741 27.9668Z" fill="white"/>
<path d="M20.9632 14.6463C21.0077 14.6592 21.0511 14.6756 21.0931 14.6953L23.5433 15.8483C23.6819 15.906 23.8077 15.9671 23.9255 16.0236C24.1784 16.1448 24.4571 15.9135 24.3845 15.6426L23.8055 13.4817C23.6361 12.8497 23.4177 12.0344 23.206 11.2444C22.1146 12.1448 21.1739 13.2108 20.4191 14.4027L20.8337 14.5975C20.8755 14.6171 20.9188 14.6334 20.9632 14.6463Z" fill="white"/>
<path d="M22.0495 9.6214C22.3996 9.33476 22.5638 8.87338 22.4467 8.43632L21.9878 6.7237C21.9295 6.50599 21.6441 6.45444 21.5133 6.63798L20.0147 8.70587L19.955 8.7896L19.8749 8.89913L18.8776 10.284L18.2591 11.1678L18.1994 11.2515L17.9168 11.6524L17.4207 12.3543C17.2214 12.6305 17.2923 12.8791 17.6004 13.0243L18.0309 13.2272C18.3829 13.3915 18.8004 13.2643 19.018 12.9425C19.8609 11.6959 20.8822 10.577 22.0495 9.6214Z" fill="white"/>
<path d="M17.9168 11.6524L17.419 12.348L17.9114 11.6514C17.9129 11.6493 17.9162 11.6499 17.9168 11.6524Z" fill="white"/>
<path d="M17.9168 11.6524L17.419 12.348L17.9114 11.6514C17.9129 11.6493 17.9162 11.6499 17.9168 11.6524Z" fill="white"/>
<path d="M18.9031 10.2772L19.9005 8.89228L19.9806 8.78276L18.2591 11.1678L18.9031 10.2772Z" fill="white"/>
<path d="M18.9031 10.2772L19.9005 8.89228L19.9806 8.78276L18.2591 11.1678L18.9031 10.2772Z" fill="white"/>
<path d="M23.7991 13.4834L24.3781 15.6443C24.4507 15.9152 24.1721 16.1465 23.9191 16.0253L23.5433 15.8483L21.198 14.7562L20.9093 14.6235L20.4191 14.4027C19.7642 15.4369 19.2602 16.5451 18.9132 17.6949C17.9011 21.0485 22.22 24.687 24.8162 22.3352C24.8387 22.311 24.8663 22.292 24.8971 22.2796C24.9091 22.2739 24.9206 22.2671 24.9313 22.2594C24.9692 22.2321 25.0001 22.1956 25.0376 22.1677C25.0569 22.1534 25.0751 22.1376 25.0916 22.1201C25.3882 21.8061 25.5864 21.4137 25.6621 20.991C25.667 20.9635 25.6581 20.9356 25.6547 20.9079C25.6533 20.8971 25.656 20.8862 25.6589 20.8756C25.6607 20.869 25.6622 20.8623 25.6635 20.8555C25.6685 20.8279 25.6625 20.7998 25.6545 20.7729C25.6442 20.7383 25.6355 20.7033 25.6284 20.668C25.6098 20.5984 25.437 19.9538 25.0825 18.4773L24.5434 16.4656C24.5363 16.4391 24.5636 16.4166 24.5882 16.4286L24.7366 16.4972L24.851 16.541L25.2171 16.7071C25.6912 16.9188 25.8783 17.0041 25.8961 17.0197C25.9154 17.0365 25.9408 17.0169 25.9641 17.0275L26.1538 17.1132L26.3536 17.2051C26.3816 17.218 26.4078 17.2347 26.436 17.2474C26.4649 17.2604 26.4958 17.269 26.5249 17.2817L26.6827 17.3508L27.1891 17.5809C27.3026 17.6255 27.4134 17.6766 27.5209 17.734C27.5504 17.7497 27.5808 17.7635 27.6123 17.7746C27.6462 17.7865 27.6789 17.8015 27.7113 17.8171C27.7839 17.8519 27.909 17.9066 28.0293 17.9586L28.2127 18.0403C28.7734 18.2901 29.3381 18.6981 29.94 18.5779C30.0768 18.5315 30.2056 18.4642 30.3216 18.3786C30.3461 18.3605 30.3659 18.337 30.3878 18.3159C30.4028 18.3015 30.4189 18.288 30.4324 18.2721C30.5645 18.1164 30.6447 17.9237 30.6614 17.7208C30.6705 17.6197 30.6617 17.5179 30.6355 17.4199L29.1759 11.9726C28.6738 10.099 26.7125 8.94973 25.0286 9.91253C25.0108 9.92274 24.9929 9.93299 24.9751 9.94328C23.7592 10.6458 23.3592 12.1499 23.7991 13.4834Z" fill="white"/>
<path d="M13.8898 18.6856L12.5816 19.0361C10.8643 19.4962 9.84519 21.2614 10.3053 22.9787L10.373 23.2312C10.7958 24.809 12.4176 25.7454 13.9955 25.3226L14.3628 25.2242C15.6733 24.8731 16.4569 23.5569 16.3955 22.2016C16.3758 21.7668 16.375 21.3314 16.3931 20.8966C16.4499 19.5341 15.2062 18.3298 13.8898 18.6856Z" fill="white"/>
<path d="M18.6431 13.5712L18.0236 13.2766L17.7494 13.1468C17.4824 13.0243 17.1934 13.2678 17.2694 13.5516C17.3825 13.9737 17.5364 14.5481 17.705 15.1773L17.7372 15.2974C18.002 14.7037 18.3045 14.1271 18.6431 13.5712Z" fill="white"/>
<path d="M26.6841 2.03472C26.6596 1.94321 26.6157 1.85802 26.5556 1.78486C26.4184 1.62087 26.2326 1.50386 26.0244 1.45031C25.8161 1.39676 25.5958 1.40936 25.3945 1.48633C25.1933 1.5912 25.0249 1.74883 24.9076 1.94193L24.5918 2.37201L24.1332 3.0097L23.8174 3.43979L23.5834 3.76666L23.4231 3.98572L22.6436 5.03454L22.4284 5.32929C22.3278 5.46462 22.2242 5.6143 22.1961 5.66249C22.1802 5.68965 22.1606 5.71454 22.138 5.73649C22.1288 5.74544 22.1206 5.75546 22.1144 5.7667C22.0632 5.85916 21.9711 6.30399 21.9985 6.40604C22.0881 6.74061 22.2445 7.32416 22.476 8.18801C22.5941 8.629 23.1196 8.81426 23.5036 8.56723C24.2008 8.11864 24.9327 7.72716 25.6919 7.39633C26.883 6.87731 27.6404 5.6039 27.3042 4.34893L26.6841 2.03472Z" fill="white"/>
<path d="M21.0548 14.6586C21.0426 14.6551 21.0361 14.6725 21.0477 14.6778L21.2108 14.7527L23.556 15.8449L21.0563 14.6592C21.0558 14.659 21.0553 14.6588 21.0548 14.6586Z" fill="white"/>
<path d="M21.0548 14.6586C21.0426 14.6551 21.0361 14.6725 21.0477 14.6778L21.2108 14.7527L23.556 15.8449L21.0563 14.6592C21.0558 14.659 21.0553 14.6588 21.0548 14.6586Z" fill="white"/>
<path d="M18.6431 13.5712L18.0253 13.2829L18.6389 13.5747C18.6412 13.5758 18.6438 13.5737 18.6431 13.5712Z" fill="white"/>
<path d="M18.6431 13.5712L18.0253 13.2829L18.6389 13.5747C18.6412 13.5758 18.6438 13.5737 18.6431 13.5712Z" fill="white"/>
<path d="M5.57503 5.40154C5.46383 4.98656 4.90724 4.91158 4.69019 5.28233L2.96593 8.22761L0.664656 12.1769L4.97461 11.0221C6.07061 10.7284 6.72102 9.60186 6.42735 8.50586C6.13478 7.43949 5.74567 6.01287 5.57503 5.40154Z" fill="white"/>
<path d="M3.57567 11.3969L3.81357 11.34L6.96079 10.4967L3.81995 11.3383L3.57567 11.3969Z" fill="white"/>
<path d="M3.57567 11.3969L3.81357 11.34L6.96079 10.4967L3.81995 11.3383L3.57567 11.3969Z" fill="white"/>
<path d="M20.1767 14.2644L19.6232 13.9859L19.9667 14.1445L20.4684 14.3827L20.1767 14.2644Z" fill="white"/>
<path d="M46.4507 46.1329C41.5696 47.3241 36.4217 46.5787 32.1061 44.0559C27.7905 41.5331 24.6493 37.4328 23.3532 32.6305C23.1786 31.9789 22.5014 31.5514 21.8498 31.726L21.5271 31.8124C20.8532 31.993 20.4212 32.6938 20.6017 33.3677C22.0889 38.8953 25.7062 43.6134 30.6769 46.5091C35.2384 49.1664 40.6058 50.0945 45.7955 49.1535C46.5646 49.014 47.0209 48.2354 46.8186 47.4804L46.4588 46.1375C46.4579 46.134 46.4542 46.1319 46.4507 46.1329Z" fill="white"/>
<path d="M63.2967 21.9276C62.5557 19.1489 61.2689 16.545 59.5097 14.2646C57.7506 11.9843 55.5536 10.0722 53.0443 8.63779C50.5351 7.20334 47.7628 6.27461 44.8859 5.90469C42.4762 5.59485 40.0327 5.68214 37.6537 6.15997C36.8886 6.31365 36.4416 7.09315 36.6436 7.847C36.8456 8.60088 37.6201 9.04277 38.3866 8.89579C41.6628 8.26757 45.0519 8.49221 48.2188 9.55933C51.8318 10.7768 54.9917 13.0357 57.295 16.0477C59.5983 19.0597 60.9408 22.6882 61.1509 26.4702C61.3017 29.1841 60.8647 31.8887 59.8836 34.4065C59.4601 35.4935 60.4446 36.7542 61.5715 36.4523C61.9507 36.3506 62.2659 36.0836 62.4146 35.7202C64.2079 31.3372 64.5211 26.496 63.2967 21.9276Z" fill="white"/>
<path d="M65.3515 40.0659L55.5891 42.6817C54.282 43.032 53.5062 44.3756 53.8565 45.6828L54.3898 47.673C54.4455 47.881 54.6593 48.0044 54.8673 47.9487C59.2658 46.7869 63.0332 43.9543 65.3515 40.0659Z" fill="white"/>
<path d="M74.782 40.2011C74.0078 39.1757 72.4425 38.6197 70.6304 38.7259C70.376 38.7445 70.1239 38.7871 69.8775 38.8532L68.6839 39.173C67.4891 41.9041 65.6875 44.3346 63.414 46.2824C61.1405 48.2301 58.4542 49.6444 55.5567 50.4193C55.3522 50.4741 55.2308 50.6843 55.2856 50.8888L56.5846 55.7365C56.6458 55.9649 56.7325 56.1856 56.843 56.3946C57.1455 57.0798 57.6455 57.6604 58.2806 58.0638C58.9156 58.4671 59.6574 58.6753 60.4133 58.6622C61.1825 58.6729 60.7211 58.7897 70.1181 56.2718L72.1634 55.7238C75.7935 54.7511 77.9477 51.0198 76.9751 47.3898C74.9966 40.0826 75.2033 40.752 74.782 40.2011Z" fill="white"/>
<path d="M83.8004 39.8073C83.0387 36.9561 81.5734 36.6236 79.6329 38.8471L78.929 39.6557C77.5178 41.2766 77.0052 43.4932 77.5614 45.569C78.1244 47.6699 79.7068 49.3465 81.7717 50.0297L82.7052 50.3386C84.5467 50.943 86.3239 49.263 85.8223 47.3909C85.5275 46.2908 85.1854 45.014 84.806 43.598C84.4461 42.2315 84.1034 40.9412 83.8004 39.8073Z" fill="white"/>
<path d="M68.6839 39.173L65.3515 40.0659C63.0395 43.9485 59.2829 46.7801 54.8945 47.9482C54.6865 48.0039 54.5631 48.2177 54.6188 48.4257L55.0808 50.15C55.1356 50.3544 55.3458 50.4758 55.5503 50.421C58.4492 49.6468 61.1368 48.2326 63.4115 46.2845C65.6861 44.3364 67.4887 41.9051 68.6839 39.173Z" fill="white"/>
<path d="M68.6839 39.173L65.3515 40.0659C63.0395 43.9485 59.2829 46.7801 54.8945 47.9482C54.6865 48.0039 54.5631 48.2177 54.6188 48.4257L55.0808 50.15C55.1356 50.3544 55.3458 50.4758 55.5503 50.421C58.4492 49.6468 61.1368 48.2326 63.4115 46.2845C65.6861 44.3364 67.4887 41.9051 68.6839 39.173Z" fill="white"/>
<path d="M23.206 11.2444C22.9926 10.4481 22.8097 9.76555 22.6505 9.17147C22.8131 9.77819 23.0079 10.505 23.206 11.2444Z" fill="white"/>
<path d="M19.6232 13.9859L20.2006 14.2512L20.4684 14.3827C21.1001 13.3794 21.8634 12.4645 22.7373 11.6619C23.0311 11.3921 23.1546 10.9505 23.0514 10.5652C22.8645 9.86789 22.0435 9.61569 21.5082 10.1001C20.3903 11.1116 19.4245 12.2805 18.6431 13.5712L19.6232 13.9859Z" fill="white"/>
<path d="M18.6153 24.1013C18.6196 24.0938 18.6211 24.085 18.6194 24.0766C17.9591 20.7487 18.6024 17.2899 20.4191 14.4027L19.9173 14.1645L19.6232 13.9859C19.5861 13.9959 19.5466 13.9924 19.5118 13.9762L18.6431 13.5712C18.3045 14.1271 18.002 14.7037 17.7372 15.2974L18.0766 16.5639C18.2174 17.0896 17.9055 17.6299 17.3798 17.7707C17.0335 17.8635 16.7624 18.1365 16.6894 18.4875C16.3654 20.046 16.2909 21.6425 16.467 23.2182C16.5531 23.9886 17.3227 24.4582 18.0715 24.2576L18.594 24.1176C18.6029 24.1152 18.6106 24.1093 18.6153 24.1013Z" fill="white"/>
<path d="M23.2043 11.2381C24.4733 10.1785 25.9253 9.36103 27.486 8.82417C27.9992 8.64766 28.3126 8.11252 28.1722 7.58837C28.0321 7.06566 27.4938 6.75222 26.9808 6.92453C25.6547 7.36995 24.395 7.99314 23.237 8.77701C22.8982 9.00638 22.7537 9.42876 22.8596 9.824C22.9711 10.2403 23.0933 10.6961 23.2304 11.2078C23.2348 11.2242 23.2212 11.2401 23.2043 11.2381Z" fill="white"/>
<path d="M18.6431 13.5712L19.5118 13.9762C19.5466 13.9924 19.5861 13.9959 19.6232 13.9859L18.6431 13.5712Z" fill="white"/>
<path d="M18.6431 13.5712L19.5118 13.9762C19.5466 13.9924 19.5861 13.9959 19.6232 13.9859L18.6431 13.5712Z" fill="white"/>
<path d="M18.6431 13.5712L19.5118 13.9762C19.5466 13.9924 19.5861 13.9959 19.6232 13.9859L18.6431 13.5712Z" fill="white"/>
<path d="M21.2358 35.748C21.2852 35.9108 21.19 36.0822 21.0257 36.1262L19.944 36.416C19.2054 36.6139 18.4462 36.1756 18.2483 35.437L17.3205 31.9743C17.2732 31.7981 17.3779 31.6169 17.5541 31.5696C17.7304 31.5224 17.9116 31.627 17.9589 31.8033L18.8084 34.9739C18.9635 35.5527 19.5584 35.8962 20.1372 35.7411L20.8699 35.5447C21.0267 35.5027 21.1886 35.5927 21.2358 35.748Z" fill="white"/>
<path d="M22.76 35.3194C22.8072 35.4957 22.7026 35.6769 22.5263 35.7241C22.35 35.7713 22.1688 35.6667 22.1216 35.4904L20.9209 31.0096C20.8737 30.8333 20.9783 30.6521 21.1546 30.6049C21.3309 30.5576 21.5121 30.6623 21.5593 30.8385L22.76 35.3194Z" fill="white"/>
<path d="M26.2945 29.2277C26.5289 29.1649 26.7539 29.3554 26.7306 29.5969L26.271 34.3603C26.2495 34.5828 26.0922 34.7686 25.8763 34.8265C25.6587 34.8848 25.4279 34.8008 25.2987 34.6163L22.567 30.7161C22.4266 30.5158 22.5281 30.2369 22.7644 30.1735C22.9091 30.1348 23.0624 30.1917 23.1468 30.3154L25.3555 33.5548C25.4417 33.6812 25.5262 33.8117 25.6007 33.9452C25.6416 34.0215 25.6786 34.0997 25.7115 34.1797C25.6686 34.0197 25.686 33.8493 25.7067 33.685C25.707 33.6832 25.7072 33.6813 25.7074 33.6795L26.0379 29.5359C26.0496 29.3892 26.1523 29.2657 26.2945 29.2277Z" fill="white"/>
<path d="M31.6475 32.9685C31.6905 33.1291 31.5952 33.2941 31.4347 33.3371L30.3401 33.6304C29.575 33.8354 28.7886 33.3814 28.5836 32.6163L27.9423 30.223C27.7439 29.4826 28.1833 28.7215 28.9237 28.5232L29.9768 28.241C30.1356 28.1984 30.2988 28.2927 30.3414 28.4515C30.3839 28.6103 30.2897 28.7736 30.1309 28.8161L29.2195 29.0603C28.764 29.1824 28.4937 29.6506 28.6157 30.1061C28.7378 30.5616 29.206 30.8319 29.6615 30.7098L30.3973 30.5127C30.5579 30.4697 30.7229 30.5649 30.7659 30.7255C30.809 30.8861 30.7137 31.0511 30.5531 31.0941L29.8584 31.2803C29.3802 31.4084 29.0964 31.8999 29.2245 32.3781C29.3527 32.8563 29.8442 33.1401 30.3224 33.012L31.2789 32.7557C31.4394 32.7127 31.6045 32.8079 31.6475 32.9685Z" fill="white"/>
<path d="M62.68 23.8545C62.7808 23.979 62.7669 24.1618 62.6392 24.2585C62.4978 24.3656 62.3484 24.4621 62.1922 24.547C61.9463 24.6707 61.6884 24.7693 61.4226 24.8413C61.0862 24.9528 60.7299 24.9916 60.3778 24.955C60.0258 24.9185 59.6861 24.8075 59.3817 24.6295C58.7862 24.2261 58.3747 23.607 58.2352 22.9045C58.1184 22.542 58.0753 22.1598 58.1086 21.78C58.1419 21.4001 58.2509 21.0302 58.4292 20.6917C58.6111 20.3748 58.8574 20.0987 59.1524 19.8808C59.4475 19.663 59.7848 19.5082 60.1428 19.4265C60.3806 19.362 60.6242 19.3217 60.87 19.3061C61.0033 19.3014 61.1365 19.3048 61.2691 19.3163C61.4357 19.3308 61.546 19.4886 61.519 19.6537C61.4914 19.8216 61.3322 19.933 61.1622 19.9252C61.0658 19.9207 60.9691 19.9219 60.8726 19.9286C60.6711 19.9409 60.4713 19.974 60.2764 20.0274C60.0086 20.0864 59.7565 20.2018 59.5371 20.3657C59.3178 20.5297 59.1364 20.7384 59.0053 20.9776C58.7459 21.5217 58.7112 22.1437 58.9085 22.7106C59.0264 23.2559 59.3481 23.7359 59.8091 24.0543C60.0312 24.1918 60.281 24.2795 60.5412 24.3116C60.8015 24.3436 61.0659 24.3191 61.3162 24.2398C61.5314 24.1837 61.7394 24.103 61.936 23.9992C62.0397 23.9411 62.1398 23.877 62.2359 23.8073C62.3749 23.7065 62.572 23.7211 62.68 23.8545Z" fill="white"/>
<path d="M65.8849 23.6456C65.5529 23.7523 65.2017 23.7858 64.856 23.7439C64.5103 23.702 64.1784 23.5856 63.8835 23.4029C63.2906 22.9971 62.8798 22.3791 62.7371 21.6779C62.5065 20.9622 62.56 20.1849 62.8868 19.5041C63.059 19.1904 63.298 18.9175 63.5872 18.7043C63.8763 18.4911 64.2086 18.3428 64.5608 18.2698C64.8852 18.169 65.2274 18.1392 65.5639 18.1824C65.9003 18.2256 66.2229 18.3407 66.5094 18.5199C67.0999 18.928 67.5099 19.545 67.6558 20.2448C67.89 20.9621 67.837 21.7425 67.5079 22.425C67.3413 22.7318 67.1101 22.9996 66.83 23.2103C66.5499 23.421 66.2275 23.5694 65.8849 23.6456ZM65.7274 23.0578C65.9779 23.0038 66.2134 22.8953 66.4168 22.74C66.6202 22.5848 66.7864 22.3867 66.9032 22.1602C67.13 21.6359 67.1552 21.0483 66.9739 20.5088C66.8617 19.9422 66.5487 19.4351 66.0913 19.0789C65.885 18.942 65.6501 18.8529 65.404 18.818C65.1578 18.7831 64.9066 18.8035 64.6689 18.8775C64.425 18.9381 64.1977 19.0519 64.0034 19.2106C63.8092 19.3693 63.653 19.5689 63.5462 19.7948C63.3128 20.3138 63.2796 20.8989 63.453 21.4387C63.5709 21.9912 63.8871 22.4817 64.3429 22.8192C64.5408 22.9585 64.7677 23.0522 65.0072 23.0934C65.2467 23.1347 65.4927 23.1226 65.7274 23.0578Z" fill="white"/>
<path d="M72.7391 19.4517C72.9433 20.0314 72.9234 20.6665 72.6832 21.2347C72.5392 21.4813 72.3431 21.6943 72.1085 21.859C72.0981 21.8662 72.0878 21.8733 72.0773 21.8804C71.6248 22.1852 71.06 22.3353 70.5165 22.288C70.2435 22.2642 69.979 22.1831 69.7406 22.0502C69.2666 21.6902 68.9442 21.1688 68.8351 20.5859L68.0739 17.7451C68.0266 17.5688 68.1313 17.3876 68.3075 17.3403C68.4838 17.2931 68.665 17.3977 68.7123 17.574L69.4599 20.3643C69.5455 20.7954 69.7848 21.1808 70.1341 21.4503C70.2945 21.5522 70.4764 21.6166 70.666 21.6386C71.0433 21.6822 71.4453 21.5804 71.7503 21.3539C71.9041 21.2397 72.0284 21.091 72.1131 20.92C72.2641 20.5285 72.2698 20.0971 72.1291 19.7032L71.3678 16.8621C71.3207 16.686 71.4252 16.505 71.6013 16.4578C71.7776 16.4105 71.9589 16.5154 72.0057 16.6919L72.7391 19.4517Z" fill="white"/>
<path d="M77.974 19.7649C78.1692 19.9528 78.0844 20.2819 77.8226 20.352C77.7049 20.3836 77.5792 20.3513 77.4913 20.2668L76.3706 19.1899C76.2106 19.0195 76.0201 18.88 75.8087 18.7783C75.6599 18.7294 75.4992 18.7274 75.3488 18.7728C75.0279 18.8588 74.8376 19.1885 74.9235 19.5094L75.2429 20.7012C75.2901 20.8775 75.1855 21.0587 75.0092 21.1059C74.8329 21.1531 74.6517 21.0485 74.6045 20.8722L73.729 17.6048C73.4947 16.7305 74.0136 15.8317 74.888 15.5974C75.3003 15.47 75.7435 15.485 76.1446 15.64C76.3353 15.7262 76.5022 15.8563 76.6316 16.0196C76.7611 16.1828 76.8492 16.3745 76.8888 16.5786C76.9882 16.9034 76.9706 17.2529 76.839 17.5674C76.7576 17.76 76.6404 17.9344 76.4945 18.082C76.3921 18.1857 76.4242 18.3946 76.5523 18.4639C76.6863 18.5403 76.8085 18.6352 76.9153 18.7459L77.974 19.7649ZM74.9161 16.2131C74.4648 16.334 74.197 16.7979 74.3179 17.2492L74.3915 17.5237C74.5105 17.9679 74.9671 18.2316 75.4113 18.1125C75.5499 18.0802 75.6807 18.0206 75.7959 17.9374C75.9111 17.8541 76.0084 17.7489 76.082 17.628C76.1547 17.5055 76.2007 17.3694 76.2172 17.2285C76.2336 17.0876 76.2201 16.945 76.1776 16.8099C76.1488 16.6916 76.0956 16.5807 76.0214 16.484C75.9473 16.3873 75.8537 16.307 75.7465 16.248C75.4849 16.1314 75.1877 16.1189 74.9161 16.2131Z" fill="white"/>
<path d="M78.9856 19.7676C78.8241 19.7287 78.7392 19.5574 78.7894 19.399C78.8416 19.2345 79.019 19.1472 79.1874 19.1845C79.3255 19.215 79.466 19.2349 79.6076 19.2438C79.8643 19.246 80.12 19.2117 80.3672 19.1419C80.6421 19.0801 80.8903 18.9328 81.0757 18.7217C81.1549 18.6226 81.2083 18.5056 81.2311 18.3813C81.2539 18.2571 81.2454 18.1293 81.2064 18.0093C81.1805 17.8984 81.1309 17.7945 81.0607 17.7045C80.9906 17.6146 80.9016 17.5409 80.7999 17.4883C80.4983 17.3685 80.1772 17.3031 79.8519 17.2952C79.4137 17.2857 78.983 17.1841 78.5883 16.9971C78.4384 16.9149 78.3079 16.8022 78.2054 16.6662C78.1029 16.5302 78.0308 16.374 77.9937 16.2081C77.9352 16.0133 77.9218 15.8078 77.9543 15.6068C77.9869 15.4057 78.0648 15.2143 78.182 15.0467C78.4545 14.6752 78.8552 14.4159 79.3074 14.3184C79.5437 14.2539 79.7869 14.2183 80.0316 14.2124C80.1822 14.2109 80.3326 14.2182 80.482 14.2345C80.6513 14.2528 80.7595 14.4174 80.7239 14.5839C80.6892 14.7464 80.5304 14.8493 80.3651 14.832C80.2557 14.8205 80.1457 14.8146 80.0355 14.8142C79.8196 14.8189 79.6049 14.8492 79.396 14.9043C79.1341 14.9603 78.8995 15.1046 78.7322 15.3125C78.6619 15.4059 78.6152 15.5146 78.5959 15.6294C78.5767 15.7441 78.5854 15.8617 78.6215 15.9721C78.6446 16.0722 78.6911 16.1654 78.7574 16.2442C78.8237 16.3229 78.9078 16.385 79.003 16.4253C79.3008 16.5349 79.6151 16.5949 79.9332 16.6029C80.3879 16.6155 80.8336 16.7274 81.2388 16.9304C81.3912 17.0261 81.5226 17.1511 81.6254 17.298C81.7282 17.4449 81.8003 17.6108 81.8376 17.786C81.8959 17.9846 81.9099 18.1936 81.8785 18.3985C81.8472 18.6034 81.7713 18.7993 81.6561 18.9726C81.3787 19.3635 80.9632 19.6369 80.4928 19.7382C80.1999 19.8205 79.8963 19.8585 79.5924 19.8507C79.3875 19.8433 79.1842 19.8154 78.9856 19.7676Z" fill="white"/>
<path d="M86.0391 17.8388C86.0822 17.9994 85.9869 18.1644 85.8263 18.2075L84.7158 18.505C83.9419 18.7124 83.1464 18.2531 82.9391 17.4792L82.2894 15.0545C82.0905 14.3124 82.5309 13.5495 83.2731 13.3506L84.3262 13.0685C84.4867 13.0255 84.6518 13.1207 84.6948 13.2813C84.7378 13.4419 84.6425 13.6069 84.482 13.6499L83.5833 13.8907C83.1225 14.0142 82.8491 14.4878 82.9726 14.9485C83.096 15.4092 83.5696 15.6827 84.0303 15.5592L84.7758 15.3595C84.9364 15.3164 85.1014 15.4117 85.1444 15.5723C85.1875 15.7328 85.0922 15.8979 84.9316 15.9409L84.2304 16.1288C83.7452 16.2588 83.4573 16.7575 83.5873 17.2427C83.7173 17.7278 84.216 18.0158 84.7011 17.8858L85.6705 17.626C85.8311 17.583 85.9961 17.6783 86.0391 17.8388Z" fill="white"/>
<path d="M43.7421 24.5805C41.826 24.188 40.1668 25.9494 40.673 27.8387C41.1997 29.8044 43.6633 30.4534 45.0901 29.0022C46.5523 27.515 45.7853 24.999 43.7421 24.5805Z" fill="white"/>
</svg>
