<svg width="75" height="54" viewBox="0 0 75 54" fill="none" xmlns="http://www.w3.org/2000/svg">
<path d="M62.84 30.2964C61.9459 29.765 60.8121 29.9671 59.4791 30.964C58.465 31.6827 57.606 32.5981 56.9531 33.6557C56.5931 34.2508 56.2962 34.8819 56.0671 35.5386C55.7802 36.3769 55.6484 37.2605 55.6783 38.1461C55.7049 39.334 56.034 40.092 56.6299 40.4539C57.0201 40.6366 57.448 40.7247 57.8786 40.711C58.3093 40.6973 58.7307 40.5823 59.1085 40.3752C60.5778 39.6974 61.7891 38.5635 62.5623 37.1422C62.9186 36.5235 63.2083 35.8688 63.4266 35.189C63.7171 34.3516 63.849 33.4673 63.8154 32.5815C63.7675 31.4094 63.4385 30.6515 62.84 30.2964Z" fill="white"/>
<path d="M47.0081 26.5697C46.9929 25.3937 46.6569 24.6333 46.0654 24.2807C45.1643 23.7468 44.0374 23.9514 42.7044 24.9483C41.674 25.6537 40.7968 26.5601 40.1256 27.6132C39.7656 28.2084 39.4687 28.8394 39.2396 29.4962C38.9491 30.3336 38.8172 31.2179 38.8508 32.1036C38.8774 33.2916 39.2065 34.0495 39.8024 34.4115C40.1916 34.5938 40.6184 34.6815 41.048 34.6674C41.4776 34.6532 41.8977 34.5377 42.2741 34.3302C43.7452 33.6551 44.9572 32.5206 45.7279 31.0972C46.1117 30.4954 46.4175 29.8472 46.6381 29.1683C46.9176 28.3316 47.0429 27.4512 47.0081 26.5697Z" fill="white"/>
<path d="M70.4861 20.5523L16.9123 1.33976C16.1078 1.05127 15.2544 0.924402 14.4008 0.966441C13.5472 1.00848 12.7103 1.2186 11.9381 1.58474C11.1659 1.95089 10.4736 2.46586 9.90082 3.10013C9.32805 3.7344 8.88612 4.47549 8.60036 5.28091L1.26546 25.7341C0.975502 26.5398 0.847194 27.3947 0.88787 28.25C0.928545 29.1053 1.13741 29.9442 1.50251 30.7187C1.86762 31.4933 2.38181 32.1882 3.01569 32.7639C3.64956 33.3396 4.39069 33.7846 5.19669 34.0737L29.4709 42.7789C30.1982 43.0397 30.8469 43.482 31.3554 44.0637L36.6565 50.1286C37.7193 51.3445 39.7198 50.544 39.6504 48.9306C39.5983 47.7178 40.7919 46.8388 41.9346 47.2486L58.7498 53.2788C59.556 53.569 60.4116 53.6973 61.2675 53.6563C62.1234 53.6154 62.9628 53.406 63.7377 53.0402C64.5126 52.6744 65.2077 52.1593 65.7832 51.5245C66.3588 50.8897 66.8035 50.1476 67.0918 49.3407L74.4267 28.8875C74.7158 28.0815 74.8431 27.2264 74.8015 26.3712C74.7598 25.5159 74.55 24.6772 74.1841 23.9031C73.8181 23.129 73.3031 22.4346 72.6686 21.8597C72.034 21.2847 71.2924 20.8405 70.4861 20.5523ZM28.4446 35.7698C28.2956 36.3988 27.9708 36.9725 27.5081 37.4239C27.2841 37.6429 27.0075 37.8007 26.705 37.8821C26.4025 37.9636 26.0842 37.966 25.7805 37.8891C25.3742 37.7494 25.0047 37.5196 24.6997 37.217C24.3947 36.9144 24.1621 36.5467 24.0192 36.1415C23.424 34.8391 22.9649 33.3824 22.6444 31.7715C22.0008 28.5365 17.8819 26.6302 15.5223 28.9349C12.8613 31.3935 10.959 32.462 9.81536 32.1403C9.06949 31.9352 8.67479 31.0991 8.60359 29.6221C8.47871 25.6182 9.43353 18.3207 11.468 7.72961C11.5234 7.39744 11.6472 7.0804 11.8316 6.79859C12.0159 6.51677 12.2568 6.27632 12.539 6.09248C12.8314 5.90768 13.1618 5.79146 13.5056 5.75255C13.8493 5.71363 14.1974 5.75303 14.5237 5.86778C15.9463 6.25308 16.4763 7.1689 16.1645 8.62567C16.0327 9.28551 15.9057 9.93489 15.7834 10.5738C14.9016 15.1794 20.1736 17.9221 23.6287 14.7517C24.5256 13.9262 25.3898 13.6274 26.2117 13.8598C27.4144 14.2053 27.8652 15.2331 27.6021 16.9024C27.1746 19.4045 30.3535 20.2482 31.7773 18.1468C33.1159 16.1714 34.4115 14.6315 35.6643 13.5272C35.9422 13.2437 36.2916 13.0405 36.6754 12.9392C37.0593 12.8378 37.4634 12.8421 37.8451 12.9515C38.4782 13.1125 39.0229 13.5152 39.3626 14.0731C39.5383 14.3379 39.6546 14.6375 39.7037 14.9514C39.7528 15.2654 39.7333 15.5862 39.6468 15.8919C39.5231 16.3506 39.2693 16.7637 38.9159 17.0813C37.1869 18.6385 35.169 21.567 32.8514 25.8318C31.045 28.9843 29.5683 32.3145 28.4446 35.7698ZM46.3812 37.4575C43.8174 39.5581 41.2506 40.1438 38.6508 39.2114C38.1628 39.0353 37.6952 38.8074 37.2557 38.5316C36.4173 38.041 35.6983 37.3703 35.1506 36.568C34.603 35.7656 34.2404 34.8517 34.089 33.8921C33.7897 31.9534 34.0134 29.97 34.7369 28.1467C35.6607 25.4766 37.317 23.1202 39.5166 21.3469C42.1081 19.2562 44.6773 18.6636 47.2495 19.5861C47.7337 19.7649 48.1988 19.9918 48.6377 20.2633C49.4738 20.7567 50.191 21.4282 50.7383 22.2301C51.2856 23.0319 51.6496 23.9445 51.8044 24.9029C52.1283 26.8347 51.9188 28.8184 51.1985 30.6399C50.2577 33.3161 48.5895 35.677 46.3812 37.4575ZM67.9441 36.6062C67.018 39.2983 65.3541 41.6761 63.142 43.4682C60.5782 45.5689 58.0115 46.1545 55.4185 45.2246C54.9327 45.0496 54.4673 44.8225 54.0304 44.5474C53.1906 44.0584 52.4706 43.3881 51.9227 42.5855C51.3749 41.7828 51.0131 40.868 50.8637 39.9078C50.5512 37.9682 50.7629 35.9803 51.477 34.1501C52.4011 31.4801 54.0574 29.1238 56.2567 27.3502C58.8482 25.2595 61.4174 24.6669 63.9827 25.5869C64.467 25.7654 64.9321 25.9923 65.3708 26.2642C66.2069 26.7576 66.9241 27.429 67.4714 28.2309C68.0187 29.0328 68.3827 29.9453 68.5375 30.9037C68.8761 32.8351 68.6662 34.8227 67.9317 36.6407L67.9441 36.6062Z" fill="white"/>
</svg>
