<svg width="53" height="58" viewBox="0 0 53 58" fill="none" xmlns="http://www.w3.org/2000/svg">
<path d="M19.2791 0.329818C19.0903 0.36947 19.0421 0.596534 19.0625 0.78843C19.1027 1.16671 19.1817 1.54013 19.2983 1.90277C19.7277 3.50507 19.6928 3.58662 18.2382 4.10531C16.3507 4.84717 14.5391 5.76951 12.8288 6.85951C10.8112 8.27053 8.93725 9.87646 7.23386 11.6541C2.69348 16.7566 0.129913 23.3161 0.00721341 30.1451C-0.04243 32.5804 0.274609 35.0094 0.947686 37.3504C2.295 42.3786 4.23998 45.942 7.73522 49.5747C9.49483 51.3741 11.4956 52.9208 13.6803 54.1703C15.1234 55.0352 16.6588 55.7361 18.2576 56.2599C20.1138 56.867 22.0264 57.2858 23.9664 57.51C27.5369 57.8955 31.1485 57.5356 34.5727 56.453C37.9968 55.3704 41.159 53.5886 43.8588 51.2206C44.8272 50.3305 45.7412 49.3833 46.5958 48.3841C46.9404 47.9812 47.2575 47.5506 47.5794 47.1293C48.7406 45.6888 50.3213 42.5422 51.2813 39.7734C52.4543 36.4525 52.7032 31.2802 51.9107 27.8412L51.7894 27.3171C51.7652 27.2127 51.6104 27.2353 51.6171 27.3423C51.6583 27.9192 51.7408 28.8047 51.788 29.3078C51.9767 31.4749 51.4183 35.4924 50.6119 37.8332C49.2579 42.0124 46.75 45.7237 43.3775 48.5389C39.4958 51.7944 34.6407 53.6651 29.5781 53.8558C24.0726 54.0534 18.6884 52.2081 14.4615 48.6749C13.1259 47.4513 11.9034 46.1098 10.8089 44.6666C8.76985 41.7001 7.47938 38.284 7.04775 34.7102C6.65852 30.9933 7.28535 27.2405 8.86141 23.8519C10.4375 20.4633 12.9036 17.566 15.997 15.4689C17.4496 14.5421 19.0013 13.7804 20.623 13.1979C20.6294 13.1957 20.6357 13.1936 20.6421 13.1914C21.6454 12.8505 22.4535 13.4876 22.7235 14.5123C23.2354 16.2111 23.2595 16.2047 25.0579 13.7166C25.1428 13.5907 26.3516 11.9621 27.7423 10.0887C29.133 8.21531 30.3205 6.54593 30.3653 6.40501C30.4186 6.14397 30.4116 5.8742 30.3447 5.6163C30.3174 5.44429 30.2484 5.2816 30.1437 5.14243C30.039 5.00327 29.9018 4.89189 29.7441 4.81802C28.6514 4.22376 19.4379 0.287272 19.2791 0.329818Z" fill="white"/>
<path d="M9.88064 27.845C8.81076 28.6062 8.78742 28.9425 9.52876 31.7092C10.2056 34.2354 10.4446 34.6458 11.3562 34.8915C12.1946 35.0108 13.0471 34.8063 13.7403 34.3197C14.3791 33.7205 14.4698 33.3661 14.223 32.2719L14.203 32.1772C14.0983 31.6823 13.5999 31.3765 13.1112 31.5074L12.9181 31.5592C12.554 31.6567 12.338 32.0309 12.4355 32.395C12.6573 33.2226 12.6294 33.5034 12.3118 33.5885C12.0712 33.653 12.0207 33.5221 11.4121 31.251C10.8539 29.1675 10.7915 28.8387 10.9547 28.697C11.2448 28.4903 11.4887 28.7653 11.7363 29.6892C11.8609 30.1542 12.3389 30.4302 12.804 30.3056L12.8304 30.2985C13.3101 30.17 13.5947 29.6769 13.4662 29.1973L13.4617 29.1804C13.1819 28.1363 12.7802 27.5993 12.1308 27.4278C11.355 27.2766 10.5507 27.4258 9.88064 27.845Z" fill="white"/>
<path d="M14.9726 26.4084C13.8132 27.1626 13.7754 27.5028 14.5568 30.4187C15.1692 32.7043 15.1872 32.7716 15.6482 33.1638C16.1926 33.6368 16.7835 33.7054 17.7458 33.4476C18.1066 33.379 18.4397 33.2073 18.7048 32.9531C18.9699 32.699 19.1556 32.3735 19.2394 32.0159C19.3384 31.5768 19.2544 31.1094 18.7425 29.1991C18.161 27.0291 18.1224 26.8847 17.7045 26.5377C17.4527 26.323 17.1555 26.1681 16.8353 26.0847C16.1959 26.0005 15.5461 26.1135 14.9726 26.4084ZM16.8325 29.6542C17.5518 32.1845 17.5816 32.4498 17.2053 32.2773C17.0104 32.1851 16.8485 31.754 16.3753 29.9881C15.7771 27.7555 15.7153 27.3131 16.0105 27.3371C16.1084 27.3367 16.3833 28.0933 16.8325 29.6542Z" fill="white"/>
<path d="M33.8 21.3791C33.5819 21.5204 33.395 21.7047 33.2507 21.9207C33.1064 22.1367 33.0077 22.3799 32.9607 22.6354C32.8484 23.14 33.9135 27.2692 34.297 27.7956C35.0086 28.7962 36.461 28.866 37.0327 27.9393C37.2153 27.6583 37.2643 27.6297 37.3794 27.7896C37.4945 27.9496 37.7008 27.9305 38.105 27.8222C38.4292 27.7353 38.6216 27.402 38.5347 27.0778L37.9764 24.9944C37.8176 24.4017 37.2085 24.0501 36.6159 24.2088L36.077 24.3533C35.782 24.4323 35.607 24.7355 35.686 25.0305C35.793 25.4298 35.8868 25.5491 36.0456 25.5065C36.2044 25.464 36.2896 25.5701 36.4056 26.2146C36.544 27.0365 35.918 26.8052 35.6804 26.0063C35.5569 25.591 35.4476 25.1715 35.3526 24.7485C34.8544 22.716 34.7753 22.3246 34.9485 22.2782C35.1217 22.2317 35.2153 22.4078 35.3941 22.9788C35.5349 23.4069 35.9855 23.6506 36.4209 23.5339L36.8672 23.4144C37.2179 23.3204 37.4261 22.9598 37.3321 22.609C37.2556 22.252 37.0886 21.9207 36.8472 21.6467C36.368 21.1028 35.5856 20.9289 34.8687 21.0363C34.4986 21.0918 34.1375 21.2068 33.8 21.3791Z" fill="white"/>
<path d="M38.9417 21.3216C39.1984 22.0677 40.1652 25.0216 41.1014 27.8805L42.2501 31.4118C42.5595 32.3632 43.5501 32.9153 44.522 32.6781C46.0791 32.2918 46.2206 32.223 46.1664 32.0209C46.1303 31.8862 45.6666 29.6742 45.135 27.0937C44.6034 24.5131 43.9703 21.573 43.7512 20.5435C43.5337 19.5328 42.5145 18.91 41.5158 19.1776L39.8512 19.6236C39.1147 19.821 38.6979 20.5992 38.9417 21.3216Z" fill="white"/>
<path d="M19.5499 28.9983L20.2834 31.7356C20.4024 32.1797 20.8589 32.4432 21.303 32.3242C21.741 32.2069 22.0045 31.7606 21.8957 31.3204L21.6027 30.1346L21.5499 29.9186C21.5074 29.7449 21.7552 29.6629 21.8247 29.8276C22.7885 32.0964 22.7033 31.9903 23.3422 31.7572C23.6643 31.656 23.8674 31.3385 23.8243 31.0037L23.6222 29.4336L23.3613 27.286L24.2741 30.6927C24.393 31.1364 24.8492 31.3998 25.293 31.2809C25.7368 31.162 26.0001 30.7058 25.8812 30.262L24.4993 25.1047C24.3288 24.4682 23.6639 24.1007 23.0343 24.2947C22.3583 24.4997 21.9268 25.1602 22.0106 25.8616L22.0485 26.1782C22.1278 27.0131 22.1947 27.6862 22.1687 27.6468C22.1426 27.6073 21.8483 26.99 21.5269 26.2716L21.421 26.0288C21.1415 25.3882 20.4446 25.0383 19.7639 25.1968C19.1153 25.3453 18.7217 26.0051 18.8991 26.6464L19.5499 28.9983Z" fill="white"/>
<path d="M26.6669 29.8839C26.8054 30.4008 27.3367 30.7075 27.8536 30.569C28.3705 30.4305 28.6772 29.8992 28.5387 29.3824L27.1411 24.1664C27.0026 23.6496 26.4713 23.3428 25.9544 23.4813C25.4376 23.6198 25.1308 24.1511 25.2693 24.668L26.6669 29.8839Z" fill="white"/>
<path d="M28.6441 26.5615L29.3958 29.3667C29.5047 29.7733 29.9226 30.0146 30.3292 29.9057L30.6577 29.8176C30.8829 29.7573 31.0165 29.5259 30.9562 29.3007L30.6808 28.273C30.6055 27.9918 30.984 27.824 31.1417 28.0686L31.6621 28.8803C31.8799 29.2199 32.2924 29.3796 32.6821 29.2752C33.1764 29.1428 33.4697 28.6346 33.3373 28.1403L31.8714 22.6695C31.7646 22.2709 31.3548 22.0343 30.9562 22.1411L30.6516 22.2227C30.4212 22.2845 30.2845 22.5212 30.3462 22.7516L30.6454 23.868C30.7209 24.1498 30.3403 24.3169 30.1839 24.0705L29.6861 23.3135C29.43 22.924 28.9611 22.7315 28.5052 22.8288C28.0821 22.9169 27.8182 23.3404 27.9255 23.759L28.6441 26.5615Z" fill="white"/>
<path d="M12.5448 35.8055C12.2337 35.9688 11.9601 36.1953 11.7417 36.4706C11.3074 37.0177 11.2128 37.7641 11.3529 38.4484C11.3899 38.6291 11.4392 38.807 11.5002 38.9809C11.7631 39.7296 12.3017 40.3922 13.0379 40.6883C13.2108 40.7579 13.3909 40.811 13.5758 40.8464L15.2668 41.3834C15.9082 41.5829 16.093 41.7912 16.3005 42.5659C16.4514 43.1289 16.2654 43.4933 15.8395 43.463C15.5953 43.4563 15.5037 43.3261 15.2737 42.5832C15.1234 42.0871 14.6134 41.7933 14.1088 41.9121L13.7354 42.0001L13.643 42.0214C13.0152 42.1664 12.6415 42.8127 12.829 43.4291L12.9479 43.7968C13.1032 44.2769 13.4362 44.6794 13.8788 44.9219C14.7444 45.3128 15.7272 45.356 16.6238 45.0425C17.4129 44.831 18.6717 44.0244 18.8935 43.5627C19.22 42.8564 19.0466 41.4588 18.4608 40.4657C18.074 39.8113 17.0667 39.2663 15.5645 38.8953C14.4119 38.6162 14.0464 38.3686 13.8853 37.7671C13.7744 37.3533 14.0143 36.959 14.3563 36.9653C14.6984 36.9716 14.704 37.0887 14.8549 37.6517C14.9517 38.0131 15.3232 38.2276 15.6846 38.1308L16.6494 37.8722C17.1709 37.7325 17.4647 37.18 17.2889 36.6695C17.1701 36.333 17.0636 36.081 16.9402 35.8872C16.4181 35.067 15.2081 35.1212 14.2488 35.2802C13.6619 35.3774 13.0886 35.5536 12.5448 35.8055Z" fill="white"/>
<path d="M19.8731 33.8419C19.3114 34.1916 18.8695 34.7039 18.6061 35.3109C18.3886 35.8849 18.7262 37.8573 19.4893 40.2623C20.205 42.5099 20.5033 42.9302 21.6492 43.2421C22.2684 43.4165 22.4821 43.4057 23.6177 43.1014C25.0997 42.7043 25.6296 42.3147 26.0661 41.3262C26.2431 40.9147 26.2764 40.4555 26.1604 40.0228L24.765 34.8149C24.659 34.4194 24.424 34.0707 24.0972 33.8241C23.3383 33.2435 22.5022 33.1065 21.2986 33.3878C20.8085 33.4876 20.3306 33.6399 19.8731 33.8419ZM22.6947 38.1554C23.4334 40.9125 23.5482 41.3408 23.393 41.4546C23.3305 41.4959 23.2583 41.52 23.1835 41.5247C23.1087 41.5293 23.034 41.5143 22.9669 41.4811C22.772 41.3889 22.5856 40.8664 21.9268 38.4076C21.1094 35.357 21.082 35.0239 21.5915 35.0008C21.7751 34.9929 21.9242 35.4532 22.6947 38.1554Z" fill="white"/>
<path d="M27.4034 31.8242C26.8534 32.1193 26.4053 32.5738 26.1179 33.1279C25.8044 33.8823 25.8896 34.566 26.7406 37.5303L27.368 39.751C27.4794 40.1454 27.7169 40.4926 28.044 40.7395C28.4004 40.9996 28.8085 41.1801 29.2407 41.2689C29.6728 41.3578 30.119 41.3528 30.5491 41.2544C32.1847 41.007 33.333 40.0959 33.622 38.8839C33.7938 38.1778 32.3095 32.6963 31.817 32.1475C30.8431 31.0727 29.0042 30.9466 27.4034 31.8242ZM29.2048 33.1001C29.3573 33.1882 29.6263 34.0186 30.1858 36.1069C30.9994 39.1431 31.0401 39.6221 30.4797 39.5712C30.2702 39.5396 30.1533 39.1996 29.4042 36.404C28.5803 33.3293 28.5404 33.1802 28.94 33.0164C28.989 32.9878 29.1033 33.0293 29.2048 33.1001Z" fill="white"/>
<path d="M32.9272 30.5555C32.9203 30.6451 33.4718 32.7613 34.1567 35.2595L35.1445 38.8104C35.2979 39.3617 35.857 39.6956 36.4151 39.5692C37.1147 39.4699 37.4688 38.7345 37.3202 38.0437C37.2527 37.7301 37.1716 37.4193 37.0771 37.1123C36.4827 34.8941 36.4827 34.8941 38.101 37.3537L38.4869 37.9498C38.8233 38.4695 39.4564 38.713 40.0544 38.5528C40.8158 38.3488 41.2677 37.5661 41.0636 36.8047L39.2092 29.8838C39.0501 29.2902 38.4495 28.9293 37.8507 29.0676C37.2216 29.2128 36.8383 29.8507 37.0054 30.4743L37.2154 31.258C37.5719 32.3561 37.0668 32.5907 36.4251 31.631C36.2513 31.371 36.0526 31.0716 35.8253 30.7279L35.6085 30.4006C35.3862 30.065 34.9918 29.8858 34.5928 29.9391C33.6308 30.1401 32.9482 30.3643 32.9272 30.5555Z" fill="white"/>
<path d="M43.1575 35.7848C43.4149 36.7454 44.4024 37.3155 45.363 37.0581L46.027 36.8802C46.9877 36.6228 47.5578 35.6354 47.3004 34.6747C47.043 33.714 46.0555 33.1439 45.0949 33.4013L44.4309 33.5793C43.4702 33.8367 42.9001 34.8241 43.1575 35.7848Z" fill="white"/>
</svg>
