<svg width="52" height="41" viewBox="0 0 52 41" fill="none" xmlns="http://www.w3.org/2000/svg">
<path d="M49.5668 24.3247C48.5374 23.6099 46.6759 23.2493 44.1502 23.168C42.0849 23.1035 40.0774 23.0382 39.7271 22.9512C38.6189 22.6989 36.7867 24.099 36.2666 25.5051C35.9844 26.2675 35.7477 28.9962 35.7313 31.6805C35.7614 36.3425 35.7751 36.5139 37.15 37.2547C39.1281 38.3495 47.7469 38.7361 49.1056 37.83C50.3584 37.0474 50.952 34.4395 51.0362 29.0861C51.1505 25.5048 51.075 25.2847 49.5668 24.3247ZM45.4397 31.3665L44.8391 32.0551C43.9002 33.1315 42.2712 33.2549 41.1808 32.3324C39.65 31.0906 39.3224 30.5649 39.8315 29.9377C40.3046 29.39 40.7134 29.4838 41.622 30.1354C42.7848 31.0694 42.8952 31.0031 44.6029 29.4443C46.4654 27.7007 46.9618 27.4923 47.4769 28.1907C47.6681 28.459 46.7478 29.8282 45.4397 31.3665Z" fill="white"/>
<path d="M18.3711 21.4771C17.4478 20.6427 16.5795 20.5436 12.6584 20.9114C5.33518 21.6705 2.13276 22.4368 1.265 23.7405C0.654973 24.6977 0.715238 26.1723 1.49185 31.3879C2.3355 37.6329 3.01208 39.6254 4.38606 40.3547C5.16647 40.8019 12.3348 40.2277 16.6144 39.3751C18.9686 38.9527 19.8443 38.4226 20.5524 37.2927C21.4182 35.9163 21.4168 35.1767 20.4762 29.1656C19.6696 24.1058 19.1789 22.267 18.3711 21.4771ZM9.30406 26.1857C9.2046 24.9442 9.45654 24.5254 10.3229 24.456C11.3464 24.374 11.5034 24.7447 11.7398 27.6961C11.8893 29.5622 12.2113 31.4145 12.4206 31.9075C12.7003 32.5098 12.4929 32.8101 11.6994 32.8736C10.8445 32.9421 10.4628 32.4629 10.0116 30.3949C9.69453 28.9408 9.3721 27.0349 9.30406 26.1857ZM11.9317 36.8334C10.7817 36.9256 10.251 35.8872 10.9818 34.9931C11.5612 34.3757 12.5719 34.8083 12.8221 35.8116C12.9904 36.4688 12.729 36.7696 11.9317 36.8334Z" fill="white"/>
<path d="M40.4649 21.4702C42.3432 21.3197 43.8049 20.9765 43.7777 20.6375C43.6466 18.9999 35.1163 3.24835 33.7585 2.04632C32.8943 1.27323 31.8458 0.731964 30.712 0.473639C28.6287 0.184434 12.0622 8.46042 10.5089 10.5012C9.16045 12.2574 9.18185 14.6435 10.4363 17.4444C11.2015 19.1462 11.4365 19.2385 13.9972 19.0334C17.2977 18.769 19.2977 19.4634 20.2981 21.2115C20.6981 21.9192 21.4174 25.2153 21.9055 28.4187C22.3365 31.6804 22.957 34.4171 23.1969 34.5703C23.4978 34.7149 25.9823 33.6075 28.7943 32.2055L31.319 30.9315C32.9538 30.1066 34.0922 28.5459 34.3785 26.7372C35.0302 22.9289 36.3134 21.8028 40.4649 21.4702ZM30.5574 27.1008C28.2818 28.0229 26.3799 24.9902 28.3893 23.6334C28.6969 23.4407 29.0502 23.3319 29.4135 23.318C29.7767 23.3041 30.1372 23.3855 30.4585 23.554C30.7798 23.7226 31.0507 23.9723 31.2438 24.2781C31.627 24.8848 31.7322 25.7065 31.3987 26.3418C31.3929 26.3529 31.3869 26.3639 31.3808 26.3749C31.1985 26.7037 30.9077 26.9601 30.5574 27.1008ZM30.3773 17.725C29.1156 18.3971 28.8061 18.8205 29.0955 19.5907C29.4426 20.3601 29.1377 20.8407 28.077 21.3243C25.9252 22.3475 25.6902 22.2552 25.1411 20.4096C24.4419 18.1353 24.8604 16.9059 26.6865 15.6213C27.8857 14.843 28.1817 14.2521 27.8836 13.4212C27.0642 11.0416 26.0272 10.956 22.171 12.8555L19.9378 13.9579C19.199 14.3226 18.3047 14.0111 17.9525 13.2663C17.9088 13.1757 17.8666 13.0844 17.8258 12.9926C17.3825 11.9933 17.6594 11.033 18.5966 10.4703C19.3616 10.0109 20.4025 9.44528 21.552 8.88452C23.863 7.72969 26.0768 6.75895 26.3605 6.73623C27.716 6.51265 29.5717 8.29571 31.0071 11.1396C32.836 14.8029 32.6889 16.5778 30.3773 17.725Z" fill="white"/>
</svg>
