<svg width="46" height="37" viewBox="0 0 46 37" fill="none" xmlns="http://www.w3.org/2000/svg">
<path d="M35.7303 1.92356C36.6744 2.45673 37.4814 3.20244 38.0873 4.10159C38.5941 4.87157 38.8883 5.76188 38.9401 6.68225C38.9823 7.99783 38.5305 9.28157 37.6735 10.2806C37.0448 11.0111 36.4138 11.7346 35.7847 12.4639C35.6879 12.5762 35.7161 12.7494 35.8414 12.8286C35.9411 12.8916 36.04 12.9552 36.1381 13.0151C36.1486 13.0216 36.149 13.0372 36.1406 13.0463C36.1343 13.0532 36.1366 13.0639 36.1445 13.069L37.4414 13.8958C37.7638 14.0689 38.0611 14.2853 38.3249 14.5388C38.5274 14.7428 38.6757 14.9942 38.7563 15.2701C38.8368 15.546 38.8472 15.8376 38.7863 16.1185C38.7321 16.3449 38.6226 16.5544 38.4675 16.7281C38.1888 17.076 37.9061 17.4279 37.624 17.7792C37.3974 18.0614 37.01 18.1565 36.6786 18.0111C36.4559 17.9133 36.2326 17.8157 36.0096 17.7202C35.7743 17.6194 35.7193 17.2956 35.8268 17.0633C35.9047 16.8949 35.9471 16.7123 35.9512 16.5268C35.9499 16.1435 35.8018 15.7753 35.5374 15.4978C35.2558 15.2089 34.887 15.0207 34.4879 14.9621C34.0887 14.9035 33.6814 14.9778 33.3286 15.1735C33.1284 15.2897 32.9598 15.4531 32.8374 15.6495C32.6573 15.9388 32.3024 16.1689 31.9862 16.0417C31.2748 15.7553 30.5622 15.4717 29.8448 15.1934C29.5095 15.0633 29.4312 14.5952 29.5856 14.2703C29.7023 14.0249 29.7622 13.7565 29.761 13.4848C29.7513 13.2104 29.6769 12.9423 29.5437 12.7022C29.4106 12.4622 29.2225 12.257 28.9949 12.1036C28.5905 11.8371 28.1132 11.7031 27.6293 11.7202C27.1453 11.7372 26.6787 11.9044 26.294 12.1986C26.0809 12.3612 25.9052 12.5676 25.7788 12.804C25.5892 13.1585 25.1849 13.4366 24.8051 13.305C24.1269 13.0701 23.4463 12.8381 22.7618 12.6053C22.0367 12.3587 21.9026 11.1496 22.2231 10.454C22.3386 10.1983 22.3983 9.92091 22.3983 9.64035C22.3983 9.35979 22.3386 9.08244 22.2231 8.82673C22.0855 8.55752 21.8913 8.32122 21.6539 8.13399C21.4165 7.94676 21.1414 7.81302 20.8475 7.74191C20.2147 7.58335 19.5487 7.61941 18.9366 7.84538C18.3246 8.07134 17.7949 8.4767 17.4169 9.00847C17.238 9.25554 17.1144 9.53828 17.0546 9.83741C17.0297 9.96167 17.0161 10.0876 17.0137 10.2135C17.0092 10.4508 16.7869 10.6581 16.5593 10.5908C16.5347 10.5835 16.5111 10.5731 16.4888 10.5602C16.1961 10.3907 15.8797 10.2687 15.5516 10.1975C15.1333 10.1067 14.7097 10.0238 14.2938 9.92274C13.4045 9.65736 13.1528 8.53298 13.858 7.92955C15.4515 6.56592 17.0444 5.20002 18.6387 3.83877C18.9327 3.58232 19.2933 3.41442 19.6788 3.35454C20.0643 3.29467 20.4589 3.34526 20.8168 3.50046C21.2826 3.77245 21.7356 4.06778 22.198 4.34398C22.2332 4.36504 22.2712 4.3813 22.3098 4.39509C22.5452 4.47899 22.8214 4.47773 23.0068 4.31024C23.5526 3.81721 24.1003 3.32486 24.65 2.82664C25.497 2.07605 26.487 1.50448 27.5606 1.14628C28.9687 0.687354 30.4581 0.53203 31.9306 0.690545C33.2656 0.849152 34.5566 1.26806 35.7303 1.92356ZM33.913 3.60112C32.89 2.9691 31.7003 2.66022 30.4991 2.71481C29.364 2.74167 28.2599 3.0897 27.3145 3.71855C26.9879 3.9643 26.6786 4.23242 26.3891 4.52098C25.583 5.26765 25.7146 6.58479 26.6465 7.16684C27.845 7.91538 29.0435 8.6624 30.242 9.40789C31.6957 10.3122 33.5834 10.0472 34.7489 8.79318C35.1278 8.38967 35.4074 7.90334 35.5654 7.37284C35.7592 6.71641 35.7247 6.01363 35.4675 5.37934C35.1454 4.64026 34.6024 4.01906 33.913 3.60112Z" fill="white"/>
<path d="M36.9158 21.6126C39.7425 22.7002 42.5272 23.8689 45.2281 25.2054C39.8759 22.7068 34.1736 21.0398 28.3183 20.2621C25.4156 19.8512 22.4899 19.6242 19.5586 19.5827C12.9567 19.4802 6.37614 20.3584 0.0322304 22.1888C0.0267587 22.1903 0.0208599 22.1888 0.0168337 22.1848C0.0123287 22.1803 0.0110093 22.1735 0.0134943 22.1676C0.347207 21.3799 0.664035 20.5849 1.0003 19.8009C1.04144 19.705 1.13875 19.6482 1.24239 19.6358C7.0865 18.2698 13.0987 17.764 19.0889 18.1344C23.301 18.3898 27.4876 18.9665 31.6119 19.8595C31.7236 19.8838 31.8598 19.856 31.9691 19.8896C33.6327 20.4005 35.2808 20.9974 36.9158 21.6126Z" fill="white"/>
<path d="M34.9617 17.8361C35.3129 17.7106 35.7075 17.6231 36.0494 17.7722C36.6384 18.0291 36.8356 18.7823 36.4317 19.2821C36.4111 19.3076 36.3906 19.333 36.37 19.3584C36.1511 19.6285 35.7863 19.7313 35.4576 19.6181C35.1735 19.5202 34.9763 19.2709 34.8554 18.9959C34.7241 18.6971 34.5237 18.4311 34.268 18.2211C34.184 18.1504 34.269 17.9437 34.3788 17.9408C34.5229 17.9369 34.6667 17.9176 34.8077 17.8828C34.8598 17.8697 34.9112 17.8542 34.9617 17.8361Z" fill="white"/>
<path d="M32.544 16.2797C32.5958 16.3006 32.6295 16.3511 32.633 16.4069C32.643 16.5627 32.324 16.8102 32.1826 16.744C32.112 16.7109 32.04 16.6804 31.967 16.6526C31.5593 16.5067 31.1194 16.4751 30.6951 16.5614C30.2707 16.6476 29.8781 16.8484 29.5597 17.1419C29.4687 17.2328 29.3807 17.3276 29.2948 17.4239C29.0765 17.6685 28.7431 17.7774 28.4257 17.695L28.3693 17.6803C28.3651 17.6792 28.3608 17.6785 28.3565 17.6779C28.3135 17.6713 28.2834 17.6455 28.2566 17.6155C28.234 17.5901 28.2551 17.5477 28.2886 17.5535C28.3134 17.5578 28.337 17.5388 28.3357 17.5137C28.3096 17.0246 28.1436 16.5529 27.8569 16.1549C27.8429 16.1374 27.8287 16.1201 27.8144 16.103C27.6782 15.9397 27.8859 15.4244 28.0939 15.3806C28.7759 15.237 29.5029 15.0631 30.1507 15.3201C30.9493 15.637 31.7485 15.9589 32.544 16.2797Z" fill="white"/>
<path d="M25.469 13.5701C25.5313 13.5927 25.5721 13.6523 25.5759 13.7184C25.586 13.8928 25.2605 14.1318 25.1065 14.0494C25.0384 14.0129 24.9691 13.9785 24.8988 13.9461C24.4429 13.7625 23.95 13.689 23.4602 13.7318C22.9705 13.7745 22.4978 13.9323 22.0805 14.1921C21.7874 14.3686 21.5242 14.5903 21.3005 14.8492C20.9938 15.1559 20.6916 15.458 20.3858 15.7639C20.3262 15.8234 20.2438 15.8513 20.1604 15.8395C19.991 15.8153 19.8809 15.6425 19.9194 15.4758C20.05 14.9096 20.0211 14.3159 19.8326 13.7616C19.6387 13.2145 19.2831 12.7394 18.8131 12.3991C18.8087 12.3959 18.8046 12.3924 18.8007 12.3886C18.7958 12.3838 18.7908 12.3791 18.7858 12.3744C18.7157 12.3087 18.7559 12.215 18.8512 12.2266C18.8663 12.2289 18.8815 12.231 18.8966 12.2331C20.0882 12.3944 21.3607 12.1515 22.5002 12.5355C23.5005 12.8726 24.4885 13.2146 25.469 13.5701Z" fill="white"/>
<path d="M17.0448 10.7578C17.07 10.7639 17.0893 10.782 17.0983 10.8064C17.106 10.8274 17.114 10.8483 17.1221 10.8691C17.1522 10.9457 17.0705 11.0108 17.0051 10.9609C16.9897 10.9492 16.9744 10.9374 16.9591 10.9257C16.8898 10.8722 16.9597 10.737 17.0448 10.7578Z" fill="white"/>
<path d="M14.2966 9.93672C14.4269 9.96952 14.3988 10.156 14.2654 10.1723C13.3006 10.2898 12.3893 10.7017 11.6601 11.3599C10.7875 12.135 9.92038 12.9183 9.05016 13.6994C8.63123 14.0754 7.96744 13.7551 8.00291 13.1933C8.01347 13.0261 8.09053 12.8691 8.21683 12.759C9.36905 11.7545 10.5349 10.777 11.6908 9.77455C12.0227 9.50691 12.4504 9.41905 12.8597 9.53819C13.3464 9.67984 13.8276 9.80492 14.2966 9.93672Z" fill="white"/>
<path d="M22.5447 17.4522C25.6106 18.0567 28.6396 18.835 31.617 19.7835C31.6977 19.8092 31.7017 19.8735 31.6175 19.8651C27.4955 18.9765 23.3119 18.4026 19.1029 18.1484C13.1087 17.7728 7.09184 18.2739 1.24239 19.6358C1.16145 19.6506 1.10005 19.5629 1.13227 19.4872C1.58072 18.4335 2.02818 17.3824 2.50336 16.3338C3.19518 14.7966 3.92069 13.2812 4.66995 11.7795C5.07681 10.9641 6.49382 11.4177 6.43725 12.3272C6.33457 14.5433 8.29099 16.3946 10.5088 16.3417C11.6854 16.3135 12.8631 16.3314 14.0394 16.3953C16.8961 16.5445 19.7384 16.8977 22.5447 17.4522Z" fill="white"/>
<path d="M32.747 22.7617C32.884 22.8693 33.0226 22.9753 33.1611 23.0814C33.3338 23.2135 33.2376 23.4642 33.0238 23.4243C29.4432 22.9879 25.8386 22.7787 22.2315 22.798C21.8652 22.8064 21.5018 22.7897 21.1299 22.8148C20.1163 22.8382 19.1339 22.8543 18.1426 22.9033C17.9919 22.9108 17.8361 22.8702 17.744 22.7505C17.4644 22.4709 17.1373 22.1941 16.8493 21.9061C16.5295 21.5863 16.7196 21.0686 17.1718 21.0633C18.2529 21.0505 19.3397 21.0742 20.4281 21.1233C24.5384 21.2723 28.6259 21.8031 32.638 22.7086C32.6767 22.721 32.7134 22.7389 32.747 22.7617Z" fill="white"/>
<path d="M14.1887 21.1912C14.3417 21.181 14.4983 21.2317 14.611 21.3358C14.902 21.6047 15.1876 21.8807 15.4722 22.1576C15.8216 22.4974 15.6213 23.0548 15.1368 23.1079C14.9509 23.1282 14.7635 23.0692 14.6313 22.937C14.3657 22.6714 14.0989 22.4046 13.8323 22.138C13.492 21.7977 13.7085 21.2232 14.1887 21.1912Z" fill="white"/>
<path d="M11.1818 21.4203C11.3548 21.4037 11.5271 21.4656 11.6499 21.5885C11.8747 21.8132 12.099 22.0376 12.3233 22.2618C12.7494 22.6879 12.5079 23.4176 11.9117 23.5054C11.546 23.1397 11.1921 22.7639 10.8366 22.3896C10.5057 22.0413 10.7035 21.466 11.1818 21.4203Z" fill="white"/>
<path d="M33.71 23.5138C33.7111 23.5138 33.7121 23.5134 33.7128 23.5126C33.7159 23.5096 33.7207 23.5132 33.7186 23.517C33.6699 23.6029 33.6123 23.6833 33.5467 23.7571C32.2919 25.3473 31.0411 26.9336 29.7848 28.5146C28.4276 30.2224 25.9041 30.3999 24.3117 28.9091C22.9614 27.645 21.6119 26.3809 20.263 25.1168C19.3778 24.2872 19.9196 22.8215 21.1327 22.812C21.4962 22.7841 21.8652 22.8064 22.2371 22.798C25.8464 22.7781 29.4532 22.991 33.035 23.4355C33.2574 23.4807 33.4832 23.5069 33.71 23.5138Z" fill="white"/>
<path d="M33.2499 26.6066C33.3952 26.4195 33.6653 26.3875 33.8494 26.5367C34.0326 26.6853 34.0656 26.9531 33.9222 27.1404C32.9629 28.3938 32.0036 29.6479 31.0442 30.9027C29.1443 33.3877 25.4954 33.6443 23.2662 31.4499C20.7444 28.9676 18.2217 26.4877 15.6979 24.01C15.3445 23.6631 15.5466 23.0998 16.0391 23.0476C16.2232 23.0281 16.4103 23.0858 16.5437 23.2143C19.0182 25.5962 21.4973 27.9735 23.9748 30.3526C25.9247 32.2251 29.0688 31.9951 30.7255 29.8587C31.5669 28.7737 32.4084 27.6896 33.2499 26.6066Z" fill="white"/>
<path d="M33.5647 29.8792C33.6793 29.728 33.8975 29.7045 34.0417 29.8278C34.1738 29.9406 34.1957 30.1365 34.0918 30.2758C33.1215 31.5763 32.1523 32.8783 31.1843 34.1818C29.143 36.9303 25.1217 37.1957 22.7444 34.732L11.9117 23.5054C12.8177 23.37 13.7254 23.6798 14.3692 24.3315C17.5447 27.5459 20.7227 30.7587 23.9032 33.9697C25.8777 35.9633 29.1608 35.7331 30.8447 33.4887C31.7486 32.2839 32.6543 31.0807 33.5647 29.8792Z" fill="white"/>
</svg>
