<svg width="556" height="318" viewBox="0 0 556 318" fill="none" xmlns="http://www.w3.org/2000/svg">
<path d="M310.717 9.36057C314.951 11.1575 318.998 13.3637 322.801 15.9477C332.132 22.3132 340.396 31.4033 351.543 33.2197C363.164 35.1118 374.371 28.5003 386.043 26.9813C398.692 25.3379 412.01 30.1329 420.692 39.4582C440.412 60.6333 430.843 94.9503 416.785 116.298C401.941 138.841 378.491 155.037 352.883 163.649C335.226 169.596 316.231 172.245 300.098 181.54C284.257 190.668 272.368 205.543 256.592 214.787C244.641 221.754 230.965 225.216 217.133 224.774C214.329 197.661 222.401 168.731 211.265 143.847C208.615 137.925 204.968 132.516 201.745 126.886C189.481 105.378 183.455 80.8858 184.342 56.1518C185.094 36.22 204.162 14.8206 221.719 6.38189C236.125 -0.540435 252.827 -0.610713 268.765 0.584003C283.047 1.65168 297.67 3.78433 310.717 9.36057Z" fill="#EDF5FD"/>
<path d="M43.7521 297.455C41.6055 298.487 39.3398 299.347 37.1255 300.158C33.1057 301.636 28.734 303.131 24.6249 301.931C20.9489 300.85 18.1526 297.73 16.5583 294.252C11.4314 283.064 14.6364 267.962 15.8626 256.196C17.3081 242.328 19.5788 228.558 22.6624 214.96C24.5924 206.454 28.4633 196.447 37.0876 195.047C43.1024 194.071 49.0279 198.163 52.1002 203.426C55.1726 208.689 56.0036 214.906 56.7724 220.944C59.5172 242.446 62.9983 263.17 55.446 284.18C54.5554 286.662 53.5322 289.129 51.927 291.232C49.8372 294.008 46.9246 295.93 43.7521 297.455Z" fill="#FCB9A4"/>
<path d="M43.1538 296.246C38.6441 296.476 27.4347 299.195 23.7695 296.154C19.0757 292.259 21.9315 281.537 25.4126 277.658C29.473 273.136 37.6967 266.706 43.6979 266.343C57.2325 265.532 71.4331 276.663 61.0493 290.013C57.0431 295.165 49.6748 295.917 43.1538 296.246Z" fill="#F59776"/>
<path d="M223.719 38.4203C224.771 39.9621 225.336 41.7826 225.344 43.6478C225.34 43.8908 225.42 44.1276 225.571 44.3182L237.522 36.3795L237.92 36.9742L238.061 37.1877L245.288 48.0348C245.394 48.1973 245.453 48.3856 245.459 48.5794C245.466 48.7731 245.419 48.9649 245.324 49.1339C245.229 49.3029 245.089 49.4427 244.92 49.5382C244.751 49.6337 244.559 49.6811 244.365 49.6755C242.715 49.6428 241.087 50.062 239.659 50.8876C238.23 51.7132 237.055 52.9137 236.261 54.3587C235.468 55.8038 235.085 57.4383 235.156 59.0849C235.227 60.7316 235.747 62.3275 236.662 63.6995C237.576 65.0716 238.85 66.1674 240.344 66.868C241.838 67.5687 243.495 67.8475 245.137 67.6741C246.778 67.5008 248.341 66.8819 249.655 65.8847C250.969 64.8875 251.985 63.55 252.591 62.0173C252.662 61.8371 252.78 61.6795 252.934 61.5617C253.088 61.4438 253.27 61.37 253.463 61.3483C253.655 61.3266 253.85 61.3578 254.026 61.4385C254.202 61.5193 254.353 61.6465 254.462 61.8064L261.662 72.6183L261.811 72.8427L262.231 73.4698L250.28 81.4111C250.399 81.6126 250.58 81.7701 250.797 81.8598C252.514 82.5847 253.972 83.8092 254.982 85.3737C257.656 89.4795 256.687 94.9098 252.816 97.5208C248.859 100.194 243.374 98.9642 240.597 94.7962C239.577 93.2772 239.031 91.4897 239.03 89.6606C239.032 89.4267 238.957 89.1986 238.816 89.0119L226.775 97.037L219.009 85.3764C218.897 85.2162 218.743 85.0894 218.565 85.0095C218.386 84.9296 218.189 84.8996 217.995 84.9226C217.8 84.9456 217.616 85.0208 217.461 85.1402C217.306 85.2597 217.186 85.4188 217.114 85.6007C216.506 87.1327 215.489 88.4691 214.174 89.465C212.859 90.4609 211.297 91.0783 209.655 91.2502C208.014 91.4221 206.357 91.142 204.863 90.4402C203.37 89.7384 202.098 88.6417 201.184 87.2691C200.271 85.8965 199.751 84.3004 199.682 82.6539C199.613 81.0073 199.996 79.3733 200.79 77.9288C201.585 76.4844 202.761 75.2849 204.19 74.4602C205.618 73.6356 207.246 73.2173 208.896 73.2508C209.091 73.2541 209.283 73.2049 209.452 73.1083C209.621 73.0117 209.761 72.8713 209.857 72.7019C209.953 72.5325 210.002 72.3404 209.997 72.1459C209.993 71.9514 209.936 71.7616 209.833 71.5966L202.069 59.9441L214.118 51.9324C214.002 51.7194 213.815 51.5532 213.59 51.4621C211.9 50.7473 210.46 49.5503 209.448 48.0212C206.671 43.8532 207.656 38.3284 211.655 35.7146C215.566 33.1603 220.958 34.3712 223.719 38.4203Z" fill="#FE554E"/>
<path d="M251.509 70.9722C252.05 70.4559 252.832 70.21 253.55 70.0991C253.947 70.0492 254.346 70.0221 254.746 70.0181C254.922 70.0281 255.096 69.991 255.253 69.9107C255.409 69.8304 255.54 69.7097 255.634 69.5613C255.794 69.291 255.742 68.8639 255.777 68.5611C255.794 68.3585 255.854 68.1618 255.953 67.9842C256.052 67.8066 256.188 67.6522 256.351 67.5313C256.469 67.4631 256.608 67.4439 256.739 67.4778C256.871 67.5117 256.983 67.596 257.052 67.7124C257.114 67.8312 257.129 67.9685 257.095 68.0978C257.061 68.227 256.98 68.3392 256.868 68.4125C256.733 68.5152 256.766 68.9531 256.755 69.0882C256.752 69.4852 256.638 69.8735 256.427 70.21C255.91 70.9506 255.133 71.0209 254.297 71.0533C253.602 71.0496 252.921 71.2427 252.332 71.6101C252.219 71.6807 252.126 71.7787 252.061 71.8951C251.997 72.0114 251.963 72.1421 251.963 72.275C251.963 72.667 252.48 72.8156 252.775 72.9481C253.137 73.1146 253.454 73.3637 253.701 73.6752C253.848 73.9322 254.03 74.167 254.243 74.3726C254.403 74.4548 254.577 74.5047 254.756 74.5196C254.936 74.5344 255.116 74.5139 255.288 74.4591C255.588 74.3465 255.846 74.1422 256.024 73.8752C256.99 72.74 258.206 71.9183 259.757 72.0615C260.398 72.1326 261.026 72.2936 261.622 72.5399L261.67 72.6129L261.819 72.8373L262.239 73.4644L261.838 73.7347C260.831 73.2833 259.724 72.8697 258.639 73.167C257.961 73.3968 257.366 73.8207 256.928 74.3861C256.712 74.6625 256.466 74.9144 256.194 75.1375C255.852 75.3744 255.449 75.5093 255.033 75.5267C254.648 75.5698 254.259 75.5014 253.912 75.3299C253.565 75.1583 253.275 74.8907 253.076 74.5591C252.898 74.2793 252.651 74.0495 252.359 73.8914C251.974 73.6887 251.563 73.5427 251.276 73.2022C250.705 72.5264 250.913 71.548 251.509 70.9722Z" fill="white"/>
<path d="M243.177 89.3552C243.661 88.9654 244.223 88.6842 244.825 88.5308C244.411 88.3297 244.037 88.0549 243.721 87.7199C242.941 86.8279 243.469 85.6548 244.316 85.0169C245.164 84.379 246.395 84.3195 247.37 84.5358C248.501 84.7871 249.251 85.644 249.116 86.8198C249.1 86.8849 249.071 86.9462 249.031 87.0003C248.991 87.0543 248.941 87.0999 248.883 87.1345C248.826 87.1692 248.762 87.1921 248.695 87.2021C248.629 87.2121 248.561 87.209 248.496 87.1928C248.366 87.1577 248.254 87.0737 248.184 86.9583C248.115 86.843 248.092 86.7052 248.122 86.5738C248.201 85.9008 247.581 85.6142 246.98 85.4926C246.239 85.3429 245.469 85.4873 244.833 85.8953C244.578 86.0991 244.404 86.3864 244.341 86.7062C244.336 86.7789 244.353 86.8514 244.389 86.9144C244.469 87.0406 244.572 87.1507 244.693 87.2387C245.234 87.6955 246.024 87.9388 246.625 88.3686C247.018 88.6524 246.942 89.3173 246.384 89.3281C245.522 89.3316 244.678 89.5769 243.948 90.0363C243.829 90.0984 243.73 90.192 243.66 90.307C243.591 90.4219 243.555 90.5536 243.556 90.6877C243.592 90.8799 243.677 91.0598 243.801 91.211C243.925 91.3621 244.086 91.4796 244.268 91.5527C245.017 91.896 246.138 91.5229 246.896 91.2499C247.739 90.9265 248.554 90.5341 249.332 90.0769C249.906 89.7552 250.415 90.6364 249.849 90.958C248.903 91.5105 247.906 91.972 246.872 92.3365C245.83 92.6825 244.492 92.942 243.507 92.3014C242.478 91.6311 242.183 90.1985 243.177 89.3552Z" fill="white"/>
<path d="M222.78 75.0402C222.239 75.2429 221.776 75.7375 221.408 76.17C221.019 76.6159 220.712 77.1276 220.504 77.681C220.287 78.2973 219.291 78.054 219.51 77.435C219.8 76.6557 220.235 75.9384 220.793 75.3213C221.335 74.6915 222.092 74.0779 222.94 73.9374C223.414 73.8805 223.893 73.9859 224.299 74.2363C224.705 74.4867 225.014 74.8673 225.176 75.3159C225.628 75.0416 226.141 74.882 226.67 74.851C227.853 74.7996 228.627 75.9322 228.565 77.0404C228.502 78.1486 227.715 78.9865 226.922 79.638C226.156 80.2507 225.321 80.7714 224.434 81.1895C223.847 81.476 223.321 80.5975 223.917 80.3083C224.624 79.9712 225.3 79.5723 225.936 79.1163C226.545 78.6757 227.228 78.0783 227.471 77.3539C227.663 76.7755 227.449 75.897 226.754 75.87C226.367 75.8811 225.992 76.001 225.671 76.216C225.432 76.3594 225.213 76.5329 225.019 76.7323C224.953 76.8291 224.879 76.9196 224.797 77.0025C224.407 77.4026 223.646 76.8836 223.985 76.3998L224.069 76.289C224.098 76.2511 224.128 76.2106 224.161 76.1727C224.238 76.0332 224.266 75.872 224.242 75.7144C224.217 75.5569 224.141 75.4119 224.025 75.3024C223.877 75.1263 223.673 75.0049 223.448 74.9574C223.222 74.9099 222.987 74.939 222.78 75.0402Z" fill="white"/>
<path d="M213.062 42.1882C213.181 42.2538 213.269 42.3636 213.307 42.4938C213.345 42.6239 213.33 42.7638 213.265 42.8829C212.765 43.5917 212.549 44.4628 212.663 45.3228C212.776 46.1827 213.21 46.9686 213.877 47.5239C214.221 47.8051 214.603 48.0363 215.011 48.2104C215.139 48.2691 215.272 48.3144 215.409 48.3456C215.454 48.361 215.502 48.3683 215.55 48.3672C215.566 48.3672 215.691 48.3672 215.685 48.3672C215.862 48.3229 216.023 48.2292 216.148 48.0969C216.419 47.8455 216.689 47.5563 216.96 47.3077C217.023 47.2444 217.102 47.1987 217.188 47.175C217.274 47.1513 217.365 47.1505 217.452 47.1726C217.538 47.1947 217.618 47.239 217.682 47.3011C217.746 47.3631 217.793 47.4409 217.818 47.5266C218.142 48.5783 218.797 49.4977 219.686 50.1485C220.091 50.452 220.592 50.5981 221.096 50.5593C221.588 50.4704 222.029 50.2003 222.331 49.8025C222.449 49.6547 222.534 49.4836 222.581 49.3004C222.627 49.1173 222.634 48.9263 222.601 48.7402C222.499 48.28 222.289 47.8504 221.99 47.486C221.334 46.6579 220.502 45.9857 219.553 45.5183C219.252 45.352 218.927 45.2308 218.59 45.1588C217.945 45.0182 218.195 44.0262 218.836 44.1668C219.846 44.3884 220.772 44.9777 221.567 45.6291C222.415 46.3075 223.191 47.1968 223.527 48.2537C223.874 49.3998 223.343 50.4296 222.415 51.0999C221.364 51.8568 220.027 51.6594 219.031 50.9242C218.216 50.3132 217.565 49.5099 217.136 48.5862C216.811 48.9699 216.375 49.2437 215.888 49.37C214.946 49.5322 213.931 48.8835 213.233 48.324C212.377 47.6208 211.814 46.6243 211.655 45.5291C211.496 44.4339 211.752 43.3188 212.372 42.4017C212.438 42.2847 212.546 42.1973 212.674 42.1576C212.803 42.1179 212.942 42.1288 213.062 42.1882Z" fill="white"/>
<path d="M207.08 80.6164C207.264 79.8218 207.892 79.1893 208.588 78.7676C208.255 78.5398 207.995 78.2206 207.841 77.8486C207.386 76.7674 208.358 75.7943 209.164 75.251C209.54 74.9846 209.972 74.8088 210.427 74.7375C210.882 74.6662 211.348 74.7014 211.787 74.8402C212.705 75.1321 213.514 75.6997 214.383 76.1052C214.981 76.3755 214.483 77.2756 213.89 76.9999C213.198 76.6782 212.537 76.2701 211.852 75.9538C211.599 75.8179 211.32 75.7381 211.033 75.7199C210.746 75.7017 210.458 75.7455 210.19 75.8484C209.595 76.1052 208.718 76.6593 208.772 77.4053C208.815 78.0189 209.752 78.2162 210.277 78.2162C210.945 78.2027 210.94 79.1758 210.277 79.2352C209.845 79.2828 209.43 79.4296 209.065 79.6641C208.699 79.8986 208.393 80.2144 208.171 80.5867C208.094 80.7119 208.047 80.8535 208.035 81C208.023 81.1465 208.045 81.2938 208.1 81.43C208.301 81.8463 208.815 82.1328 209.278 82.2707C210.301 82.5761 211.249 81.8841 211.931 81.1895C212.669 80.4024 213.29 79.5141 213.777 78.5514C214.088 77.9702 214.984 78.4649 214.673 79.0433C213.623 81.003 211.663 83.9519 209.032 83.2572C207.862 82.9356 206.779 81.9193 207.08 80.6164Z" fill="white"/>
<path d="M240.946 70.7398C241.489 69.9909 241.929 69.1727 242.254 68.3071C242.346 68.0611 242.422 67.8124 242.489 67.5611C242.825 67.6263 243.165 67.6715 243.507 67.6962C243.34 68.328 243.118 68.9439 242.844 69.5369C242.487 70.2555 242.068 70.9411 241.59 71.5858C241.202 72.1734 240.764 72.7277 240.283 73.2427C239.844 73.6914 239.279 74.1212 238.624 74.1077C237.541 74.0806 236.935 73.2724 237 72.2318C237.062 71.1506 237.541 70.0694 238.025 69.1153C238.128 68.9044 238.239 68.6936 238.35 68.4882C237.776 68.5741 237.19 68.5474 236.626 68.4098C235.543 68.1395 234.972 67.107 235.408 66.0636C235.725 65.3095 236.436 64.7662 237.151 64.3499C237.368 64.6207 237.6 64.8788 237.847 65.123C237.343 65.3861 236.893 65.7409 236.52 66.169C236.346 66.3699 236.259 66.6312 236.277 66.8961C236.296 67.2016 236.61 67.3421 236.872 67.4205C237.655 67.6152 238.481 67.5191 239.198 67.1502C239.62 66.9123 240.183 67.3935 239.904 67.8368C239.453 68.5552 239.049 69.3019 238.694 70.0721C238.472 70.5468 238.291 71.0397 238.153 71.5452C238.098 71.7449 238.057 71.9481 238.031 72.1534C238.025 72.2561 238.025 72.3589 238.031 72.4615C238.024 72.5423 238.035 72.6236 238.063 72.6994C238.067 72.7536 238.083 72.8062 238.11 72.8531C238.137 72.9 238.175 72.9399 238.22 72.9697L238.247 72.9859C238.247 72.9859 238.345 73.0319 238.323 73.0265C238.403 73.0535 238.486 73.0716 238.57 73.0805C239.07 73.1211 239.522 72.5967 239.855 72.2183C240.245 71.7454 240.61 71.2518 240.946 70.7398Z" fill="white"/>
<path d="M230.958 44.7317C231.145 44.2821 231.43 43.8803 231.794 43.556C232.158 43.2317 232.59 42.9934 233.058 42.8586C233.97 42.5504 234.953 42.545 235.892 42.3396C236.534 42.199 236.81 43.1829 236.163 43.3235C234.78 43.6289 232.842 43.4559 232.021 44.8534C231.909 45.0149 231.859 45.2118 231.881 45.4075C231.986 45.5395 232.131 45.6342 232.295 45.6778C232.879 45.8517 233.476 45.9747 234.081 46.0454C234.147 46.0612 234.209 46.0898 234.263 46.1295C234.317 46.1693 234.363 46.2194 234.398 46.277C234.432 46.3346 234.455 46.3984 234.465 46.4649C234.475 46.5314 234.472 46.5992 234.455 46.6643C234.228 47.3104 233.686 48.0158 233.643 48.6267C233.629 48.7997 233.643 48.7916 233.7 48.897C233.675 48.8565 233.773 48.9484 233.797 48.9646C233.889 49.0132 233.988 49.0487 234.09 49.07C234.514 49.1804 234.964 49.1243 235.348 48.9132C236.225 48.4429 236.742 47.4212 237.14 46.5535C237.514 45.687 237.829 44.7966 238.085 43.8884C238.277 43.2613 239.271 43.5046 239.076 44.1344C238.769 45.2173 238.383 46.2761 237.92 47.3022C237.403 48.3834 236.642 49.5376 235.484 49.989C234.563 50.3431 232.85 50.1971 232.652 48.9862C232.605 48.4868 232.706 47.9845 232.945 47.5428C233.023 47.3617 233.134 47.1455 233.237 46.9428C232.727 46.8759 232.226 46.746 231.748 46.5562C231.574 46.4907 231.416 46.3909 231.281 46.263C231.147 46.135 231.04 45.9813 230.966 45.8111C230.892 45.6409 230.854 45.4577 230.852 45.2723C230.851 45.0868 230.887 44.903 230.958 44.7317Z" fill="white"/>
<path d="M217.047 62.3768C217.174 63.0201 216.189 63.2985 216.061 62.647C215.818 61.4307 216.44 60.0198 217.431 59.2927C217.703 59.0855 218.023 58.9493 218.36 58.8965C218.698 58.8436 219.044 58.8757 219.367 58.9899C219.943 59.2224 220.198 59.7873 220.485 60.2928C220.728 60.7279 220.923 60.7306 221.383 60.6387C221.932 60.4843 222.517 60.509 223.051 60.709C223.353 60.8572 223.619 61.0698 223.83 61.3318C224.041 61.5938 224.192 61.8988 224.272 62.2254C224.357 62.58 224.364 62.9492 224.291 63.3066C224.676 63.3696 225.034 63.5489 225.315 63.8204C225.596 64.0919 225.787 64.4426 225.863 64.8256C226.158 65.9987 225.606 67.0421 224.664 67.7205C223.722 68.399 222.499 68.4585 221.416 68.3449C220.284 68.1883 219.168 67.9369 218.078 67.5935C217.442 67.4178 217.688 66.4258 218.324 66.6042C219.968 67.061 221.865 67.7449 223.56 67.1448C224.285 66.8907 224.913 66.269 224.913 65.4771C224.928 65.1332 224.818 64.7954 224.605 64.5256C224.366 64.2553 224.047 64.2553 223.709 64.3824C223.251 64.5391 222.964 64.0121 223.124 63.6444C223.47 62.8498 223.324 61.701 222.312 61.5307C221.954 61.4712 221.546 61.6415 221.194 61.6821C220.969 61.7158 220.738 61.6962 220.522 61.6248C220.306 61.5535 220.109 61.4323 219.949 61.2712C219.616 60.9442 219.464 60.4874 219.204 60.109C218.944 59.7305 218.468 59.8387 218.146 60.0252C217.434 60.4387 216.887 61.574 217.047 62.3768Z" fill="white"/>
<path d="M231.25 81.1651C231.385 81.822 232.187 82.1625 232.671 82.5166C233.213 82.92 233.597 83.5006 233.754 84.1573C233.795 84.3399 233.846 84.5203 233.906 84.6979C233.968 84.8439 233.992 84.8601 234.209 84.8709C234.903 84.8686 235.572 84.6063 236.082 84.1357C237.165 83.2005 237.809 81.849 238.542 80.6462C238.886 80.0839 239.782 80.5759 239.438 81.1381C238.583 82.5382 237.828 84.1114 236.48 85.1169C235.811 85.6351 234.984 85.9072 234.138 85.8872C233.429 85.8548 233.031 85.4007 232.853 84.7493C232.796 84.4789 232.717 84.2139 232.614 83.9573C232.43 83.6209 232.158 83.3407 231.827 83.1464C231.128 82.668 230.419 82.195 230.24 81.3084C229.929 79.7677 231.347 78.2405 232.76 77.8783C232.766 77.4175 232.919 76.9706 233.196 76.6025C233.363 76.4245 233.568 76.2864 233.796 76.1984C234.024 76.1104 234.268 76.0748 234.512 76.0944C235.635 76.116 236.764 76.7485 237.674 77.3539C238.215 77.7188 237.728 78.6162 237.181 78.2486C236.467 77.7349 235.661 77.3616 234.807 77.1485C234.672 77.1101 234.531 77.099 234.391 77.1157C234.252 77.1324 234.117 77.1766 233.995 77.2458C233.923 77.3336 233.87 77.4347 233.838 77.5432C233.779 77.7965 233.766 78.0583 233.8 78.3162C233.801 78.451 233.748 78.5807 233.654 78.6773C233.56 78.7739 233.431 78.8296 233.296 78.8325C232.271 78.8973 231.033 80.0866 231.25 81.1651Z" fill="white"/>
<path d="M345.404 129.311C345.453 128.965 345.569 128.483 345.986 128.435C346.451 128.378 346.627 128.919 346.598 129.284C346.568 129.648 346.384 130.197 346.01 130.365C345.982 130.379 345.952 130.389 345.921 130.394C345.879 130.42 345.834 130.442 345.788 130.459C345.73 130.476 345.668 130.473 345.613 130.45C345.557 130.428 345.51 130.387 345.48 130.335C345.351 130.009 345.324 129.652 345.404 129.311Z" fill="black"/>
<path d="M346.089 122.759C346.2 122.234 346.901 121.818 347.171 122.475C347.215 122.596 347.238 122.722 347.242 122.85C347.246 122.88 347.246 122.91 347.242 122.94V122.959C347.235 123.182 347.195 123.404 347.123 123.615C347.001 124.078 346.776 124.524 346.357 124.194C345.986 123.907 346.002 123.159 346.089 122.759Z" fill="black"/>
<path d="M347.569 117.039C347.604 117.029 347.64 117.026 347.676 117.031C347.711 117.035 347.746 117.046 347.777 117.064C347.808 117.081 347.835 117.105 347.857 117.133C347.879 117.161 347.896 117.194 347.905 117.228L347.962 117.431C348.003 117.452 348.037 117.485 348.058 117.527C348.079 117.568 348.086 117.615 348.078 117.661C348.062 117.793 348.048 117.931 348.03 118.063V118.088C348.262 118.131 348.501 118.139 348.739 118.169C349.085 118.209 349.088 118.753 348.739 118.709C348.468 118.677 348.197 118.669 347.927 118.618C347.901 118.681 347.869 118.742 347.832 118.799C347.77 118.922 347.687 119.034 347.586 119.128C347.544 119.17 347.491 119.198 347.433 119.207C347.375 119.215 347.315 119.205 347.263 119.177C347.211 119.166 347.162 119.142 347.122 119.106C347.082 119.071 347.053 119.025 347.036 118.974V118.937C346.622 118.336 346.901 117.255 347.569 117.039Z" fill="black"/>
<path d="M346.673 122.986C346.955 123.065 347.245 123.114 347.537 123.132C347.609 123.132 347.678 123.16 347.728 123.211C347.779 123.261 347.808 123.33 347.808 123.402C347.808 123.474 347.779 123.542 347.728 123.593C347.678 123.644 347.609 123.672 347.537 123.672C347.196 123.653 346.858 123.597 346.53 123.505C346.2 123.399 346.34 122.872 346.673 122.986Z" fill="black"/>
<path d="M336.969 162.179C337.068 162.493 337.272 162.763 337.547 162.944C337.822 163.125 338.152 163.206 338.48 163.173C338.924 163.113 339.352 162.964 339.738 162.736C339.59 162.878 339.431 163.008 339.262 163.125C338.975 163.322 339.262 163.795 339.533 163.595C339.6 163.549 339.662 163.501 339.725 163.452C339.725 164.295 339.995 165.106 340.878 165.074C341.614 165.049 342.283 164.584 342.25 163.795C342.186 163.233 342.031 162.685 341.79 162.173C342.713 162.26 343.777 162.23 344.497 161.633C345.076 161.141 345.534 159.838 344.914 159.2C344.4 158.659 343.495 158.946 342.908 159.187C342.659 159.289 342.41 159.4 342.169 159.524C342.215 159.403 342.264 159.287 342.31 159.168C342.442 158.843 341.915 158.703 341.785 159.024C341.687 159.268 341.587 159.522 341.481 159.781C341.484 158.965 341.299 158.158 340.94 157.424C340.729 157.008 340.418 156.57 339.944 156.432C339.608 156.332 339.159 156.262 338.861 156.489C338.201 156.976 338.352 157.981 338.496 158.678C338.614 159.265 338.785 159.841 339.005 160.397C338.068 160.557 336.682 161.184 336.969 162.179ZM341.392 161.576C341.356 161.572 341.32 161.577 341.286 161.591C341.252 161.604 341.223 161.626 341.2 161.654C341.438 161.216 341.652 160.765 341.841 160.303C342.15 160.115 342.469 159.947 342.797 159.797C343.198 159.616 344.018 159.208 344.454 159.492C344.673 159.635 344.654 159.973 344.624 160.2C344.612 160.426 344.547 160.645 344.432 160.84C344.318 161.035 344.158 161.199 343.966 161.319C343.203 161.762 342.231 161.692 341.392 161.581V161.576ZM340.309 162.927C340.629 162.575 340.908 162.188 341.14 161.773C341.126 161.822 341.126 161.874 341.14 161.922C341.353 162.432 341.534 162.955 341.682 163.487C341.725 163.717 341.774 164.065 341.59 164.257C341.489 164.356 341.368 164.431 341.236 164.478C341.103 164.525 340.961 164.542 340.821 164.528C340.22 164.468 340.198 163.63 340.299 162.933L340.309 162.927ZM337.5 161.979C337.519 161.265 338.831 160.898 339.394 160.898C339.442 160.898 339.49 160.886 339.531 160.862C339.573 160.838 339.608 160.804 339.632 160.762C339.656 160.721 339.668 160.674 339.668 160.626C339.667 160.578 339.654 160.531 339.63 160.489C339.4 159.966 339.219 159.424 339.089 158.868C338.967 158.362 338.712 157.473 339.072 157.005C339.232 156.794 339.595 156.876 339.803 156.949C340.177 157.081 340.412 157.513 340.55 157.862C340.856 158.649 341.075 159.657 340.859 160.495C340.843 160.561 340.852 160.631 340.885 160.691C340.918 160.75 340.973 160.795 341.038 160.816C340.865 161.191 340.665 161.552 340.439 161.898C340.387 161.842 340.316 161.809 340.24 161.804C340.164 161.8 340.089 161.824 340.031 161.873C339.633 162.246 339.142 162.504 338.609 162.622C338.217 162.684 337.475 162.514 337.489 161.984L337.5 161.979Z" fill="#FCB9A4"/>
<path d="M338.122 125.051C338.429 125.173 338.768 125.185 339.083 125.087C339.398 124.988 339.67 124.785 339.852 124.51C340.086 124.128 340.241 123.704 340.309 123.261C340.326 123.465 340.326 123.671 340.309 123.875C340.28 124.221 340.818 124.313 340.851 123.961C340.851 123.88 340.851 123.802 340.851 123.721C341.506 124.261 342.299 124.567 342.84 123.864C343.29 123.28 343.355 122.469 342.721 121.994C342.244 121.681 341.718 121.451 341.165 121.312C341.82 120.656 342.472 119.815 342.456 118.88C342.442 118.12 341.725 116.942 340.832 117.012C340.09 117.074 339.736 117.947 339.546 118.555C339.468 118.812 339.397 119.072 339.338 119.339C339.278 119.226 339.216 119.115 339.154 119.004C338.986 118.696 338.542 119.004 338.71 119.318L339.102 120.031C338.473 119.51 337.732 119.14 336.937 118.95C336.479 118.85 335.943 118.815 335.537 119.091C335.245 119.288 334.906 119.591 334.887 119.972C334.844 120.783 335.718 121.31 336.349 121.642C336.88 121.922 337.434 122.155 338.006 122.34C337.554 123.164 337.167 124.64 338.122 125.051ZM340.461 121.267C340.435 121.291 340.415 121.323 340.404 121.357C340.393 121.392 340.392 121.428 340.399 121.464C340.213 121.002 340.002 120.551 339.768 120.112C339.818 119.756 339.89 119.403 339.982 119.055C340.096 118.628 340.301 117.739 340.794 117.582C341.043 117.501 341.292 117.731 341.449 117.899C341.617 118.05 341.745 118.24 341.823 118.452C341.902 118.663 341.927 118.891 341.898 119.115C341.749 119.972 341.073 120.677 340.461 121.256V121.267ZM340.816 122.967C340.743 122.497 340.62 122.037 340.447 121.594C340.476 121.635 340.515 121.668 340.561 121.688C341.091 121.846 341.611 122.038 342.118 122.261C342.326 122.372 342.624 122.556 342.659 122.818C342.673 122.958 342.655 123.099 342.609 123.232C342.562 123.364 342.487 123.485 342.388 123.586C341.952 123.991 341.289 123.475 340.816 122.956V122.967ZM338.298 124.534C337.757 124.067 338.298 122.815 338.65 122.372C338.681 122.335 338.701 122.291 338.709 122.243C338.717 122.196 338.712 122.148 338.695 122.103C338.678 122.058 338.649 122.018 338.612 121.988C338.575 121.958 338.53 121.939 338.482 121.931C337.935 121.776 337.403 121.571 336.893 121.318C336.425 121.091 335.575 120.726 335.44 120.153C335.38 119.883 335.672 119.664 335.859 119.55C336.2 119.347 336.671 119.439 337.039 119.55C337.851 119.82 338.764 120.285 339.273 120.983C339.314 121.038 339.375 121.075 339.442 121.088C339.51 121.1 339.58 121.085 339.638 121.048C339.817 121.418 339.969 121.801 340.093 122.194C340.018 122.2 339.948 122.234 339.898 122.29C339.848 122.346 339.82 122.419 339.822 122.494C339.857 123.036 339.745 123.579 339.5 124.064C339.3 124.405 338.699 124.878 338.298 124.524V124.534Z" fill="#FCB9A4"/>
<path d="M297.724 125.702C299.957 125.927 302.064 126.841 303.752 128.319C303.925 128.473 304.136 128.577 304.364 128.62C304.592 128.663 304.827 128.642 305.044 128.561C305.261 128.479 305.451 128.34 305.594 128.158C305.737 127.977 305.828 127.759 305.856 127.529L307.75 110.933L358.237 116.653L356.343 133.249C356.317 133.478 356.228 133.695 356.087 133.877C355.945 134.059 355.756 134.198 355.541 134.28C355.325 134.362 355.091 134.383 354.864 134.34C354.638 134.298 354.427 134.195 354.255 134.041C352.775 132.746 350.969 131.881 349.031 131.539C347.094 131.197 345.1 131.391 343.265 132.1C341.43 132.81 339.825 134.007 338.623 135.562C337.421 137.118 336.669 138.972 336.447 140.925C336.226 142.877 336.544 144.852 337.367 146.637C338.19 148.421 339.487 149.947 341.116 151.047C342.746 152.148 344.646 152.783 346.611 152.882C348.576 152.981 350.531 152.541 352.263 151.61C352.465 151.5 352.693 151.447 352.923 151.458C353.153 151.468 353.376 151.541 353.567 151.669C353.758 151.797 353.91 151.975 354.008 152.183C354.105 152.391 354.143 152.622 354.117 152.851L352.223 169.388L301.738 163.668L303.617 147.131C303.641 146.902 303.601 146.67 303.503 146.461C303.404 146.252 303.25 146.074 303.058 145.946C302.865 145.818 302.641 145.745 302.41 145.734C302.179 145.724 301.95 145.777 301.746 145.888C300.263 146.688 298.612 147.129 296.926 147.175C295.241 147.222 293.568 146.873 292.042 146.157C290.516 145.441 289.179 144.377 288.14 143.052C287.1 141.726 286.387 140.175 286.057 138.524C285.726 136.873 285.789 135.168 286.238 133.545C286.688 131.922 287.513 130.428 288.647 129.181C289.78 127.934 291.191 126.971 292.765 126.368C294.339 125.764 296.033 125.538 297.711 125.707L297.724 125.702Z" fill="#6283F4"/>
<path d="M345.536 123.448C345.807 124.045 345.685 124.734 345.65 125.37C345.623 125.891 345.482 126.651 345.767 127.129C345.97 127.475 346.43 127.475 346.757 127.34C347.797 126.913 348.622 125.826 349.323 124.994C349.957 124.242 350.512 123.388 351.202 122.688C351.236 122.654 351.262 122.613 351.277 122.567C351.292 122.521 351.296 122.472 351.288 122.425C351.281 122.377 351.262 122.332 351.233 122.293C351.204 122.255 351.167 122.223 351.124 122.202C351.133 122.158 351.133 122.113 351.122 122.069C351.111 122.026 351.091 121.986 351.062 121.952C351.033 121.917 350.997 121.89 350.956 121.872C350.915 121.854 350.87 121.846 350.826 121.848C350.276 121.818 349.736 121.692 349.229 121.477C348.612 121.261 348 121.012 347.377 120.81C346.581 120.539 345.101 120.174 344.841 121.367C344.684 122.086 345.258 122.829 345.536 123.448ZM345.536 121.996C345.423 121.661 345.369 121.283 345.807 121.185C346.053 121.141 346.305 121.157 346.543 121.231C347.306 121.444 348.056 121.698 348.79 121.994C349.359 122.23 349.956 122.392 350.566 122.475C349.984 123.11 349.483 123.848 348.942 124.505C348.523 125.016 348.078 125.504 347.607 125.967C347.296 126.267 346.912 126.675 346.481 126.797C346.433 126.809 346.384 126.817 346.335 126.821C346.303 126.821 346.297 126.805 346.294 126.799C346.234 126.569 346.219 126.33 346.251 126.094C346.314 125.386 346.337 124.675 346.319 123.964C346.246 123.226 345.758 122.669 345.534 121.996H345.536Z" fill="#CBE1F8"/>
<path d="M334.208 134.433C334.441 135.514 335.832 134.849 336.42 134.552C336.824 134.365 337.249 134.227 337.686 134.141C338.082 134.046 338.531 133.946 338.769 133.6C338.791 133.574 338.808 133.544 338.817 133.511C338.827 133.479 338.83 133.444 338.827 133.41C338.823 133.376 338.812 133.344 338.795 133.314C338.778 133.284 338.756 133.259 338.729 133.238C338.537 131.496 337.972 129.815 337.072 128.31C337.037 128.253 336.983 128.208 336.92 128.183C336.857 128.157 336.788 128.153 336.722 128.171C336.656 128.189 336.598 128.227 336.557 128.281C336.515 128.334 336.491 128.399 336.49 128.467C336.463 129.681 335.886 130.916 335.245 131.927C334.955 132.36 334.693 132.811 334.462 133.279C334.305 133.619 334.121 134.038 334.208 134.433ZM334.977 133.665C335.31 132.943 335.805 132.314 336.162 131.608C336.53 130.924 336.812 130.198 337.004 129.446C337.591 130.656 337.97 131.956 338.125 133.292C338.128 133.319 338.134 133.345 338.144 133.37C338.033 133.416 337.918 133.453 337.8 133.479C337.581 133.538 337.359 133.587 337.137 133.638C336.779 133.723 336.432 133.852 336.106 134.022C335.775 134.187 335.339 134.449 334.955 134.414C334.644 134.379 334.909 133.811 334.977 133.665Z" fill="#CBE1F8"/>
<path d="M328.832 118.153C329.214 118.655 329.644 119.085 329.942 119.656C330.313 120.385 330.551 121.175 330.919 121.907C330.947 121.954 330.986 121.993 331.034 122.02C331.081 122.047 331.135 122.062 331.19 122.062C331.244 122.062 331.298 122.047 331.346 122.02C331.393 121.993 331.433 121.954 331.46 121.907C332.427 120.366 333.431 118.839 334.219 117.199C334.292 117.163 334.348 117.101 334.376 117.026C334.541 116.609 334.414 116.131 333.891 116.128C333.491 116.128 333.133 116.298 332.752 116.382C332.37 116.466 331.975 116.307 331.623 116.244L331.019 116.125C330.467 115.99 329.899 115.928 329.33 115.942C328.84 115.982 328.391 116.144 328.277 116.677C328.163 117.209 328.526 117.75 328.832 118.153ZM329.409 116.561C330.342 116.547 331.23 116.853 332.148 116.977C332.553 117.027 332.964 116.985 333.35 116.853C333.478 116.808 333.611 116.775 333.745 116.755C333.737 116.765 333.731 116.776 333.726 116.788C332.98 118.278 332.146 119.722 331.228 121.112C330.8 120.139 330.483 119.139 329.763 118.315C329.463 117.969 329.081 117.585 328.935 117.142C328.789 116.698 329 116.569 329.409 116.561Z" fill="#CBE1F8"/>
<path d="M320.462 127.762C320.518 128.104 320.663 128.425 320.882 128.694C321.145 129.092 321.427 129.476 321.729 129.846C322.035 130.224 322.3 130.643 322.622 131.005C322.698 131.116 322.799 131.208 322.916 131.274C323.034 131.339 323.165 131.377 323.299 131.384C323.635 131.365 323.876 131.043 324.049 130.792C324.349 130.362 324.625 129.916 324.893 129.465C325.435 128.556 325.976 127.635 326.547 126.762C326.578 126.717 326.595 126.663 326.595 126.609C326.595 126.554 326.578 126.501 326.547 126.456C326.637 125.543 324.774 125.856 324.225 125.978C323.904 126.044 323.598 126.167 323.321 126.34C322.954 126.607 322.524 126.772 322.073 126.818C321.553 126.851 320.419 126.997 320.462 127.762ZM322.514 127.381C323.137 127.273 323.551 126.786 324.138 126.629C324.505 126.528 324.882 126.463 325.262 126.435C325.441 126.41 325.623 126.41 325.803 126.435C325.844 126.439 325.885 126.447 325.925 126.459C325.91 126.503 325.903 126.55 325.906 126.597C325.494 127.229 325.11 127.881 324.726 128.529C324.341 129.178 323.946 130 323.424 130.594C323.35 130.678 323.283 130.778 323.242 130.749C323.138 130.663 323.047 130.563 322.971 130.451C322.766 130.181 322.563 129.892 322.346 129.621C321.893 129.107 321.494 128.547 321.155 127.951C320.871 127.397 322.214 127.435 322.514 127.381Z" fill="#CBE1F8"/>
<path d="M314.19 120.083C315.162 120.893 316.153 121.685 317.1 122.529C317.134 122.562 317.175 122.586 317.22 122.601C317.265 122.616 317.313 122.621 317.36 122.615C317.407 122.609 317.452 122.593 317.492 122.567C317.532 122.541 317.565 122.507 317.59 122.467C318.197 121.553 318.305 120.366 318.329 119.299C318.353 118.231 318.256 117.107 318.253 116.009C318.253 115.973 318.247 115.938 318.234 115.904C318.229 115.843 318.207 115.785 318.169 115.737C318.132 115.689 318.081 115.653 318.023 115.633C317.003 115.258 316.25 116.474 315.495 116.915C314.74 117.355 313.744 117.239 313.21 117.98C312.623 118.796 313.622 119.607 314.19 120.083ZM313.795 118.255C314.358 117.766 315.2 117.847 315.812 117.444C316.177 117.207 316.488 116.904 316.829 116.634C317.05 116.411 317.333 116.26 317.642 116.201C317.642 117.199 317.742 118.193 317.717 119.188C317.698 120.066 317.647 121.026 317.252 121.829C316.483 121.156 315.701 120.507 314.91 119.866C314.585 119.61 313.262 118.718 313.795 118.255Z" fill="#CBE1F8"/>
<path d="M309.385 135.335C310.198 135.757 311.213 135.471 312.068 135.408C312.815 135.352 313.516 135.706 314.258 135.649C314.364 135.654 314.47 135.635 314.569 135.594C314.667 135.553 314.755 135.491 314.827 135.412C314.899 135.334 314.952 135.24 314.984 135.139C315.016 135.037 315.025 134.93 315.01 134.825C314.897 133.703 314.068 132.608 313.451 131.708C312.872 130.865 312.26 130.046 311.616 129.251C311.582 129.211 311.538 129.181 311.489 129.165C311.439 129.148 311.386 129.146 311.335 129.158C311.284 129.169 311.237 129.195 311.2 129.231C311.163 129.268 311.136 129.314 311.123 129.365C310.29 129.675 310.041 130.7 309.873 131.486C309.805 131.911 309.699 132.328 309.556 132.733C309.385 133.149 309.177 133.56 309.047 133.992C308.917 134.425 308.874 135.068 309.385 135.335ZM309.84 133.646C310.115 133.003 310.327 132.335 310.474 131.651C310.598 131.097 310.744 130.143 311.37 129.938C311.537 130.148 311.705 130.362 311.868 130.578C312.688 131.603 313.412 132.701 314.033 133.857C314.179 134.149 314.48 134.698 314.377 134.998C314.377 134.998 314.377 135.025 314.258 135.027C314.089 135.029 313.92 135.015 313.754 134.984C313.416 134.925 313.08 134.838 312.739 134.787C311.8 134.649 310.798 135.138 309.867 134.862C309.307 134.698 309.686 134.016 309.84 133.646Z" fill="#CBE1F8"/>
<path d="M325.86 139.717C325.92 140.032 326.006 140.342 326.114 140.644C326.233 140.955 326.404 141.25 326.509 141.566C326.745 142.271 326.455 143.012 326.688 143.728C326.699 143.768 326.717 143.805 326.742 143.838C326.767 143.87 326.799 143.897 326.835 143.918C326.87 143.938 326.91 143.951 326.951 143.956C326.991 143.961 327.033 143.958 327.073 143.947C327.941 143.636 328.602 142.866 329.157 142.152C329.668 141.501 330.129 140.801 330.6 140.136C330.664 140.137 330.726 140.115 330.776 140.075C330.825 140.034 330.859 139.977 330.87 139.914C330.984 139.509 330.995 139.017 330.648 138.712C330.327 138.46 329.943 138.301 329.539 138.249C329.119 138.179 328.712 138.05 328.329 137.865C327.894 137.599 327.414 137.416 326.913 137.325C325.595 137.192 325.67 138.855 325.86 139.717ZM326.905 137.933C327.649 138.09 328.258 138.614 329 138.766C329.341 138.803 329.676 138.886 329.996 139.012C330.095 139.046 330.179 139.113 330.236 139.201C330.293 139.289 330.319 139.394 330.31 139.498C330.274 139.521 330.242 139.552 330.218 139.587C329.723 140.295 329.257 141.025 328.716 141.701C328.307 142.217 327.822 142.85 327.219 143.19C327.178 142.717 327.303 142.231 327.219 141.758C327.113 141.233 326.81 140.785 326.661 140.274C326.528 139.866 325.93 137.725 326.905 137.933Z" fill="#CBE1F8"/>
<path d="M330.169 151.675C330.67 151.597 331.163 151.467 331.661 151.38C332.265 151.272 332.869 151.171 333.472 151.078C334.07 150.983 334.809 150.713 334.947 150.037C335.131 149.123 334.584 148.229 334.075 147.404C334.081 147.337 334.065 147.27 334.029 147.212C333.823 146.851 333.583 146.509 333.315 146.191C332.865 145.688 332.021 145.128 331.358 145.65C330.694 146.172 330.74 146.964 330.451 147.65C330.161 148.337 328.153 151.991 330.169 151.675ZM329.936 150.537C330.028 150.166 330.154 149.804 330.313 149.456C330.608 148.777 331.017 148.104 331.209 147.385C331.336 146.907 331.501 145.739 332.291 146.155C332.579 146.316 332.828 146.539 333.02 146.807C333.019 146.817 333.019 146.827 333.02 146.837C333.263 147.345 333.561 147.815 333.832 148.31C334.064 148.74 334.373 149.275 334.341 149.786C334.289 150.413 333.455 150.459 332.987 150.532C332.075 150.675 331.16 150.829 330.261 151.032C330.196 151.032 329.888 151.14 329.874 151.053C329.862 150.879 329.883 150.704 329.936 150.537Z" fill="#CBE1F8"/>
<path d="M325.145 159.773C325.511 160.443 325.768 161.16 326.147 161.825C326.526 162.49 326.932 163.09 327.351 163.717C327.394 163.787 327.462 163.838 327.541 163.859C327.621 163.879 327.705 163.868 327.776 163.828C328.645 163.338 329.254 162.436 329.75 161.595C330.245 160.754 330.64 159.911 331.041 159.046C331.1 159.057 331.161 159.052 331.217 159.03C331.273 159.008 331.322 158.971 331.357 158.922C331.393 158.874 331.413 158.816 331.417 158.756C331.421 158.696 331.408 158.636 331.379 158.584C331.209 158.286 330.789 158.17 330.483 158.078C329.999 157.935 329.503 157.83 329.011 157.727C327.893 157.492 326.729 157.205 325.586 157.481C325.17 157.581 324.712 157.751 324.607 158.211C324.485 158.735 324.904 159.333 325.145 159.773ZM325.984 158.027C326.986 157.892 327.952 158.127 328.924 158.332C329.335 158.419 329.75 158.505 330.153 158.622C330.232 158.643 330.37 158.676 330.505 158.719C330.134 159.516 329.763 160.316 329.322 161.079C328.881 161.841 328.412 162.622 327.698 163.125C327.395 162.673 327.091 162.222 326.818 161.752C326.491 161.189 326.244 160.606 325.963 160.019C325.73 159.527 325.327 159.024 325.218 158.484C325.153 158.124 325.716 158.065 325.984 158.027Z" fill="#CBE1F8"/>
<path d="M316.854 147.383C317.146 147.956 317.666 148.318 318.11 148.756C319.028 149.642 319.564 150.886 320.817 151.386C320.883 151.403 320.953 151.399 321.017 151.373C321.08 151.347 321.133 151.301 321.169 151.243C322.149 149.945 322.203 148.148 322.384 146.553C322.434 146.526 322.475 146.486 322.503 146.437C322.631 146.193 322.689 145.918 322.67 145.643C322.651 145.368 322.556 145.104 322.395 144.88C322.043 144.407 321.632 144.339 321.082 144.509C320.381 144.734 319.683 144.855 318.965 145.015C318.348 145.15 317.612 145.347 317.116 145.785C316.898 145.982 316.753 146.248 316.705 146.538C316.657 146.828 316.71 147.126 316.854 147.383ZM317.368 146.423C317.639 146.004 318.275 145.815 318.722 145.699C319.301 145.547 319.899 145.48 320.478 145.331C320.749 145.264 321.485 144.874 321.729 145.061C321.893 145.197 322 145.39 322.03 145.601C321.978 145.612 321.932 145.64 321.898 145.679C321.864 145.719 321.844 145.768 321.84 145.82C321.71 146.699 321.648 147.588 321.499 148.464C321.404 149.25 321.158 150.011 320.773 150.705C319.961 150.28 319.488 149.383 318.906 148.71C318.581 148.337 318.191 148.045 317.847 147.696C317.579 147.404 317.092 146.85 317.368 146.423Z" fill="#CBE1F8"/>
<path d="M305.693 144.458C306.059 145.345 306.722 146.053 307.236 146.847C307.477 147.22 307.642 147.621 307.845 148.015C307.951 148.302 308.156 148.541 308.424 148.688C308.744 148.821 309.031 148.61 309.237 148.369C309.555 147.928 309.828 147.455 310.049 146.958C310.59 145.895 311.095 144.814 311.565 143.715C311.582 143.68 311.591 143.642 311.591 143.603C311.591 143.564 311.582 143.525 311.565 143.49C311.659 143.318 311.736 143.137 311.795 142.95C312.025 142.228 311.795 141.49 311.034 141.22C310.671 141.125 310.293 141.103 309.921 141.155C309.536 141.171 309.154 141.234 308.785 141.344C308.243 141.528 307.721 141.793 307.174 141.977C306.798 142.068 306.434 142.204 306.091 142.382C305.341 142.866 305.39 143.723 305.693 144.458ZM306.319 142.974C306.601 142.819 306.902 142.7 307.215 142.62C308.013 142.35 308.768 141.888 309.621 141.809C310.054 141.769 311.215 141.593 311.245 142.304C311.267 142.879 310.877 143.407 310.579 143.866C310.558 143.895 310.543 143.927 310.535 143.962C310.526 143.997 310.525 144.033 310.53 144.068C310.536 144.103 310.548 144.137 310.567 144.167C310.585 144.197 310.61 144.224 310.639 144.245C310.319 144.966 309.978 145.68 309.621 146.385C309.38 146.853 309.153 147.345 308.871 147.791C308.82 147.872 308.633 148.104 308.638 148.107C308.571 148.08 308.498 147.921 308.465 147.861C308.149 147.21 307.787 146.583 307.382 145.983C306.938 145.374 306.389 144.728 306.178 143.993C306.091 143.68 305.983 143.188 306.319 142.988V142.974Z" fill="#CBE1F8"/>
<path d="M306.795 157.111C307.221 157.695 307.733 158.212 308.314 158.643C308.793 159.011 309.342 159.454 309.938 159.649C310.75 159.919 311.121 158.962 311.38 158.378C311.743 157.523 312.047 156.645 312.29 155.748C312.338 155.736 312.382 155.71 312.416 155.674C312.45 155.639 312.474 155.594 312.485 155.546C312.57 155.265 312.605 154.971 312.588 154.678C312.539 153.997 312.249 153.286 311.505 153.148C311.064 153.067 310.628 153.335 310.273 153.559C309.843 153.829 309.407 154.1 308.971 154.346C308.511 154.589 308.027 154.783 307.526 154.924C307.164 155.022 306.844 155.237 306.616 155.535C306.281 156.04 306.478 156.651 306.795 157.111ZM307.458 155.613C307.791 155.459 308.157 155.408 308.498 155.283C308.897 155.114 309.279 154.906 309.637 154.662C309.978 154.451 310.327 154.243 310.674 154.035C310.928 153.883 311.348 153.6 311.629 153.862C311.744 153.982 311.833 154.125 311.89 154.281C311.948 154.438 311.972 154.604 311.962 154.77C311.92 154.809 311.889 154.858 311.873 154.913C311.622 155.874 311.319 156.82 310.966 157.749C310.814 158.168 310.613 158.569 310.365 158.941C310.208 159.154 310.076 159.054 309.867 158.941C308.936 158.416 307.926 157.703 307.334 156.797C307.052 156.367 306.879 155.881 307.458 155.613Z" fill="#CBE1F8"/>
<path d="M297.221 137.628C297.259 137.666 297.308 137.694 297.361 137.709C297.414 137.723 297.47 137.723 297.524 137.709C297.941 137.598 298.336 137.955 298.734 138.011C299.053 138.052 299.378 138.016 299.681 137.906C300.25 137.722 301.056 137.503 301.197 136.825C301.368 136.014 300.656 135.154 300.228 134.546C299.603 133.722 299.06 132.839 298.604 131.911C298.596 131.856 298.574 131.805 298.539 131.762C298.539 131.746 298.525 131.732 298.52 131.716C298.495 131.653 298.451 131.6 298.394 131.563C298.338 131.526 298.271 131.508 298.203 131.511C298.126 131.474 298.042 131.453 297.956 131.45C297.871 131.447 297.786 131.462 297.706 131.493C297.626 131.525 297.554 131.572 297.494 131.633C297.434 131.694 297.387 131.766 297.356 131.846C297.143 132.342 297.023 132.872 297.001 133.411C296.944 134.07 296.852 134.725 296.79 135.384C296.722 136.168 296.72 136.987 297.221 137.628ZM297.586 137.074C297.28 136.568 297.369 135.833 297.432 135.281C297.494 134.73 297.575 134.241 297.608 133.716C297.624 133.327 297.678 132.941 297.767 132.562C297.798 132.391 297.862 132.226 297.954 132.078C297.976 132.09 297.996 132.106 298.014 132.124C298.369 132.896 298.798 133.632 299.294 134.322C299.565 134.727 299.868 135.133 300.136 135.552C300.333 135.824 300.478 136.13 300.564 136.455C300.639 136.841 300.439 136.941 300.122 137.084C299.849 137.206 299.567 137.305 299.278 137.382C298.685 137.528 298.176 137.041 297.586 137.074Z" fill="#CBE1F8"/>
<path d="M288.19 139.728C288.19 140.45 288.583 140.901 289.216 141.19C289.905 141.515 290.633 141.75 291.382 141.888C291.864 141.969 292.464 142.036 292.76 141.539C293.055 141.041 292.995 140.471 292.941 139.958C292.858 139.263 292.734 138.574 292.567 137.895C292.462 137.447 292.297 136.868 292.234 136.476C292.229 136.432 292.216 136.39 292.194 136.352C292.172 136.314 292.142 136.281 292.107 136.255C292.026 135.89 291.907 135.525 291.585 135.346C291.062 135.057 290.616 135.346 290.283 135.752C289.85 136.292 289.441 136.879 289.062 137.46C288.623 138.122 288.182 138.933 288.19 139.728ZM289.638 137.698C290.004 137.101 290.417 136.535 290.876 136.006C291.417 135.465 291.52 136.611 291.612 136.946C291.627 137.008 291.661 137.063 291.709 137.103C291.904 138.055 292.213 138.995 292.305 139.958C292.332 140.228 292.475 141.117 292.145 141.293C291.918 141.354 291.678 141.348 291.455 141.274C291.088 141.198 290.726 141.098 290.372 140.977C289.868 140.804 288.867 140.568 288.824 139.895C288.77 139.117 289.205 138.325 289.641 137.698H289.638Z" fill="#CBE1F8"/>
<path d="M296.008 146.501C296.091 146.254 296.137 145.995 296.143 145.734C296.177 145.509 296.248 145.29 296.352 145.088C296.456 144.901 296.571 144.721 296.695 144.547C296.851 144.287 296.988 144.016 297.107 143.736C297.345 143.196 297.491 142.142 298.144 141.947C298.796 141.752 299.107 142.742 299.243 143.18C299.397 143.688 299.486 144.212 299.605 144.728C299.645 144.766 299.676 144.812 299.695 144.863C299.887 145.404 300.22 145.991 300.006 146.585C299.871 146.961 299.267 146.799 299.405 146.42C299.48 146.096 299.433 145.755 299.272 145.464C299.228 145.449 299.188 145.422 299.156 145.387C299.125 145.352 299.104 145.309 299.094 145.264C298.961 144.774 298.883 144.272 298.758 143.78C298.692 143.499 298.608 143.223 298.506 142.952C298.467 142.849 298.419 142.749 298.36 142.655C298.301 142.555 298.292 142.552 298.255 142.59C298.106 142.806 298.002 143.05 297.951 143.307C297.816 143.681 297.66 144.047 297.483 144.404C297.299 144.793 296.993 145.128 296.833 145.526C296.674 145.923 296.747 146.399 296.547 146.815C296.371 147.188 295.835 146.872 296.008 146.501Z" fill="#CBE1F8"/>
<path d="M291.744 127.443C291.855 128.186 292.619 128.556 293.009 129.148C293.151 129.404 293.261 129.677 293.336 129.959C293.398 130.148 293.523 130.7 293.78 130.703C294.183 130.703 294.078 129.6 294.091 129.351C294.143 128.316 294.611 127.329 294.884 126.34C294.895 126.301 294.914 126.264 294.939 126.232C294.965 126.199 294.996 126.172 295.032 126.152C295.068 126.132 295.107 126.119 295.147 126.115C295.188 126.11 295.229 126.113 295.269 126.124C295.308 126.135 295.345 126.153 295.377 126.179C295.41 126.204 295.437 126.235 295.457 126.271C295.477 126.307 295.49 126.346 295.495 126.386C295.5 126.427 295.496 126.468 295.485 126.508C295.188 127.589 294.722 128.605 294.706 129.735C294.706 130.408 294.592 131.235 293.78 131.322C293.009 131.405 292.778 130.24 292.597 129.713C292.297 128.865 291.287 128.554 291.143 127.597C291.087 127.216 291.685 127.04 291.744 127.443Z" fill="#CBE1F8"/>
<path d="M347.583 167.087C347.812 166.512 347.936 165.901 347.948 165.282C347.967 164.868 348.002 163.276 348.787 163.509C349.023 163.576 349.166 163.841 349.286 164.049C349.477 164.398 349.702 164.727 349.957 165.033C350.588 165.736 351.31 166.26 351.719 167.147C351.754 167.219 351.759 167.303 351.733 167.379C352.028 167.868 352.366 168.363 352.22 168.944C352.193 169.019 352.139 169.081 352.069 169.118C351.998 169.155 351.916 169.163 351.84 169.142C351.763 169.121 351.697 169.071 351.656 169.003C351.614 168.936 351.6 168.855 351.616 168.777C351.746 168.269 351.137 167.671 350.948 167.228C350.917 167.159 350.911 167.082 350.931 167.009C350.585 166.535 350.188 166.101 349.748 165.712C349.343 165.285 348.993 164.809 348.706 164.295C348.687 164.368 348.676 164.444 348.66 164.509C348.584 165.012 348.539 165.519 348.525 166.028C348.444 166.885 347.891 167.612 347.864 168.46C347.864 168.543 347.832 168.622 347.773 168.68C347.715 168.739 347.636 168.771 347.553 168.771C347.471 168.771 347.391 168.739 347.333 168.68C347.275 168.622 347.242 168.543 347.242 168.46C347.27 167.986 347.386 167.52 347.583 167.087Z" fill="#CBE1F8"/>
<path d="M339.849 114.536C339.795 114.144 340.391 113.974 340.45 114.371C340.534 114.963 340.856 115.479 340.97 116.066C341.084 116.653 340.945 117.309 341.013 117.926C341.595 117.677 342.055 117.055 342.637 116.82C343.506 116.466 344.383 116.231 345.074 115.558C345.361 115.288 345.802 115.715 345.515 115.996C344.808 116.688 343.942 116.982 343.038 117.326C342.256 117.623 341.685 118.501 340.851 118.623C340.771 118.643 340.687 118.631 340.616 118.591C340.544 118.55 340.492 118.483 340.469 118.404C340.301 117.745 340.399 117.074 340.385 116.404C340.372 115.733 339.939 115.179 339.849 114.536Z" fill="#CBE1F8"/>
<path d="M362.728 88.3875C363.736 89.4998 365.03 90.3142 366.47 90.7418C367.91 91.1694 369.439 91.1937 370.892 90.8121C372.345 90.4305 373.664 89.6577 374.707 88.578C375.75 87.4983 376.475 86.1533 376.804 84.6898C377.132 83.236 377.056 81.7204 376.585 80.3065C376.113 78.8926 375.264 77.634 374.129 76.6666C372.994 75.6991 371.616 75.0595 370.143 74.8167C368.671 74.5739 367.16 74.7372 365.773 75.2889C365.612 75.355 365.435 75.3753 365.262 75.3477C365.089 75.32 364.927 75.2455 364.794 75.1321C364.661 75.0188 364.562 74.8711 364.507 74.7051C364.453 74.5392 364.445 74.3615 364.485 74.1915L367.365 61.8091L404.794 70.4884L401.916 82.8707C401.876 83.0412 401.79 83.1973 401.667 83.3221C401.544 83.4469 401.389 83.5356 401.219 83.5786C401.049 83.6215 400.87 83.617 400.702 83.5656C400.535 83.5142 400.384 83.4178 400.268 83.287C399.263 82.1775 397.973 81.3641 396.538 80.9349C395.103 80.5058 393.577 80.4773 392.127 80.8526C390.677 81.228 389.357 81.9927 388.312 83.0639C387.266 84.1351 386.534 85.4718 386.195 86.929C385.856 88.3862 385.924 89.9082 386.39 91.3298C386.856 92.7514 387.704 94.0184 388.84 94.9931C389.977 95.9679 391.359 96.6133 392.836 96.8593C394.314 97.1052 395.831 96.9423 397.223 96.3883C397.385 96.3226 397.562 96.3026 397.735 96.3306C397.908 96.3585 398.07 96.4332 398.203 96.5466C398.337 96.66 398.437 96.8078 398.492 96.9738C398.547 97.1399 398.555 97.3179 398.516 97.4884L395.647 109.825L358.218 101.146L361.088 88.8092C361.127 88.6388 361.212 88.4824 361.334 88.3572C361.456 88.2319 361.61 88.1426 361.779 88.0991C361.949 88.0555 362.127 88.0594 362.294 88.1103C362.462 88.1611 362.612 88.2571 362.728 88.3875Z" fill="#699FCE"/>
<path d="M396.151 78.2594C396.454 77.9891 396.635 77.5945 396.946 77.3188C397.258 77.0431 397.826 76.9458 398.265 76.8323C398.769 76.6692 399.265 76.4807 399.751 76.2673C400.308 76.0715 400.851 75.8358 401.375 75.5619C401.42 75.5361 401.473 75.5259 401.525 75.5329C401.576 75.5399 401.624 75.5636 401.661 75.6004C401.698 75.6373 401.722 75.6852 401.729 75.7368C401.736 75.7884 401.726 75.8409 401.7 75.8862C401.49 76.2342 401.314 76.6018 401.175 76.9836C401.056 77.4242 401.033 77.8849 401.107 78.3351C401.177 79.1784 400.587 79.865 400.192 80.5489C400.16 80.603 400.109 80.6424 400.048 80.6583C399.987 80.6743 399.923 80.6655 399.869 80.634C399.814 80.6025 399.775 80.5507 399.759 80.4901C399.743 80.4296 399.752 80.3651 399.783 80.311C399.973 79.9812 400.192 79.6677 400.376 79.3325C400.598 78.9317 400.677 78.4677 400.601 78.0162C400.552 77.417 400.674 76.8163 400.953 76.2836C400.682 76.3971 400.436 76.4998 400.173 76.5998C399.67 76.7917 399.171 77.0052 398.668 77.1918C398.221 77.3566 397.696 77.3674 397.287 77.6323C396.946 77.8513 396.773 78.3081 396.475 78.5838C396.264 78.8027 395.929 78.4703 396.151 78.2594Z" fill="#CBE1F8"/>
<path d="M389.329 69.1964C389.394 68.8963 389.852 69.0234 389.787 69.3207C389.594 70.2046 390.217 70.81 390.561 71.5588C390.871 72.2651 391.101 73.004 391.246 73.7617C391.416 73.5914 391.579 73.4157 391.733 73.2211C391.954 72.9273 392.195 72.6483 392.453 72.3859C392.994 71.8885 393.641 71.5344 394.039 70.9046C394.202 70.6479 394.613 70.883 394.448 71.1425C394.058 71.7588 393.463 72.148 392.916 72.6075C392.625 72.8716 392.361 73.1641 392.128 73.4806C391.866 73.807 391.576 74.1099 391.262 74.3861C391.233 74.4148 391.196 74.4354 391.156 74.446C391.117 74.4566 391.075 74.4567 391.035 74.4464C390.995 74.436 390.959 74.4156 390.929 74.387C390.9 74.3585 390.878 74.3227 390.867 74.2834C390.731 73.3422 390.457 72.426 390.055 71.5642C389.868 71.1966 389.616 70.8641 389.451 70.483C389.275 70.0779 389.232 69.6273 389.329 69.1964Z" fill="#CBE1F8"/>
<path d="M382.949 77.8459C383.536 77.0809 384.302 76.6322 385.158 76.2052C385.759 75.9051 386.536 75.1916 387.261 75.4213C387.321 75.4384 387.372 75.4782 387.403 75.5323C387.434 75.5863 387.442 75.6503 387.426 75.7105C387.326 76.0178 387.246 76.3311 387.185 76.6485C387.145 77.0269 387.296 77.408 387.312 77.7864C387.342 78.5973 386.988 79.392 386.619 80.0975C386.479 80.3678 386.078 80.1299 386.211 79.8596C386.601 79.1136 386.944 78.2919 386.804 77.4269C386.728 77.1269 386.701 76.8165 386.725 76.5079C386.768 76.2855 386.825 76.0661 386.896 75.8511C386.677 75.8998 386.468 75.9858 386.278 76.1052C385.981 76.2646 385.699 76.4566 385.399 76.6079C384.635 76.989 383.888 77.3864 383.36 78.0756C383.176 78.3135 382.759 78.0783 382.949 77.8459Z" fill="#CBE1F8"/>
<path d="M375.091 67.3556C375.185 68.3314 376.049 68.8504 376.799 69.3207C377.198 69.5888 377.546 69.9267 377.825 70.3181C377.955 70.4938 378.057 70.7533 378.206 70.9506C378.181 70.208 378.354 69.4721 378.707 68.8179C378.898 68.5068 379.06 68.1783 379.189 67.8368C379.275 67.4271 379.2 67 378.978 66.6447C378.84 66.3745 379.249 66.1339 379.387 66.4069C379.585 66.7582 379.696 67.1524 379.709 67.5556C379.685 67.9067 379.577 68.2469 379.395 68.5476C379.171 68.9293 378.977 69.3279 378.815 69.7397C378.655 70.2703 378.619 70.8308 378.71 71.3777C378.734 71.5452 378.61 71.7263 378.417 71.6696C377.992 71.5425 377.776 71.1533 377.565 70.7938C377.28 70.3138 376.878 69.9138 376.395 69.6315C375.524 69.1288 374.717 68.4125 374.614 67.3556C374.587 67.0502 375.061 67.0529 375.091 67.3556Z" fill="#CBE1F8"/>
<path d="M367.143 69.7559C367.741 69.3045 368.432 69.0531 369.103 68.7368C369.601 68.5017 370.099 68.0854 370.681 68.1341C370.744 68.1355 370.803 68.1611 370.847 68.2055C370.891 68.2498 370.916 68.3095 370.917 68.3719C370.915 68.7941 370.886 69.2157 370.83 69.6342C370.8 70.0316 370.83 70.4289 370.808 70.8262C370.736 71.5832 370.464 72.3073 370.018 72.9238C369.842 73.1697 369.43 72.9238 369.606 72.6832C370.024 72.1121 370.277 71.4384 370.34 70.7344C370.372 70.3667 370.34 69.9991 370.356 69.6342C370.373 69.2693 370.432 68.9585 370.443 68.6206C370.002 68.6936 369.579 69.0396 369.187 69.2153C368.552 69.4637 367.946 69.7819 367.381 70.164C367.138 70.3505 366.902 69.937 367.143 69.7559Z" fill="#CBE1F8"/>
<path d="M377.987 85.6494C378.152 86.144 378.591 86.4468 378.894 86.8549C379.113 87.1468 379.297 87.4847 379.544 87.7577C379.546 87.3582 379.593 86.9601 379.684 86.5711C379.816 86.1241 379.992 85.6913 380.209 85.2791C380.401 84.9161 380.559 84.536 380.68 84.1438C380.799 83.6646 380.776 83.1612 380.613 82.695C380.521 82.4031 380.978 82.2788 381.07 82.568C381.36 83.4897 381.192 84.3141 380.8 85.1683C380.586 85.5828 380.395 86.0087 380.228 86.4441C380.065 87.0342 379.994 87.6459 380.017 88.2578C380.017 88.2992 380.005 88.3398 379.984 88.3755C379.963 88.4112 379.933 88.4408 379.897 88.4613C379.861 88.4818 379.82 88.4925 379.778 88.4924C379.737 88.4922 379.696 88.4812 379.66 88.4605C379.184 88.1604 378.907 87.6793 378.593 87.2279C378.242 86.7225 377.743 86.3792 377.54 85.7737C377.432 85.4845 377.887 85.3602 377.987 85.6494Z" fill="#CBE1F8"/>
<path d="M383.274 91.9716C383.631 91.404 384.059 90.8904 384.432 90.3282C384.603 90.0769 385.014 90.3147 384.841 90.5688C384.511 91.058 384.137 91.5202 383.81 92.0122C383.482 92.5041 382.998 93.1988 382.998 93.8475C382.998 94.0854 383.168 94.1773 383.382 94.2232C383.894 94.3259 384.465 94.1394 384.979 94.1286C385.585 94.1124 386.092 94.3989 386.625 94.6503C387.185 94.8787 387.711 95.1814 388.19 95.5504C388.425 95.7477 388.087 96.091 387.854 95.8856C387.326 95.498 386.749 95.1817 386.138 94.9449C385.855 94.7871 385.549 94.6749 385.231 94.6124C384.918 94.5921 384.603 94.6084 384.294 94.6611C383.609 94.7449 382.646 94.8017 382.527 93.9205C382.435 93.2529 382.938 92.5014 383.274 91.9716Z" fill="#CBE1F8"/>
<path d="M389.175 105.487C389.371 105.065 389.531 104.627 389.654 104.178C389.825 103.712 390.02 103.256 390.239 102.811C390.445 102.355 390.611 101.882 390.734 101.397C390.804 101.11 390.88 100.654 391.248 100.613C391.887 100.545 391.993 101.756 392.198 102.132C392.404 102.508 392.905 102.632 393.254 102.767C393.645 102.908 394 103.133 394.294 103.427C394.507 103.643 394.172 103.967 393.958 103.759C393.433 103.219 392.675 103.17 392.101 102.719C391.581 102.311 391.681 101.61 391.289 101.137C391.252 101.224 391.225 101.315 391.208 101.408C391.151 101.648 391.089 101.883 391.01 102.116C390.867 102.527 390.702 102.931 390.515 103.324C390.322 103.73 390.156 104.148 390.017 104.576C389.904 104.967 389.758 105.349 389.581 105.716C389.445 105.997 389.034 105.757 389.175 105.487Z" fill="#CBE1F8"/>
<path d="M380.366 98.8561C380.388 98.5534 380.862 98.5507 380.843 98.8561C380.817 99.277 380.899 99.6974 381.081 100.078C381.26 100.467 381.539 100.789 381.747 101.159C382.069 101.732 381.899 102.392 381.939 103.019C382.151 102.795 382.378 102.586 382.619 102.394C382.984 102.102 383.393 101.883 383.661 101.486C384.137 100.781 384.202 99.8643 384.551 99.0913C384.673 98.821 385.093 99.0534 384.96 99.3318C384.608 100.143 384.527 101.048 384.026 101.792C383.752 102.134 383.421 102.427 383.046 102.657C382.648 102.966 382.285 103.317 381.964 103.705C381.934 103.734 381.897 103.755 381.858 103.765C381.818 103.775 381.776 103.775 381.736 103.765C381.696 103.754 381.66 103.733 381.63 103.704C381.601 103.675 381.58 103.639 381.568 103.6C381.317 102.789 381.715 101.886 381.184 101.143C380.689 100.467 380.323 99.7076 380.366 98.8561Z" fill="#CBE1F8"/>
<path d="M370.751 94.1935C371.047 93.7285 371.318 93.2485 371.564 92.7555C371.712 92.4609 371.888 92.0744 372.197 91.9149C372.313 91.8643 372.444 91.8612 372.563 91.9062C372.681 91.9512 372.777 92.0406 372.83 92.1554C372.93 92.3236 373.004 92.5058 373.05 92.696C373.126 92.9382 373.223 93.1733 373.339 93.3988C373.767 94.2367 374.365 94.9692 374.606 95.8937C374.617 95.9523 374.606 96.0131 374.575 96.0638C374.543 96.1146 374.494 96.1516 374.436 96.1677C374.378 96.1837 374.317 96.1774 374.264 96.1502C374.21 96.123 374.169 96.0767 374.149 96.0207C373.959 95.2882 373.534 94.6692 373.15 94.034C372.968 93.7309 372.81 93.4136 372.679 93.0853C372.608 92.8988 372.565 92.7041 372.487 92.5203C372.464 92.4609 372.432 92.4053 372.392 92.3555C372.392 92.3555 372.392 92.3555 372.392 92.369C372.174 92.6129 372.003 92.8952 371.888 93.2015C371.688 93.5934 371.469 93.9745 371.236 94.3476C371.003 94.7206 370.765 95.0395 370.524 95.3801C370.283 95.7207 370.099 96.1018 370.234 96.5505C370.246 96.6091 370.234 96.6699 370.203 96.7206C370.171 96.7714 370.122 96.8085 370.064 96.8245C370.007 96.8405 369.945 96.8343 369.892 96.807C369.839 96.7798 369.798 96.7336 369.777 96.6775C369.466 95.6855 370.262 94.9503 370.751 94.1935Z" fill="#CBE1F8"/>
<path d="M360.866 98.4966C361.589 96.6451 363.573 96.0153 365.062 94.9206C365.098 94.9006 365.139 94.8903 365.18 94.8906C365.222 94.891 365.262 94.902 365.298 94.9227C365.334 94.9434 365.364 94.9729 365.385 95.0085C365.406 95.0442 365.418 95.0846 365.419 95.126C365.412 95.564 365.444 96.0017 365.514 96.4342C365.641 96.8556 365.795 97.2682 365.976 97.6695C366.236 98.4613 366.226 99.3164 365.949 100.102C365.857 100.394 365.408 100.27 365.492 99.9779C365.757 99.2104 365.744 98.3747 365.457 97.6155C365.273 97.2155 365.127 96.7992 365.021 96.3721C364.979 96.1038 364.956 95.8328 364.953 95.5612C363.632 96.4234 361.927 97.0613 361.323 98.6129C361.215 98.9048 360.755 98.7831 360.866 98.4966Z" fill="#CBE1F8"/>
<path d="M372.254 102.359C372.686 101.999 372.997 101.517 373.147 100.975C373.267 100.473 373.449 99.9869 373.688 99.5292C374.035 98.9886 375.026 98.4696 375.491 99.148C375.762 99.5427 375.613 100.197 375.591 100.64C375.564 101.14 375.732 101.632 376.06 102.01C376.474 102.516 377.337 103.419 376.672 104.057C376.452 104.267 376.13 103.935 376.336 103.721C376.755 103.319 375.776 102.421 375.543 102.116C375.299 101.782 375.153 101.387 375.12 100.975C375.072 100.505 375.207 100.032 375.139 99.5589C375.088 99.1967 374.75 99.2886 374.509 99.4075C374.181 99.61 373.945 99.9318 373.851 100.305C373.697 100.718 373.599 101.148 373.431 101.556C373.249 102.001 372.956 102.393 372.581 102.694C372.354 102.886 372.016 102.551 372.254 102.359Z" fill="#CBE1F8"/>
<path d="M199.051 209.521C204.533 215.614 243.198 242.998 234.961 253.342C225.1 265.735 210.507 274.466 196.653 262.532C187.087 254.289 178.346 245.138 170.553 235.208C165.434 228.688 160.586 221.455 159.671 213.222C158.756 204.989 163.046 195.633 171.04 193.395C176.535 191.855 182.504 193.936 187.097 197.328C191.691 200.72 195.24 205.28 199.051 209.521Z" fill="#FCB9A4"/>
<path d="M153.047 39.9799C152.83 38.1905 152.308 36.0957 150.611 35.4605C149.843 35.2134 149.015 35.2268 148.256 35.4984C145.671 36.3092 143.768 39.0825 142.122 41.107C140.211 43.4559 138.562 46.1427 138.224 49.216L151.545 57.2924C152.105 57.6303 152.898 57.9493 153.347 57.4898C153.524 57.275 153.636 57.0143 153.67 56.7383C154.211 54.057 153.618 52.0081 153.523 49.4052C153.418 46.2427 153.426 43.1289 153.047 39.9799Z" fill="#FE554E"/>
<path d="M106.152 153.973C112.919 153.835 119.787 153.524 126.5 153.559C157.107 153.721 186.345 185.492 200.597 209.7C201.287 210.87 201.98 212.157 201.828 213.506C201.642 215.152 200.264 216.379 198.946 217.39C192.852 222.053 186.028 225.677 178.749 228.115C168.682 231.486 171.535 249.555 173.26 257.929C174.838 265.589 174.916 273.517 176.459 281.112C178.316 290.251 179.339 299.633 180.739 308.853L120.959 315.324C111.255 316.375 101.493 317.427 91.7486 316.851C75.9509 315.919 60.0478 310.737 44.5885 314.116C43.1998 314.418 51.0581 295.806 51.5209 294.849C54.1954 289.311 56.9619 283.645 57.5709 277.528C58.1367 271.852 56.8076 266.195 55.5976 260.627C53.9734 253.15 52.1625 245.717 50.3921 238.276C48.768 231.456 47.9911 223.717 45.3004 217.274C40.8204 206.537 38.839 192.606 41.0532 181.175C42.2253 175.112 44.9837 169.15 49.7939 165.271C53.6296 162.179 58.4561 160.625 63.2122 159.346C77.4533 155.513 91.5077 154.275 106.152 153.973Z" fill="#AF78FA"/>
<path d="M138.053 161.525C139.751 163.836 141.792 165.882 143.77 168.098C144.911 169.378 145.899 170.784 146.715 172.291C146.892 172.564 146.994 172.879 147.013 173.204C146.975 173.544 146.848 173.869 146.645 174.145C145.021 176.799 144.601 177.556 141.534 177.929C138.808 178.261 136.056 178.44 133.313 178.551C127.793 178.781 122.263 178.588 116.771 177.975C105.835 176.729 95.0266 173.65 85.4225 168.209C84.7972 167.85 84.134 167.425 83.9716 166.79C83.8092 166.155 84.1962 165.514 84.5806 164.938C86.8409 161.546 89.5235 158.289 90.8932 154.589C92.1465 151.197 92.2223 147.615 92.29 144.096C92.5606 130.146 87.2794 106.214 104.287 96.9938C111.257 93.2096 121.07 93.0609 126.857 97.7371C131.651 101.608 132.864 107.703 133.468 113.401C134.385 122.075 134.483 130.816 133.76 139.509C133.286 145.185 133.276 151.224 135.33 156.616C136.011 158.368 136.927 160.019 138.053 161.525Z" fill="#FCB9A4"/>
<path d="M133.749 139.512C134.449 131.09 134.376 122.623 133.533 114.214C132.721 108.417 131.134 102.592 126.949 98.6047C123.016 94.8719 117.332 93.634 111.929 94.4881C111.652 94.5719 111.381 94.673 111.117 94.7908C107.836 96.2559 105.354 100.032 103.997 103.2C100.579 111.192 100.403 119.804 103.621 127.797C108.494 139.917 120.821 148.653 133.722 149.304C133.435 146.046 133.445 142.768 133.749 139.512Z" fill="#F5865E"/>
<path d="M160.131 117.626C157.218 127.878 150.096 138.817 139.155 141.077C128.214 143.336 116.958 139.882 108.434 132.738C99.4389 125.186 96.3287 115.588 90.7253 105.83C85.6093 96.91 82.3339 88.1821 82.0903 77.5945C81.7708 63.6336 87.0304 50.3999 98.3832 41.8693C104.441 37.3202 111.983 34.3307 119.53 35.0388C120.308 35.1127 121.073 35.2145 121.825 35.3443C141.483 38.7392 153.567 61.0874 158.231 78.4189C161.674 91.2121 163.753 104.876 160.131 117.626Z" fill="#FCB9A4"/>
<path d="M133.357 124.113C132.863 123.412 132.553 122.599 132.455 121.748C132.398 120.896 132.726 119.983 133.435 119.512C133.905 119.236 134.439 119.088 134.984 119.082C136.494 118.991 137.994 119.326 139.501 119.42C142.239 119.586 144.965 118.956 147.352 117.607C148.594 116.901 150.123 115.985 151.323 116.766C152.592 117.577 152.27 119.518 151.65 120.893C150.783 122.824 149.634 124.615 148.242 126.21C147.195 127.408 145.96 128.519 144.452 128.984C143.496 129.249 142.496 129.316 141.513 129.181C139.865 128.983 138.281 128.426 136.871 127.551C135.462 126.675 134.263 125.501 133.357 124.113Z" fill="#FE554E"/>
<path d="M140.4 122.845C137.684 122.614 135.064 121.735 132.758 120.283C132.916 119.974 133.148 119.71 133.435 119.515C133.905 119.239 134.439 119.09 134.984 119.085C136.494 118.993 137.994 119.328 139.501 119.423C142.239 119.589 144.965 118.959 147.352 117.609C148.594 116.904 150.123 115.988 151.323 116.769C151.477 116.867 151.615 116.989 151.731 117.131C150.935 118.118 150.057 119.037 149.106 119.877C147.752 121.075 146.16 122.188 144.195 122.65C142.949 122.917 141.667 122.982 140.4 122.845Z" fill="white"/>
<path d="M158.055 119.072C158.997 120.058 159.841 121.088 160.578 121.85C162.34 123.678 164.213 125.432 165.634 127.548C166.446 128.756 167.109 130.319 166.471 131.624C166.013 132.562 164.966 133.108 163.926 133.206C162.887 133.303 161.847 133.016 160.867 132.665C158.445 131.778 156.436 129.462 154.479 127.819C152.522 126.175 150.559 124.313 149.663 121.904C148.886 119.81 149.252 116.38 151.999 115.958C154.295 115.623 156.341 117.277 158.055 119.072Z" fill="#F5865E"/>
<path d="M158.799 53.5191C156.415 51.6543 153.511 50.5748 150.486 50.4296C149.628 50.3945 148.721 50.4296 147.966 50.0214C147.154 49.5782 146.661 48.7078 146.182 47.9023C138.99 35.7714 123.087 29.7221 109.503 33.1954C100.3 35.5497 91.8298 41.9882 86.0559 49.3781C78.8474 58.6034 72.459 74.3644 76.6602 85.9332C78.4657 90.904 81.8466 95.2287 83.33 100.305C84.6212 104.719 84.4128 109.427 85.1897 113.958C85.9666 118.488 88.2025 123.242 92.4632 124.989C92.8506 125.188 93.2952 125.248 93.7219 125.159C94.1902 125.01 94.4907 124.564 94.7533 124.148L100.795 114.525C102.197 112.293 103.629 109.984 104.076 107.384C104.839 102.962 102.644 98.621 101.91 94.1908C101.142 89.4795 103.02 75.5402 110.004 76.2349C109.926 84.6763 123.022 84.9655 128.094 81.1543C129.905 79.8028 131.343 77.9648 133.213 76.6971C137.201 73.9941 142.433 74.2644 147.211 74.8483C151.989 75.4321 157.048 76.1998 161.449 74.2482C165.851 72.2967 168.855 66.4096 165.994 62.5416C164.871 61.0226 163.558 60.0414 162.711 58.3601C161.993 56.862 161.003 55.5094 159.793 54.3705C159.481 54.0597 159.146 53.7894 158.799 53.5191Z" fill="#699FCE"/>
<path d="M31.6413 100.981C27.6783 104.335 22.3836 106.227 18.6994 109.955C13.8513 114.879 12.5601 122.929 15.6298 129.129C16.2064 130.289 16.9399 131.408 17.9902 132.17C18.8971 132.824 19.9798 133.176 21.0112 133.608C31.1378 137.863 36.3838 150.126 46.8001 153.61C53.026 155.697 60.3672 153.945 64.9744 149.286C66.7095 155.367 75.4556 158.013 80.282 153.916C84.023 150.737 84.7376 145.247 84.4074 140.352C83.8904 132.716 81.4785 125.259 81.4785 117.58C81.4785 114.152 82.0713 111.263 81.4568 107.952C80.8613 104.751 78.7499 101.697 80.079 98.3425C80.975 96.0775 83.2407 94.726 85.1355 93.1907C93.6948 86.2575 95.4219 72.3426 88.8115 63.5309C88.3186 62.796 87.6722 62.1763 86.9167 61.7145C82.7047 59.4629 76.5005 57.1951 71.7579 55.8301C65.8676 54.1381 59.5388 53.7624 53.6215 55.5734C43.7331 58.6007 35.8208 68.9098 37.851 79.0379C38.3409 81.4706 39.3587 83.8654 39.2044 86.3494C39.0988 88.0091 38.4708 89.593 37.851 91.131C36.7682 93.8097 35.6854 96.537 33.8528 98.7723C33.1858 99.5753 32.4454 100.315 31.6413 100.981Z" fill="#699FCE"/>
<path d="M149.755 99.2454C148.802 97.1019 147.154 95.272 146.055 93.1988C144.566 90.3958 143.722 87.2523 142.991 84.1844C142.617 82.6139 140.094 82.8923 140.471 84.479C141.367 88.2388 142.401 92.0473 144.377 95.399C145.335 97.0208 146.512 98.5318 147.403 100.2C148.553 102.362 146.862 103.511 145.159 104.505C143.751 105.316 145.289 107.343 146.686 106.53C149.628 104.816 151.228 102.567 149.755 99.2454Z" fill="black"/>
<path d="M131.067 66.0285C128.468 66.2204 126.438 66.0663 124.738 63.931C123.341 62.1713 122.423 60.0279 121.167 58.1628C118.896 54.7895 115.483 53.5407 111.58 53.0542C109.955 52.8542 109.571 55.3571 111.195 55.5598C113.65 55.8653 115.892 56.3572 117.784 58.0331C119.6 59.6549 120.691 62.2146 121.906 64.2499C124.118 67.9638 127.223 68.845 131.362 68.5368C132.997 68.4233 132.694 65.9068 131.067 66.0285Z" fill="black"/>
<path d="M143.662 56.8492C135.888 51.108 129.857 43.8505 119.267 45.3074C117.643 45.5318 117.941 48.0456 119.562 47.8239C129.345 46.4724 134.959 53.5704 142.089 58.8386C143.402 59.8089 144.98 57.8222 143.662 56.8492Z" fill="black"/>
<path d="M68.6747 87.5387C64.6143 91.0526 61.0304 94.9368 60.6893 100.554C60.2372 108.008 66.1031 113.258 67.2049 120.266C67.4566 121.875 69.9768 121.585 69.725 119.972C68.7695 113.879 64.2949 109.2 63.3421 103.116C62.4244 97.2641 66.0815 93.1312 70.2041 89.5633C71.4277 88.4983 69.9145 86.4657 68.6747 87.5387Z" fill="black"/>
<path d="M44.713 113.212C44.6129 116.898 45.0514 120.51 45.2544 124.194C45.5088 128.694 44.0254 132.427 41.3293 135.998C40.3467 137.301 42.3336 138.874 43.3189 137.565C45.8662 134.195 47.558 130.632 47.7881 126.375C48.0182 122.118 47.1005 117.866 47.2169 113.595C47.2629 111.982 44.7563 111.582 44.713 113.212Z" fill="black"/>
<path d="M66.1086 71.0884C60.7461 71.7966 54.8613 73.4427 50.9904 77.4566C46.8731 81.7274 46.5104 87.1874 48.2537 92.6474C48.7517 94.2016 51.1014 93.242 50.606 91.6932C48.9981 86.6657 49.6423 81.8679 53.7785 78.3324C57.2244 75.3862 62.013 74.1833 66.4036 73.6049C68.0251 73.3887 67.73 70.8749 66.1086 71.0884Z" fill="black"/>
<path d="M79.1992 65.0851C75.821 72.5994 77.7916 80.3407 76.6791 88.2118C76.4517 89.8336 78.9583 90.212 79.1884 88.5983C80.2712 81.0057 78.2735 73.3319 81.5245 66.1014C82.1958 64.6013 79.8679 63.5985 79.1992 65.0851Z" fill="black"/>
<path d="M118.723 100.532C117.451 101.013 116.52 102.043 116.36 103.776C116.165 105.878 117.408 107.157 119.194 108.192C121.776 109.69 127.02 110.452 127.951 106.6C128.974 102.378 122.413 99.1426 118.723 100.532Z" fill="#F59776"/>
<path d="M153.32 102.638C153.451 103.035 153.668 103.399 153.956 103.703C157.042 106.87 160.938 99.4643 160.101 96.7937C159.395 94.5422 157.727 93.8853 155.711 94.9909C153.772 96.0531 152.465 100.218 153.32 102.638Z" fill="#F59776"/>
<path d="M130.303 94.6043C130.414 93.5718 130.525 92.523 130.322 91.504C130.119 90.485 129.545 89.4903 128.611 89.0308C128.035 88.7605 127.577 88.8551 127.023 89.1308C126.713 89.3153 126.479 89.6023 126.359 89.9417C125.905 90.958 125.983 91.9311 126.007 93.0069C126.032 94.0827 126.262 95.2666 127.047 96.0261C127.832 96.7856 129.313 96.8775 129.924 95.9747C130.16 95.5553 130.29 95.085 130.303 94.6043Z" fill="black"/>
<path d="M150.505 86.0305C150.505 86.0305 150.505 86.0467 150.505 86.0548C150.472 86.2258 150.459 86.3998 150.465 86.5738C150.475 87.5663 150.641 88.5511 150.954 89.493C151.19 90.2012 151.461 91.1986 152.2 91.5419C152.939 91.8851 153.797 91.4797 154.249 90.8391C154.701 90.1985 154.806 89.3795 154.82 88.5956C154.836 87.5144 154.671 86.3413 153.959 85.5142C152.987 84.4006 150.884 84.3898 150.505 86.0305Z" fill="black"/>
<path d="M121.728 84.1817C121.78 84.2646 121.85 84.3354 121.932 84.3894C122.014 84.4435 122.107 84.4795 122.204 84.4952C123.303 84.7223 124.64 84.5655 125.75 84.4709C126.932 84.3704 128.104 84.177 129.256 83.8924C129.862 83.7411 130.46 83.5681 131.05 83.3681C131.546 83.2005 132.477 83.0302 132.696 82.5572C133.127 81.6192 131.884 80.5164 131.137 80.184C130.244 79.7812 129.229 79.7542 128.249 79.7866C127.209 79.8172 126.171 79.9074 125.141 80.0569C124.515 80.1194 123.905 80.2914 123.338 80.5651C122.574 81.0058 122.015 81.7308 121.785 82.5815C121.641 83.0653 121.473 83.7681 121.728 84.1817Z" fill="black"/>
<path d="M155.334 76.2241C154.679 75.9045 153.963 75.7311 153.234 75.7159C152.736 75.7159 152.275 75.8376 151.767 75.8268C150.457 75.8007 149.163 76.1067 148.004 76.716C147.497 76.9525 147.064 77.3203 146.748 77.781C146.598 78.0149 146.518 78.287 146.518 78.5649C146.518 78.8428 146.598 79.1148 146.748 79.3487C147.154 79.8893 147.936 79.9569 148.616 79.9299C150.191 79.8675 151.75 79.5948 153.253 79.119C154.043 78.8676 156.501 78.3324 156.255 77.1323C156.154 76.6863 155.735 76.4052 155.334 76.2241Z" fill="black"/>
<path d="M176.871 289.586C174.434 280.037 174.085 270.236 173.936 260.429C173.798 251.147 173.343 241.881 173.165 232.589C172.851 216.198 172.678 199.037 164.906 184.154C164.148 182.705 161.961 183.984 162.716 185.432C170.753 200.831 170.333 218.806 170.691 235.7C170.883 244.744 171.286 253.777 171.438 262.827C171.595 272.052 172.133 281.283 174.415 290.257C174.83 291.841 177.274 291.17 176.871 289.586Z" fill="black"/>
<path d="M155.137 291.784C137.812 300.485 116.758 298.909 98.6187 293.768C97.0406 293.319 96.372 295.763 97.9447 296.2C116.78 301.539 138.459 302.982 156.414 293.962C157.879 293.235 156.596 291.051 155.137 291.784Z" fill="black"/>
<path d="M127.74 251.274C125.193 247.898 122.107 250.442 119.914 253.201C119.595 250.028 118.747 246.244 116.203 246.666C114.89 246.882 114.357 248.466 114.037 249.552C113.114 252.577 113.117 255.98 113.09 259.105C113.076 260.727 115.613 260.727 115.626 259.105C115.651 256.237 115.475 252.672 116.568 249.882C116.652 250.139 116.717 250.401 116.788 250.653C117.356 252.677 117.489 254.829 117.627 256.915C117.708 258.156 119.302 258.664 119.99 257.556C120.745 256.275 121.597 255.054 122.537 253.902C123.122 253.218 123.807 252.55 124.678 252.28C125.864 251.899 126.173 253.715 126.051 254.442C125.531 257.48 122.559 259.848 120.875 262.281C119.941 263.632 122.139 264.892 123.065 263.559C125.244 260.381 130.91 255.475 127.74 251.274Z" fill="white"/>
<path d="M103.277 199.947C100.57 197.282 97.5197 199.101 95.3704 201.569C95.0997 196.263 93.8843 188.941 88.3324 191.839C85.8069 193.16 85.8529 197.307 85.8962 199.677C85.9612 202.737 86.5134 205.791 87.1089 208.786C87.4283 210.386 89.8727 209.708 89.5451 208.113C88.752 204.126 87.8073 199.688 88.733 195.655C88.9496 194.698 89.3719 193.863 90.4411 193.852C91.9543 193.852 92.3143 196.753 92.5092 197.777C92.9992 200.35 92.8882 203.034 92.8963 205.64C92.8963 206.835 94.6991 207.459 95.2595 206.281C96.2312 204.234 98.5078 200.034 101.38 201.685C104.577 203.513 100.922 208.581 99.485 210.094C98.3589 211.278 100.148 213.068 101.277 211.886C104.217 208.816 106.943 203.548 103.277 199.947Z" fill="white"/>
<path d="M160.594 210.643C160.377 209.021 157.933 209.719 158.158 211.316C158.31 211.78 158.353 212.273 158.282 212.757C157.404 212.077 156.728 211.172 156.325 210.138C155.927 209.07 154.146 208.8 153.889 210.138C153.553 211.83 152.995 213.538 151.88 214.884C151.009 215.938 149.677 215.395 149.276 214.27C148.938 213.324 149.217 212.157 149.425 211.224C150.153 207.967 151.961 205.034 153.512 202.121C154.279 200.677 152.089 199.399 151.323 200.842C149.176 204.88 145.278 210.597 146.992 215.371C147.687 217.319 150.126 218.652 152.094 217.779C153.805 217.025 154.882 215.346 155.567 213.562C156.295 214.333 157.086 215.043 157.93 215.684C158.583 216.206 159.443 216.165 159.923 215.414C160.938 213.819 160.843 212.489 160.594 210.643Z" fill="white"/>
<path d="M192.614 188.371C191.68 186.3 190.245 184.481 189.341 182.402C188.757 181.051 186.794 182.219 187.373 183.551C188.567 186.284 191.209 188.881 191.377 191.974C191.515 194.504 185.064 189.595 184.307 189C183.494 188.36 182.035 188.906 182.412 190.106C182.788 191.306 184.805 198.815 181.456 198.245C180.059 198.007 178.985 196.69 178.246 195.59C176.835 193.498 176.18 190.976 175.809 188.514C175.587 187.068 173.392 187.684 173.611 189.117C174.264 193.347 176.413 199.983 181.535 200.529C183.229 200.71 184.634 199.412 185.184 197.92C185.784 196.298 185.738 194.487 185.43 192.739C188.01 194.631 191.342 196.428 193.123 193.868C194.268 192.209 193.353 190.019 192.614 188.371Z" fill="white"/>
<path d="M158.396 265.605C154.712 263.581 152.281 266.751 151.19 269.954C149.693 268.135 147.977 266.46 145.714 265.659C143.148 264.749 140.3 266.449 139.572 268.976C138.844 271.503 140.446 274.255 141.737 276.274C143.091 278.385 144.791 280.253 146.393 282.18C147.333 283.31 148.935 281.694 148.004 280.575C145.668 277.763 142.214 274.498 141.724 270.695C141.407 268.23 143.873 267.181 145.882 268.198C147.982 269.279 149.517 271.441 150.927 273.274C151.428 273.922 152.706 273.571 152.822 272.774C153.177 270.492 154.446 265.843 157.619 267.8C160.253 269.422 160.307 273.193 159.267 275.715C158.707 277.066 160.913 277.655 161.463 276.32C163 272.614 162.145 267.657 158.396 265.605Z" fill="white"/>
<path d="M90.682 264.795C89.3638 264.173 88.2052 266.146 89.5343 266.76C91.0339 267.465 92.5985 268.019 94.0901 268.746C95.3244 269.349 97.7742 270.446 97.8798 272.06C98.1504 275.725 89.4558 271.536 88.0753 271.163C87.1739 270.92 86.1804 271.974 86.7895 272.833C88.8819 275.774 91.7756 279.028 91.3777 282.834C87.8371 282.815 85.0625 278.418 83.2759 275.917C82.4313 274.733 80.4553 275.869 81.3107 277.066C83.9662 280.785 87.4364 285.778 92.6581 284.98C92.8495 284.931 93.0242 284.831 93.1641 284.691C93.304 284.551 93.404 284.377 93.4539 284.186C94.2498 280.504 92.7149 277.428 90.766 274.528C94.4068 275.879 98.8732 277.231 100.064 272.866C101.331 268.273 93.5893 266.16 90.682 264.795Z" fill="white"/>
<path d="M121.311 57.187C128.471 52.9785 136.158 51.3243 144.55 50.5999C146.986 50.389 148.729 50.2161 151.206 50.8215C150.28 46.6833 146.412 42.5612 142.303 41.3773C137.39 39.9637 133.016 40.8178 128.322 42.6099C125.642 43.6343 122.957 44.6668 120.382 45.9318C115.044 48.564 110.242 52.1632 106.22 56.5464C101.856 61.301 99.3604 66.4853 96.9729 72.4129C93.9764 79.8488 92.3928 89.1173 97.379 96.0937C96.8376 95.326 98.0557 91.4391 98.2506 90.5012C98.663 88.5314 99.178 86.5844 99.7935 84.6682C100.895 81.2489 102.444 78.2027 104.149 75.0672C107.568 68.7791 112.376 63.3512 118.209 59.1953C119.232 58.4745 120.266 57.8051 121.311 57.187Z" fill="#FE554E"/>
<path d="M114.213 56.2626C110.267 60.1522 100.37 69.4558 100.949 70.6587C97.0433 62.5497 96.3801 53.6299 96.9946 44.7398C97.111 43.0613 97.5116 41.0638 99.0762 40.434C100.262 39.9583 101.596 40.5124 102.728 41.1097C106.659 43.2006 110.213 45.9331 113.242 49.1943C114.682 50.7458 116.084 52.7298 115.648 54.803C115.41 55.0706 114.901 55.5842 114.213 56.2626Z" fill="#FE554E"/>
<path d="M102.36 115.109C116.993 117.772 107.338 92.0149 103.805 87.3982C103.318 86.7603 102.752 86.117 101.983 85.8953C101.115 85.644 100.2 85.9818 99.3604 86.3143C93.121 88.7875 90.9148 90.2877 90.8363 97.4235C90.7768 102.87 93.0019 108.876 97.2166 112.457C98.7027 113.72 100.427 114.76 102.36 115.109Z" fill="#FCB9A4"/>
<path d="M107.912 89.5173C101.144 83.541 91.6403 86.8819 89.8997 95.672C88.1375 104.576 93.5947 114.909 102.974 116.028C104.598 116.223 104.983 113.72 103.359 113.525C95.7792 112.62 92.6662 105.862 92.2791 98.9534C91.8189 90.7472 99.8585 85.7656 106.355 91.504C107.568 92.5906 109.132 90.5958 107.912 89.5173Z" fill="black"/>
<path d="M109.113 100.564C107.76 97.6857 105.408 95.7801 102.888 93.9286C101.572 92.9609 99.9966 94.9449 101.315 95.918C103.442 97.4857 105.597 99.0669 106.753 101.519C107.465 102.984 109.812 102.048 109.113 100.564Z" fill="black"/>
<path d="M114.286 57.7979C113.523 56.6302 113.006 55.349 112.411 54.0921C111.799 52.9032 111.035 51.7991 110.137 50.808C108.176 48.5167 105.827 46.5864 103.199 45.1047C102.116 44.4803 101.12 46.1643 102.214 46.786C104.522 48.1152 106.608 49.798 108.393 51.773C110.332 53.8867 111.071 56.4356 112.6 58.7818C113.285 59.8305 114.974 58.8548 114.286 57.7979Z" fill="black"/>
<path d="M150.668 47.4725C150.103 46.5059 149.426 45.6103 148.648 44.8047C147.495 43.6722 145.941 43.0478 144.712 42.0071C143.759 41.1962 142.371 42.572 143.334 43.3856C144.298 44.1992 145.44 44.8615 146.515 45.5832C147.869 46.5022 148.651 47.9212 149.493 49.2835C149.604 49.4638 149.77 49.6033 149.968 49.6813C150.165 49.7592 150.382 49.7715 150.586 49.7161C150.791 49.6608 150.972 49.5408 151.103 49.3742C151.234 49.2076 151.307 49.0032 151.312 48.7916C151.312 48.6537 151.331 48.5213 151.342 48.3807C151.37 48.1715 151.315 47.9596 151.189 47.79C151.063 47.6204 150.876 47.5065 150.668 47.4725Z" fill="black"/>
<path d="M146.599 175.469C124.519 182.01 100.714 176.069 81.4785 164.36C80.3957 163.703 79.4212 165.39 80.4932 166.044C100.164 178.015 124.567 184.035 147.121 177.348C148.321 176.991 147.798 175.11 146.599 175.469Z" fill="black"/>
<path d="M25.4586 277.35C26.1558 276.785 26.8901 276.268 27.6567 275.801C42.7153 266.63 71.0325 275.731 87.2334 278.604C94.9824 279.977 102.742 281.275 110.513 282.496C111.958 282.723 114.102 283.499 115.534 283.248C117.11 282.977 119.013 281.396 120.453 280.672C123.846 278.918 127.383 277.456 131.026 276.304C136.61 274.606 142.344 273.69 147.961 272.179C154.026 270.557 160.133 269.095 166.281 267.792C167.981 267.435 169.8 267.097 171.424 267.708C171.882 267.858 172.285 268.14 172.583 268.519C174.938 271.822 166.923 274.385 165.03 275.198C162.941 276.093 149.918 280.064 150.142 281.539C150.299 282.621 151.818 282.723 152.898 282.534C159.576 281.361 166.216 280.069 172.862 278.75C174.284 278.417 175.734 278.218 177.193 278.155C178.21 278.155 179.307 278.299 180.046 278.996C181.15 280.037 180.991 281.94 180.076 283.15C179.161 284.361 177.702 285.021 176.286 285.54C170.009 287.824 163.065 288.31 157.199 291.505C158.049 292.392 159.481 292.241 160.694 292.032C166.189 291.076 171.706 290.255 177.244 289.57C178.508 289.413 179.821 289.267 181.034 289.673C182.247 290.078 183.305 291.197 183.199 292.465C183.067 294.257 181.191 295.23 179.743 295.838C172.377 298.944 164.097 298.633 157.099 302.596C157.489 303.323 158.404 303.563 159.224 303.677C163.747 304.296 168.322 303.253 172.886 303.204C174.556 303.185 176.586 303.55 177.16 305.115C176.077 307.439 174.811 308.248 172.353 308.829C169.064 309.607 165.737 310.096 162.407 310.637C157.096 311.497 151.878 312.443 146.537 313.07C141.394 313.67 136.938 314.027 131.784 313.556C123.537 312.808 115.242 312.756 106.986 313.402C100.825 313.883 94.6639 314.229 88.4759 314.518C85.7338 314.648 82.989 314.789 80.2441 314.824C63.9349 315.094 42.2524 313.381 26.9177 307.504C13.8053 302.463 15.4132 285.478 25.4586 277.35Z" fill="#FCB9A4"/>
<path d="M116.089 289.678C114.138 274.614 131.584 270.073 138.557 259.405C139.872 257.391 140.801 255.08 142.476 253.364C143.343 252.469 144.661 251.72 145.795 252.237C151.379 254.777 142.292 271.99 140.381 275.296C137.101 280.895 133.055 286.01 128.36 290.494C126.265 292.514 120.626 296.838 117.83 294.114C116.985 293.303 116.541 292.132 116.314 290.976C116.218 290.534 116.143 290.102 116.089 289.678Z" fill="#FCB9A4"/>
<path d="M24.0077 183.262C30.8184 168.285 46.1748 152.737 63.7995 162.052C70.4586 165.566 75.1064 172.037 78.2654 178.864C86.6758 197.047 80.4823 220.179 75.7506 238.77C76.5032 235.816 20.2965 227.931 16.1712 227.431C13.494 227.11 16.0764 213.262 19.008 201.112C21.0734 192.52 23.3256 184.77 24.0077 183.262Z" fill="#AF78FA"/>
<path d="M58.8242 208.105C60.7434 212.289 64.8011 211.057 68.2579 209.186C66.8584 212.159 66.0923 215.576 69.4381 216.738C74.2808 218.417 77.077 211.162 78.7337 207.878C79.3941 206.567 77.3802 205.518 76.7116 206.829C75.9943 208.254 75.3067 209.684 74.4973 211.059C73.7827 212.276 72.3101 214.992 70.5804 214.708C67.259 214.168 71.5766 207.797 72.4536 206.44C73.0978 205.443 71.7281 204.388 70.8294 204.961C68.6043 206.372 62.7087 211.116 60.849 207.081C58.9812 202.999 65.3696 198.745 68.515 197.661C69.901 197.182 69.2161 195.015 67.8275 195.498C63.1986 197.088 56.2608 202.513 58.8242 208.105Z" fill="white"/>
<path d="M35.7017 195.474C31.1297 196.036 31.0809 200.272 31.8199 204.124C29.4189 201.896 26.3763 200.131 24.2568 202.967C21.1898 207.07 27.275 211.922 29.9088 214.489C30.9618 215.514 32.5724 213.906 31.533 212.881C30.3907 211.768 29.2348 210.681 28.1656 209.497C27.2209 208.448 25.0688 206.226 25.862 204.667C27.3887 201.669 32.161 207.702 33.1923 208.943C33.9503 209.859 35.3579 208.873 35.0872 207.837C34.4104 205.291 31.6656 198.242 36.0752 197.699C40.5362 197.158 42.672 204.515 42.7559 207.837C42.7938 209.3 45.073 209.305 45.0351 207.837C44.9025 202.964 41.8166 194.723 35.7017 195.474Z" fill="white"/>
<path d="M53.026 170.874C50.6574 169.993 48.6949 170.969 47.2629 172.588C46.7216 169.971 45.4276 167.385 42.7776 167.333C38.0134 167.239 39.2775 174.445 39.9596 177.132C40.363 178.716 42.81 178.043 42.3959 176.459C42.2578 175.918 40.88 169.566 42.6828 169.863C45.046 170.25 45.1191 174.926 45.0757 176.54C45.027 178.059 47.0843 178.14 47.5661 176.875C48.278 175.01 50.0023 172.15 52.3926 173.361C54.6149 174.491 53.8976 177.824 53.2669 179.616C52.7255 181.162 55.1617 181.821 55.7031 180.291C56.8455 177.099 56.8455 172.299 53.026 170.874Z" fill="white"/>
<path d="M73.179 171.639C72.5186 170.828 73.6744 169.652 74.343 170.477C79.8922 177.326 82.6722 185.314 83.69 193.993C84.2612 198.888 84.6402 203.824 84.2693 208.746C84.0907 211.1 83.6765 213.427 83.4085 215.773C83.1757 217.82 82.9429 219.874 82.2824 221.836C81.9441 222.834 80.3551 222.404 80.6962 221.398C81.3729 219.398 81.5895 217.311 81.8277 215.222C82.074 213.06 82.434 210.916 82.6235 208.735C83.0187 204.207 82.6235 199.685 82.1742 195.177C81.3242 186.562 78.6931 178.437 73.179 171.639Z" fill="black"/>
<path d="M101.345 280.264C105.161 281.261 109.113 282.123 113.071 282.207C114.002 282.229 114.933 282.145 115.846 281.956C116.89 281.74 116.985 281.066 117.248 280.158C117.845 278.116 118.975 276.269 120.523 274.806C123.996 271.42 128.871 269.852 132.066 266.17C133.771 264.205 135.043 261.786 136.448 259.602C137.743 257.55 139.211 255.612 140.836 253.81C141.551 253.028 142.752 254.15 142.038 254.931C138.462 258.834 136.34 263.751 132.888 267.725C129.275 271.89 123.314 273.19 120.071 277.815C119.463 278.761 119.015 279.8 118.745 280.891C118.577 281.461 118.425 282.15 118.006 282.602C116.923 283.759 115.028 283.81 113.553 283.845C109.352 283.951 105.021 282.918 100.982 281.864C99.956 281.599 100.319 279.996 101.345 280.264Z" fill="black"/>
<path d="M298.677 39.1149L297.762 35.7038C297.329 34.055 297.008 32.9612 296.798 32.4224C296.403 31.2601 296.342 30.2474 296.614 29.3842C296.859 28.6983 297.294 28.0957 297.867 27.6462C298.507 27.0979 299.186 26.5982 299.9 26.1515C303.837 23.7273 308.101 21.8795 312.563 20.6644C317.014 19.4535 322.162 19.8076 328.009 21.7267C332.068 22.9881 335.083 25.1595 337.056 28.2409C339.028 31.3223 340.201 34.4568 340.575 37.6445C340.948 40.8376 340.866 43.2955 340.328 45.0182C338.868 49.6728 336.512 53.338 333.261 56.0139C330.009 58.6899 326.594 60.4387 323.018 61.2604C319.441 62.0857 317.283 62.6191 316.545 62.8606C315.405 63.1687 314.322 63.8958 313.297 65.0419C312.272 66.188 311.625 67.1926 311.356 68.0557L309.139 75.597C308.847 76.8314 308.362 77.6972 307.686 78.1946C307.405 78.4292 307.071 78.5907 306.713 78.6648C306.355 78.7389 305.984 78.7231 305.634 78.6189L297.437 76.2025C295.934 75.5448 295.424 74.2969 295.908 72.4588C296.915 68.3287 297.648 65.5302 298.108 64.0634C300.487 56.7636 308.411 51.4306 321.881 48.0645C323.06 47.7326 324.125 47.0826 324.958 46.1859C325.825 45.3153 326.474 44.2532 326.853 43.0856C327.103 41.4525 327.021 39.7859 326.612 38.1851C326.19 36.3489 324.914 35.0515 322.785 34.2928C320.538 33.59 317.199 34.0405 312.769 35.6443C308.979 36.9666 305.282 38.5387 301.701 40.3502C301.428 40.5111 301.123 40.6071 300.807 40.6306C300.492 40.6541 300.176 40.6046 299.883 40.4858C299.59 40.367 299.328 40.1822 299.118 39.9458C298.909 39.7094 298.757 39.4278 298.674 39.123L298.677 39.1149ZM302.093 90.4255C302.856 90.6595 303.53 91.1172 304.028 91.7392C304.28 92.0489 304.446 92.419 304.509 92.8126C304.573 93.2063 304.532 93.6097 304.391 93.9827L302.226 101.392C302.009 102.083 301.42 102.681 300.458 103.184C299.496 103.686 298.626 103.817 297.849 103.576L294.059 102.532C292.978 102.183 291.922 101.758 290.9 101.262C290.064 100.901 289.504 99.9697 289.219 98.4669C289.089 97.6686 289.443 95.9333 290.28 93.261C290.722 91.8817 291.241 90.5281 291.834 89.2065C291.942 88.8632 292.321 88.5578 292.973 88.2848C293.626 88.0118 294.126 87.9361 294.473 88.0442C295.881 88.3804 297.271 88.79 298.636 89.2714C300.407 89.8795 301.568 90.2634 302.093 90.4255Z" fill="#AF78FA"/>
<path d="M174.001 144.307C174.305 144.163 174.566 143.944 174.762 143.671C176.302 141.733 176.007 138.966 175.631 136.519C175.273 134.189 175.068 132.943 173.525 131.159C172.025 129.424 170.006 128.324 168.173 127C165.908 125.364 152.668 112.674 150.532 119.107C150.339 119.782 150.339 120.497 150.532 121.172C151.415 124.734 154.536 127.118 157.096 129.459C161.387 133.373 165.369 137.622 169.278 141.852C170.404 143.077 172.104 145.096 174.001 144.307Z" fill="#FCB9A4"/>
<path d="M174.475 121.726C178.535 114.698 185.056 106.589 192.119 109.773C194.72 110.952 197.327 113.087 199.387 115.044C207.995 123.223 210.464 135.303 214.992 145.858C221.437 160.9 226.919 176.283 232.211 191.755C237.66 207.197 242.227 222.685 240.38 239.219C239.414 247.944 234.645 255.564 226.96 260.01C219.827 264.132 211.782 260.708 207.589 254.064C199.82 241.741 199.116 226.431 197.657 212.378C196.707 203.221 196.455 193.998 196.122 184.808C195.954 180.116 195.768 175.423 195.454 170.736C195.221 167.241 195.814 160.968 194.049 157.886C192.882 155.846 189.737 155.167 187.715 154.194C184.978 152.915 182.343 151.427 179.835 149.745C175.26 146.602 170.794 142.277 169.954 136.53C169.524 133.573 170.149 130.584 171.351 127.881C172.287 125.777 173.33 123.723 174.475 121.726Z" fill="#FCB9A4"/>
<path d="M176.243 123.413C180.132 120.126 183.906 116.628 187.882 113.568C188.265 113.236 188.705 112.977 189.182 112.803C190.735 112.344 192.194 113.76 193.026 115.15C196.168 120.41 196.184 127.043 199.138 132.416C199.452 132.981 199.806 133.633 199.584 134.238C199.362 134.844 198.713 135.1 198.125 135.319C193.545 136.96 189.691 140.814 187.66 145.18C187.56 145.449 187.404 145.694 187.203 145.899C186.843 146.212 186.318 146.22 185.849 146.231C183.37 146.295 180.934 146.891 178.706 147.98C178.401 148.162 178.058 148.272 177.704 148.302C177.217 148.302 176.797 147.975 176.424 147.661C174.123 145.723 171.183 143.436 170.469 140.458C170.038 138.679 169.437 136.944 169.05 135.157C168.92 134.544 167.735 129.835 168.187 129.54C170.999 127.67 173.69 125.623 176.243 123.413Z" fill="#F59776"/>
<path d="M193.494 141.669C195.764 142.087 197.814 143.289 199.287 145.064C204.238 151.01 198.946 155.875 193.302 158.243C190.532 159.406 187.287 160.457 184.258 160.6C178.211 160.87 172.247 157.762 167.245 154.7C161.858 151.402 158.312 147.002 153.515 143.058C152.874 142.517 152.146 141.952 152.037 141.131C151.78 139.19 154.652 136.784 156.349 136.752C161.222 136.665 164.254 141.347 168.241 143.353C171.235 144.869 175.33 146.866 178.614 145.036C182.718 142.742 188.564 140.674 193.494 141.669Z" fill="#FCB9A4"/>
<path d="M198.688 117.196C198.577 117.227 198.475 117.285 198.391 117.363C196.48 119.107 196.899 123.58 196.225 125.913C195.824 127.286 195.294 128.651 194.411 129.778C193.529 130.905 192.246 131.778 190.819 131.916C189.642 132.032 188.269 131.459 187.999 130.294C187.934 129.91 187.934 129.517 187.999 129.132C188.321 126.024 188.673 122.915 188.965 119.81C189.22 117.085 189.285 113.482 191.044 111.271C191.632 110.482 192.466 109.912 193.415 109.649C197.809 108.603 200.356 113.239 202.121 116.347C202.738 117.428 203.344 118.591 203.407 119.842C202.44 119.172 199.909 116.831 198.688 117.196Z" fill="#FCB9A4"/>
<path d="M181.862 136.006C181.248 136.042 180.639 135.869 180.135 135.517C179.039 134.735 178.644 133.308 178.416 131.981C177.929 129.138 177.859 126.24 177.794 123.356C177.725 121.928 177.759 120.497 177.896 119.074C178.3 115.674 179.645 111.76 181.548 108.922C181.81 108.475 182.169 108.093 182.598 107.803C183.14 107.489 183.792 107.468 184.415 107.495C186.739 107.598 189.003 108.27 191.006 109.452C191.197 109.548 191.365 109.684 191.499 109.852C191.851 110.365 191.499 111.055 191.15 111.571L188.091 116.09C187.356 116.985 186.956 118.107 186.959 119.264C186.605 123.661 186.718 128.089 185.571 132.387C185.408 133.13 185.112 133.838 184.696 134.476C184.365 134.923 183.939 135.291 183.449 135.555C182.96 135.82 182.418 135.973 181.862 136.006Z" fill="#FCB9A4"/>
<path d="M167.643 123.569C167.215 121.258 167.02 118.953 168.184 116.693C169.121 114.871 171.662 113.847 173.549 113.509C175.858 113.093 178.229 113.379 180.557 113.666C180.2 113.622 177.49 117.874 177.25 118.382C176.619 119.715 177.12 121.415 177.166 122.867C177.325 127.705 178.135 134.549 175.076 138.679C174.448 139.528 173.487 140.336 172.453 140.122C171.481 139.925 170.915 138.922 170.558 138.001C168.742 133.306 168.558 128.489 167.643 123.569Z" fill="#FCB9A4"/>
<path d="M177.274 121.25C176.885 118.815 177.383 116.322 178.679 114.223C177.914 116.836 177.606 119.562 177.769 122.28C177.447 122.061 177.336 121.634 177.274 121.25Z" fill="#F5865E"/>
<path d="M196.063 125.251C196.807 122.567 197.378 119.839 197.771 117.082C198.243 119.587 198.056 122.172 197.229 124.583C196.471 126.789 195.202 128.778 193.943 130.743L196.859 122.55L196.063 125.251Z" fill="#F5865E"/>
<path d="M380.854 307.464H4.6126C2.06513 307.464 0 309.526 0 312.07V312.164C0 314.708 2.06513 316.77 4.6126 316.77H380.854C383.401 316.77 385.466 314.708 385.466 312.164V312.07C385.466 309.526 383.401 307.464 380.854 307.464Z" fill="#96BCDD"/>
<path d="M189.969 301.35H334.365C336.343 301.349 338.258 300.653 339.773 299.383C341.288 298.113 342.307 296.351 342.651 294.406L360.246 194.752C360.461 193.544 360.408 192.303 360.09 191.117C359.773 189.931 359.2 188.829 358.41 187.888C357.62 186.948 356.634 186.191 355.52 185.672C354.406 185.153 353.192 184.884 351.963 184.884H207.567C205.589 184.884 203.673 185.58 202.158 186.85C200.642 188.12 199.623 189.882 199.279 191.828L181.683 291.481C181.469 292.69 181.522 293.931 181.839 295.117C182.156 296.303 182.73 297.405 183.52 298.346C184.31 299.287 185.297 300.043 186.411 300.562C187.525 301.081 188.74 301.35 189.969 301.35Z" fill="#699FCE"/>
<path d="M198.147 301.35H327.625C331.287 301.35 334.419 298.538 335.055 294.684L350.837 199.015C351.649 194.077 348.094 189.555 343.403 189.555H213.937C210.277 189.555 207.142 192.366 206.506 196.223L190.727 291.889C189.913 296.822 193.467 301.35 198.147 301.35Z" fill="#74A6D2"/>
<path d="M136.516 308.377H330.21V301.001H141.399C140.112 301.001 138.878 301.509 137.965 302.414C137.052 303.32 136.535 304.549 136.527 305.834L136.516 308.377Z" fill="#699FCE"/>
<path d="M294.007 218.052C319.454 218.052 340.082 215.637 340.082 212.657C340.082 209.677 319.454 207.262 294.007 207.262C268.561 207.262 247.933 209.677 247.933 212.657C247.933 215.637 268.561 218.052 294.007 218.052Z" fill="#699FCE"/>
<path d="M454.658 132.624H453.045V277.574H454.658V132.624Z" fill="#67A4C3"/>
<path d="M526.43 203.848H381.268V205.459H526.43V203.848Z" fill="#67A4C3"/>
<path d="M506.222 201.58C492.712 201.58 481.917 197.645 474.064 189.838C465.57 181.394 462.191 169.907 460.854 161.757C459.98 156.537 459.685 151.237 459.974 145.953L461.328 146.069C461.046 151.253 461.339 156.453 462.2 161.573C463.51 169.515 466.801 180.697 475.028 188.873C483.847 197.639 496.575 201.353 512.857 199.91L512.979 201.261C510.66 201.474 508.408 201.58 506.222 201.58Z" fill="#67A4C3"/>
<path d="M450.024 265.227L448.67 265.113C448.952 259.928 448.659 254.728 447.796 249.607C446.489 241.665 443.194 230.483 434.971 222.306C426.151 213.541 413.421 209.827 397.141 211.27L397.02 209.919C413.724 208.437 426.82 212.284 435.94 221.35C444.434 229.796 447.812 241.284 449.152 249.434C450.023 254.65 450.315 259.947 450.024 265.227Z" fill="#67A4C3"/>
<path d="M459.928 142.012L453.876 129.684L448.332 141.99L447.084 141.431L453.824 126.475L461.155 141.409L459.928 142.012Z" fill="#67A4C3"/>
<path d="M521.021 212.057L520.42 210.832L532.766 204.788L520.442 199.253L521.002 198.007L535.98 204.737L521.021 212.057Z" fill="#67A4C3"/>
<path d="M543.689 195.606H546.466L548.423 198.55C548.876 199.192 549.348 199.928 549.839 200.758H549.896C550.237 200.153 550.708 199.407 551.284 198.52L553.179 195.606H555.886L551.211 202.229L556 209.305H553.215L551.174 206.221C550.795 205.653 550.303 204.861 549.698 203.842H549.641C549.225 204.578 548.743 205.371 548.196 206.221L546.212 209.305H543.462L548.334 202.315L543.689 195.606Z" fill="#67A4C3"/>
<path d="M446.594 102.316H449.317L452.295 110.425C452.645 111.343 452.948 112.279 453.202 113.228H453.259C453.278 113.171 453.397 112.779 453.613 112.052C453.83 111.325 454.006 110.765 454.138 110.368L456.845 102.329H459.482L455.741 112.095C455.041 113.991 454.228 115.844 453.305 117.642C452.729 118.779 451.957 119.805 451.023 120.672C449.983 121.54 448.963 122.068 447.961 122.256L447.339 120.191C448.142 119.939 448.885 119.525 449.52 118.974C450.434 118.232 451.154 117.28 451.618 116.198C451.716 116.012 451.784 115.811 451.819 115.604C451.796 115.376 451.728 115.156 451.618 114.955L446.594 102.316Z" fill="#67A4C3"/>
</svg>
